<svg viewBox="0 0 166.95 43.45" xmlns="http://www.w3.org/2000/svg">
 <g fill="#58595b">
 <path d="m0 43.34h1.48l.62-2.31h2.92l.33-1.17h-2.94l.45-1.68h3.31l.33-1.17h-4.79z"/>
 <path d="m12.41 40.53a2.71 2.71 0 0 1 -.67 1.28 1.54 1.54 0 0 1 -1.1.4 1.23 1.23 0 0 1 -.89-.29 1 1 0 0 1 -.25-.86 3 3 0 0 1 .09-.53l1-3.52h-1.52l-1 3.55a3.68 3.68 0 0 0 -.12.68 1.91 1.91 0 0 0 .56 1.63 2.59 2.59 0 0 0 1.83.59 3.35 3.35 0 0 0 3.44-2.83l1-3.61h-1.42z"/>
 <path d="m16.73 38.2h2.03l-1.38 5.14h1.47l1.39-5.14h2.02l.33-1.19h-5.53z"/>
 <path d="m28.18 40.53a2.71 2.71 0 0 1 -.67 1.28 1.54 1.54 0 0 1 -1.1.4 1.23 1.23 0 0 1 -.89-.29 1 1 0 0 1 -.25-.86 3.11 3.11 0 0 1 .09-.53l1-3.52h-1.52l-1 3.55a3.78 3.78 0 0 0 -.12.68 1.92 1.92 0 0 0 .57 1.63 2.59 2.59 0 0 0 1.83.59 3.35 3.35 0 0 0 3.44-2.83l1-3.61h-1.43z"/>
 <path d="m36.24 37h-2.58l-1.71 6.34h1.48l.48-1.77h1.25l.84 1.77h1.55l-1-2a2.81 2.81 0 0 0 1.39-.9 2.6 2.6 0 0 0 .64-1.44 1.63 1.63 0 0 0 -.58-1.48 2.72 2.72 0 0 0 -1.76-.52zm.38 3.06a1.82 1.82 0 0 1 -1.16.34h-1.26l.6-2.2h1.2a1.39 1.39 0 0 1 .86.23.74.74 0 0 1 .26.68 1.27 1.27 0 0 1 -.51.95z"/>
 <path d="m40.23 43.34h4.9l.33-1.18h-3.46l.4-1.46h2.95l.3-1.14h-2.94l.37-1.38h3.32l.33-1.17h-4.79z"/>
 <path d="m52.12 43.34h4.91l.32-1.18h-3.45l.39-1.46h2.95l.31-1.14h-2.95l.37-1.38h3.33l.32-1.17h-4.79z"/>
 <path d="m64.83 40.98-2.08-3.97h-1.21l-1.71 6.33h1.44l1.08-3.96 2.08 3.96h1.21l1.71-6.33h-1.45z"/>
 <path d="m68.77 43.34h4.9l.33-1.18h-3.46l.4-1.46h2.95l.3-1.14h-2.94l.37-1.38h3.32l.33-1.17h-4.79z"/>
 <path d="m80.76 37h-2.58l-1.71 6.34h1.48l.48-1.77h1.25l.87 1.77h1.55l-1-2a2.81 2.81 0 0 0 1.39-.9 2.6 2.6 0 0 0 .62-1.44 1.63 1.63 0 0 0 -.55-1.45 2.72 2.72 0 0 0 -1.8-.55zm.38 3.06a1.82 1.82 0 0 1 -1.14.34h-1.27l.6-2.2h1.16a1.4 1.4 0 0 1 .86.23.74.74 0 0 1 .26.68 1.27 1.27 0 0 1 -.47.95z"/>
 <path d="m87.94 38.47a2.61 2.61 0 0 1 1.3-.32 2.33 2.33 0 0 1 .93.17 1.75 1.75 0 0 1 .68.54l1.15-.86a2.3 2.3 0 0 0 -1-.82 3.88 3.88 0 0 0 -1.55-.28 4.49 4.49 0 0 0 -2.12.49 3.92 3.92 0 0 0 -1.5 1.36 4.05 4.05 0 0 0 -.64 1.95 2.57 2.57 0 0 0 .28 1.44 2.32 2.32 0 0 0 1 1 3.58 3.58 0 0 0 1.63.34 4.48 4.48 0 0 0 1.33-.2 3.84 3.84 0 0 0 1.15-.57l.71-2.61h-1.36l-.5 1.9a2.55 2.55 0 0 1 -1.06.23 1.85 1.85 0 0 1 -1.37-.46 1.4 1.4 0 0 1 -.39-1.16 2.73 2.73 0 0 1 .39-1.26 2.46 2.46 0 0 1 .94-.88z"/>
 <path d="m96.6 39.83-.94-2.82h-1.46l1.34 4.07-.6 2.26h1.47l.58-2.2 3.59-4.13h-1.51z"/>
 <path d="m105.3 43.34h4.91l.33-1.18h-3.46l.39-1.46h2.95l.31-1.14h-2.94l.36-1.38h3.33l.32-1.17h-4.79z"/>
 <path d="m118.54 37.01-1.99 2.03-.92-2.03h-1.56l1.42 3.05-3.26 3.28h1.76l2.07-2.15.97 2.15h1.58l-1.51-3.19 3.1-3.14z"/>
 <path d="m125.11 37h-2.56l-1.71 6.34h1.48l.47-1.75h1.41a4 4 0 0 0 1.66-.32 2.62 2.62 0 0 0 1.61-2.3 1.65 1.65 0 0 0 -.55-1.45 2.71 2.71 0 0 0 -1.81-.52zm.38 3.06a1.8 1.8 0 0 1 -1.15.34h-1.24l.6-2.2h1.15a1.37 1.37 0 0 1 .86.23.74.74 0 0 1 .26.68 1.28 1.28 0 0 1 -.48.95z"/>
 <path d="m129 43.34h4.91l.33-1.18h-3.46l.39-1.46h2.95l.31-1.14h-2.94l.36-1.38h3.33l.32-1.17h-4.79z"/>
 <path d="m141 37h-2.58l-1.71 6.34h1.48l.48-1.77h1.25l.87 1.77h1.55l-1-2a2.81 2.81 0 0 0 1.39-.9 2.6 2.6 0 0 0 .59-1.52 1.63 1.63 0 0 0 -.55-1.45 2.72 2.72 0 0 0 -1.77-.47zm.38 3.06a1.82 1.82 0 0 1 -1.16.34h-1.22l.6-2.2h1.16a1.4 1.4 0 0 1 .86.23.74.74 0 0 1 .26.68 1.27 1.27 0 0 1 -.51.95z"/>
 <path d="m145.56 38.2h2.03l-1.38 5.14h1.47l1.39-5.14h2.02l.32-1.19h-5.52z"/>
 <path d="m155.95 36.9a4.23 4.23 0 0 0 -1.54.26 2.48 2.48 0 0 0 -1.07.75 2 2 0 0 0 -.44 1.09 1.25 1.25 0 0 0 .22.89 1.67 1.67 0 0 0 .64.5 8.68 8.68 0 0 0 1 .35 4.51 4.51 0 0 1 .88.32.43.43 0 0 1 .25.43.66.66 0 0 1 -.39.54 2 2 0 0 1 -1 .2 3.56 3.56 0 0 1 -1.1-.17 3.09 3.09 0 0 1 -.94-.49l-.68 1.13a3.22 3.22 0 0 0 1.07.51 5 5 0 0 0 1.43.2 4.26 4.26 0 0 0 1.56-.27 2.57 2.57 0 0 0 1.08-.75 2 2 0 0 0 .44-1.14 1.19 1.19 0 0 0 -.22-.85 1.63 1.63 0 0 0 -.63-.49 7.08 7.08 0 0 0 -1-.33l-.65-.2a1.06 1.06 0 0 1 -.37-.23.42.42 0 0 1 -.13-.35.7.7 0 0 1 .4-.56 2 2 0 0 1 1-.22 3.38 3.38 0 0 1 .91.12 2.38 2.38 0 0 1 .77.37l.63-1.12a3 3 0 0 0 -.95-.4 5 5 0 0 0 -1.17-.09z"/>
 <path d="m46.63 19.25h3.78l-.36-7.3z"/>
 <path d="m118.83 11.39c-3.23 0-5.08 2.88-5.33 6.56-.2 2.91.71 4.45 3.06 4.45 3.23 0 5.08-2.88 5.34-6.59.19-2.91-.72-4.42-3.07-4.42z"/>
 <path d="m22.92 11a7.24 7.24 0 0 0 -1 .07l-1 4.74a4.67 4.67 0 0 0 .73 0c1.51 0 4.34-.39 4.51-2.74.14-1.71-1.84-2.07-3.24-2.07z"/>
 <path d="m7.35 0-6.55 33.92h159.6l6.55-33.92zm24.9 28.51a16.07 16.07 0 0 1 -4.82.7c-3.4 0-5.07-1.79-7.2-7.89a1.7 1.7 0 0 1 -.42 0l-1.57 7.4h-8.38l4.93-23.43a60.54 60.54 0 0 1 8.82-.7c6 0 11.65 1.47 11.25 7.19-.34 4.81-3.3 7.05-6.93 8.24 1.91 3.26 4 2.81 5.49 2.81zm18.62.24-.18-4h-6.69l-1.82 4h-8.71l12.85-23.75h10.35l2.9 23.71zm20.35 0h-8.7l1.78-8.45-4.96-15.3h8.8l1.86 8.6 5.58-8.6h8.73l-11.31 15.3zm23.9 0h-8.7l3.58-16.94h-6.43l1.43-6.81h21.5l-1.42 6.77h-6.39zm20 .46c-6.91 0-11-3.82-10.47-10.73.58-8.31 7.18-13.89 15.53-13.89 6.91 0 11 3.82 10.47 10.73-.54 8.31-7.14 13.89-15.49 13.89zm38.17-.46h-8.21l-4.52-12.17-2.56 12.18h-8l5-23.71h8.66l4.1 12.1 2.6-12.15h8z"/>
 </g>
 </svg>