<?xml version="1.0" encoding="UTF-8"?>
<!DOCTYPE svg PUBLIC "-//W3C//DTD SVG 1.1//EN" "http://www.w3.org/Graphics/SVG/1.1/DTD/svg11.dtd">
<svg xmlns="http://www.w3.org/2000/svg" version="1.1" width="370px" height="370px" style="shape-rendering:geometricPrecision; text-rendering:geometricPrecision; image-rendering:optimizeQuality; fill-rule:evenodd; clip-rule:evenodd" xmlns:xlink="http://www.w3.org/1999/xlink">
<g><path style="opacity:0.102" fill="#b48481" d="M 102.5,72.5 C 103.872,73.5116 105.205,74.5116 106.5,75.5C 104.319,75.7163 102.653,74.883 101.5,73C 101.728,72.6012 102.062,72.4346 102.5,72.5 Z"/></g>
<g><path style="opacity:0.981" fill="#95211f" d="M 102.5,72.5 C 102.062,72.4346 101.728,72.6012 101.5,73C 102.653,74.883 104.319,75.7163 106.5,75.5C 113.794,77.6022 119.96,81.6022 125,87.5C 125.684,88.7839 125.517,89.9505 124.5,91C 127.232,91.3981 129.065,92.8981 130,95.5C 143.393,130.775 168.226,142.275 204.5,130C 211.472,127.517 217.806,124.017 223.5,119.5C 225.5,119.5 226.5,118.5 226.5,116.5C 228.149,113.357 230.316,110.69 233,108.5C 233.945,108.905 234.612,109.572 235,110.5C 234.17,98.6467 238.003,88.48 246.5,80C 255.502,74.9985 263.836,75.9985 271.5,83C 283.845,94.1527 286.178,106.986 278.5,121.5C 279.814,125.422 280.814,129.422 281.5,133.5C 279.77,139.192 277.936,144.858 276,150.5C 275.502,153.482 275.335,156.482 275.5,159.5C 272.724,159.089 272.057,159.922 273.5,162C 272.609,164.279 271.609,166.446 270.5,168.5C 270.229,170.38 270.896,171.713 272.5,172.5C 274.141,176.238 273.141,179.238 269.5,181.5C 267.952,181.821 267.285,182.821 267.5,184.5C 267.528,189.298 265.361,192.631 261,194.5C 260.405,195.899 260.572,197.232 261.5,198.5C 261,199.5 260.5,200.5 260,201.5C 258.028,202.305 256.528,203.639 255.5,205.5C 257.174,207.349 258.174,209.516 258.5,212C 256.436,215.171 254.936,218.671 254,222.5C 251.913,223.794 249.746,224.961 247.5,226C 241.958,231.372 235.958,236.206 229.5,240.5C 228.353,240.182 227.519,239.516 227,238.5C 226.177,241.316 224.677,243.65 222.5,245.5C 214.672,250.248 207.005,255.248 199.5,260.5C 196.462,265.746 194.796,271.413 194.5,277.5C 195.487,280.134 196.987,282.468 199,284.5C 199.788,286.165 200.122,287.831 200,289.5C 197.91,290.152 195.743,290.319 193.5,290C 189.177,295.823 183.51,298.989 176.5,299.5C 176.5,298.167 176.5,296.833 176.5,295.5C 171.851,296.295 167.184,296.461 162.5,296C 157.777,293.734 152.777,292.234 147.5,291.5C 148.472,289.364 150.139,288.197 152.5,288C 157.155,287.501 161.821,287.334 166.5,287.5C 166.574,285.589 167.574,284.422 169.5,284C 173.111,283.87 176.611,283.703 180,283.5C 183.817,274.103 183.151,265.103 178,256.5C 167.393,250.148 159.726,252.815 155,264.5C 153.228,271.444 154.728,277.444 159.5,282.5C 159.291,283.086 158.957,283.586 158.5,284C 155.833,284.333 153.167,284.667 150.5,285C 144.824,288.372 139.491,292.038 134.5,296C 126.855,296.887 119.189,297.387 111.5,297.5C 111.5,296.167 111.5,294.833 111.5,293.5C 114.797,293.671 115.131,293.005 112.5,291.5C 113.09,290.201 114.09,289.368 115.5,289C 124.48,287.234 132.647,283.734 140,278.5C 140.847,276.807 141.68,275.14 142.5,273.5C 144.048,273.179 144.715,272.179 144.5,270.5C 145.261,265.623 146.261,260.79 147.5,256C 147.369,253.747 146.869,251.581 146,249.5C 136.026,240.195 126.026,230.861 116,221.5C 103.401,206.216 94.9006,188.883 90.5,169.5C 90.5904,167.575 91.5904,166.408 93.5,166C 92.2068,165.51 90.8734,165.343 89.5,165.5C 89.5,163.833 89.5,162.167 89.5,160.5C 90.7574,159.377 90.4241,158.711 88.5,158.5C 88.1395,146.786 88.6395,135.119 90,123.5C 92.19,121.605 92.69,119.105 91.5,116C 91.6368,113.102 92.1368,110.269 93,107.5C 93.9025,106.299 95.0692,105.465 96.5,105C 93.1667,104.667 89.8333,104.333 86.5,104C 82.304,100.304 78.6374,96.1371 75.5,91.5C 73.8849,90.846 72.2182,90.346 70.5,90C 69.9781,89.4387 69.6448,88.772 69.5,88C 73.5793,82.2536 77.246,76.2536 80.5,70C 86.0115,67.9108 91.6781,66.4108 97.5,65.5C 100.722,66.6265 102.389,68.9598 102.5,72.5 Z M 253.5,144.5 C 255.403,144.796 257.07,145.463 258.5,146.5C 256.708,146.366 255.042,146.699 253.5,147.5C 253.5,146.5 253.5,145.5 253.5,144.5 Z M 259.5,147.5 C 260.219,149.091 261.219,150.591 262.5,152C 261.207,152.49 259.873,152.657 258.5,152.5C 258.629,150.784 258.962,149.117 259.5,147.5 Z M 130.5,150.5 C 129.656,152.759 127.989,153.759 125.5,153.5C 126.899,152.11 128.566,151.11 130.5,150.5 Z M 140.5,170.5 C 141.798,171.116 142.798,171.116 143.5,170.5C 144.167,170.5 144.833,170.5 145.5,170.5C 144.488,171.872 143.488,173.205 142.5,174.5C 142.267,172.938 141.6,171.605 140.5,170.5 Z M 230.5,194.5 C 231.122,193.373 231.955,192.373 233,191.5C 233.519,193.489 232.686,194.489 230.5,194.5 Z M 224.5,199.5 C 226.244,196.9 227.577,197.066 228.5,200C 227.181,200.195 225.847,200.028 224.5,199.5 Z M 144.5,204.5 C 141.316,204.668 140.816,203.334 143,200.5C 143.791,201.745 144.291,203.078 144.5,204.5 Z"/></g>
<g><path style="opacity:1" fill="#ab8485" d="M 87.5,87.5 C 88.8333,86.8333 88.8333,86.1667 87.5,85.5C 87.238,84.0222 87.5713,82.6888 88.5,81.5C 89.8333,85.1667 89.8333,88.8333 88.5,92.5C 87.5481,90.9547 87.2148,89.288 87.5,87.5 Z"/></g>
<g><path style="opacity:1" fill="#aa8887" d="M 90.5,81.5 C 91.8734,81.3433 93.2068,81.51 94.5,82C 91.9422,83.3799 91.9422,84.8799 94.5,86.5C 91.8333,88.1667 91.8333,89.8333 94.5,91.5C 93.3112,92.4287 91.9778,92.762 90.5,92.5C 90.5,88.8333 90.5,85.1667 90.5,81.5 Z"/></g>
<g><path style="opacity:1" fill="#be9e9f" d="M 102.5,81.5 C 105.893,81.3753 107.226,83.042 106.5,86.5C 106.918,89.2706 105.918,91.2706 103.5,92.5C 102.511,88.8927 102.177,85.226 102.5,81.5 Z"/></g>
<g><path style="opacity:1" fill="#942422" d="M 103.5,82.5 C 105.829,84.9959 105.996,87.6626 104,90.5C 103.503,87.854 103.336,85.1873 103.5,82.5 Z"/></g>
<g><path style="opacity:1" fill="#dac6ca" d="M 87.5,85.5 C 88.8333,86.1667 88.8333,86.8333 87.5,87.5C 85.955,88.2297 85.1216,89.563 85,91.5C 84.3333,88.1667 84.3333,84.8333 85,81.5C 85.1216,83.437 85.955,84.7703 87.5,85.5 Z"/></g>
<g><path style="opacity:1" fill="#cdbebe" d="M 97.5,81.5 C 99.045,82.2297 99.8784,83.563 100,85.5C 100.667,87.8333 100.667,90.1667 100,92.5C 99.0514,88.6221 97.8847,88.6221 96.5,92.5C 96.1667,92.1667 95.8333,91.8333 95.5,91.5C 96.1682,88.1368 96.8349,84.8034 97.5,81.5 Z"/></g>
<g><path style="opacity:1" fill="#e4d9d8" d="M 256.5,96.5 C 259.25,101.746 260.417,107.413 260,113.5C 259.124,111.275 257.957,109.275 256.5,107.5C 255.667,109.5 254.833,111.5 254,113.5C 253.771,107.663 254.604,101.996 256.5,96.5 Z"/></g>
<g><path style="opacity:1" fill="#e7e1e1" d="M 268.5,97.5 C 270.28,101.727 271.114,106.394 271,111.5C 272.011,110.663 273.178,110.33 274.5,110.5C 274.5,111.5 274.5,112.5 274.5,113.5C 272.5,113.5 270.5,113.5 268.5,113.5C 268.5,108.167 268.5,102.833 268.5,97.5 Z"/></g>
<g><path style="opacity:1" fill="#935e5d" d="M 246.5,97.5 C 248.37,102.532 249.037,107.865 248.5,113.5C 248.062,108.46 247.062,103.46 245.5,98.5C 245.624,97.8933 245.957,97.56 246.5,97.5 Z"/></g>
<g><path style="opacity:1" fill="#f4f3f3" d="M 246.5,97.5 C 248.167,97.5 249.833,97.5 251.5,97.5C 249.63,102.532 248.963,107.865 249.5,113.5C 249.167,113.5 248.833,113.5 248.5,113.5C 249.037,107.865 248.37,102.532 246.5,97.5 Z"/></g>
<g><path style="opacity:1" fill="#874140" d="M 251.5,97.5 C 252.043,97.56 252.376,97.8933 252.5,98.5C 250.938,103.46 249.938,108.46 249.5,113.5C 248.963,107.865 249.63,102.532 251.5,97.5 Z"/></g>
<g><path style="opacity:1" fill="#d3c3c3" d="M 262.5,97.5 C 263.978,97.238 265.311,97.5713 266.5,98.5C 265.167,103.167 265.167,107.833 266.5,112.5C 265.167,113.833 263.833,113.833 262.5,112.5C 263.778,107.501 263.778,102.501 262.5,97.5 Z"/></g>
<g><path style="opacity:0.471" fill="#ab8b8a" d="M 114.5,103.5 C 114.833,103.5 115.167,103.5 115.5,103.5C 115.167,105.833 113.833,107.167 111.5,107.5C 111.5,107.167 111.5,106.833 111.5,106.5C 112.167,106.5 112.5,106.167 112.5,105.5C 113.167,105.5 113.5,105.167 113.5,104.5C 114.167,104.5 114.5,104.167 114.5,103.5 Z"/></g>
<g><path style="opacity:0.282" fill="#bfa5a7" d="M 105.5,112.5 C 105.5,112.167 105.5,111.833 105.5,111.5C 106.167,111.5 106.5,111.167 106.5,110.5C 108.105,109.031 108.605,109.365 108,111.5C 107.329,112.252 106.496,112.586 105.5,112.5 Z"/></g>
<g><path style="opacity:0.329" fill="#b09999" d="M 226.5,116.5 C 226.5,118.5 225.5,119.5 223.5,119.5C 224.167,118.167 225.167,117.167 226.5,116.5 Z"/></g>
<g><path style="opacity:1" fill="#e2dada" d="M 125.5,116.5 C 127.156,119.155 128.489,122.155 129.5,125.5C 131.5,127.167 133.5,128.833 135.5,130.5C 135,130.833 134.5,131.167 134,131.5C 128.178,127.151 127.345,127.818 131.5,133.5C 131.167,133.833 130.833,134.167 130.5,134.5C 127.504,129.871 124.504,125.204 121.5,120.5C 122.002,119.479 122.668,119.312 123.5,120C 124.46,121.419 125.293,122.919 126,124.5C 126.175,121.843 126.008,119.176 125.5,116.5 Z"/></g>
<g><path style="opacity:1" fill="#dacdcd" d="M 110.5,125.5 C 111.497,125.47 112.164,125.97 112.5,127C 109.99,128.293 109.323,130.126 110.5,132.5C 111.833,132.833 113.167,133.167 114.5,133.5C 113.167,135.167 113.167,136.833 114.5,138.5C 120.942,138.45 121.109,140.116 115,143.5C 112.418,138.667 109.585,134 106.5,129.5C 107.549,127.784 108.882,126.451 110.5,125.5 Z"/></g>
<g><path style="opacity:1" fill="#dad0d0" d="M 115.5,122.5 C 117.288,122.215 118.955,122.548 120.5,123.5C 119.726,124.711 118.893,124.711 118,123.5C 116.853,127.752 118.02,131.585 121.5,135C 123.594,135.445 125.094,134.612 126,132.5C 126.494,134.134 126.66,135.801 126.5,137.5C 120.877,137.069 117.043,134.069 115,128.5C 114.322,126.402 114.489,124.402 115.5,122.5 Z"/></g>
<g><path style="opacity:1" fill="#e8e3e3" d="M 102.5,130.5 C 103.496,130.414 104.329,130.748 105,131.5C 107.15,135.657 109.316,139.823 111.5,144C 111.333,144.5 111.167,145 111,145.5C 105.231,138.514 104.398,138.847 108.5,146.5C 108.167,146.833 107.833,147.167 107.5,147.5C 104.5,142.833 101.5,138.167 98.5,133.5C 99.0016,132.479 99.6683,132.312 100.5,133C 106.364,138.813 107.031,137.98 102.5,130.5 Z"/></g>
<g><path style="opacity:0.031" fill="#c3c3c3" d="M 147.5,137.5 C 149.657,138.053 149.49,139.053 147,140.5C 146.53,139.423 146.697,138.423 147.5,137.5 Z"/></g>
<g><path style="opacity:0.243" fill="#b6aaaa" d="M 144.5,140.5 C 144.728,142.355 144.061,143.188 142.5,143C 143.066,142.005 143.733,141.172 144.5,140.5 Z"/></g>
<g><path style="opacity:1" fill="#dccbcb" d="M 191.5,137.5 C 192.496,137.414 193.329,137.748 194,138.5C 194.848,143.259 196.014,147.925 197.5,152.5C 196.675,153.386 195.675,153.719 194.5,153.5C 194.5,152.167 194.5,150.833 194.5,149.5C 193.5,149.5 192.5,149.5 191.5,149.5C 191.785,151.288 191.452,152.955 190.5,154.5C 190.167,153.667 189.833,152.833 189.5,152C 190.401,147.191 191.068,142.358 191.5,137.5 Z"/></g>
<g><path style="opacity:1" fill="#d1bdbd" d="M 211.5,136.5 C 212.497,136.47 213.164,136.97 213.5,138C 210.684,142.584 211.018,146.918 214.5,151C 214.167,151.5 213.833,152 213.5,152.5C 212.139,150.972 210.972,149.305 210,147.5C 209.28,149.112 209.446,150.612 210.5,152C 209.552,152.483 208.552,152.649 207.5,152.5C 207.497,147.473 207.164,142.473 206.5,137.5C 207.5,137.5 208.5,137.5 209.5,137.5C 209.351,138.552 209.517,139.552 210,140.5C 210.791,139.255 211.291,137.922 211.5,136.5 Z"/></g>
<g><path style="opacity:1" fill="#d1c3c3" d="M 200.5,137.5 C 202.429,137.231 204.095,137.731 205.5,139C 204.167,139 202.833,139 201.5,139C 198.882,143.446 199.382,147.613 203,151.5C 203.743,149.355 204.576,149.189 205.5,151C 203.31,154.369 201.144,154.202 199,150.5C 196.764,145.801 197.264,141.467 200.5,137.5 Z"/></g>
<g><path style="opacity:1" fill="#dbcccc" d="M 180.5,138.5 C 182.722,138.178 184.556,138.845 186,140.5C 186.332,143.506 187.166,146.34 188.5,149C 187.705,152.737 185.372,154.57 181.5,154.5C 180.902,149.187 180.569,143.854 180.5,138.5 Z"/></g>
<g><path style="opacity:1" fill="#931b1b" d="M 183.5,146.5 C 184.649,146.791 185.316,147.624 185.5,149C 185.167,149.833 184.833,150.667 184.5,151.5C 183.548,149.955 183.215,148.288 183.5,146.5 Z"/></g>
<g><path style="opacity:1" fill="#99322e" d="M 182.5,140.5 C 184.465,140.948 184.798,141.948 183.5,143.5C 182.614,142.675 182.281,141.675 182.5,140.5 Z"/></g>
<g><path style="opacity:0.016" fill="#f6f4f4" d="M 224.5,158.5 C 224.5,159.833 223.833,160.5 222.5,160.5C 222.5,159.167 223.167,158.5 224.5,158.5 Z"/></g>
<g><path style="opacity:0.282" fill="#877e7e" d="M 88.5,158.5 C 90.4241,158.711 90.7574,159.377 89.5,160.5C 88.6618,160.158 88.3284,159.492 88.5,158.5 Z"/></g>
<g><path style="opacity:0.031" fill="#fcfcfc" d="M 162.5,161.5 C 162.842,160.662 163.508,160.328 164.5,160.5C 164.672,161.492 164.338,162.158 163.5,162.5C 163.5,161.833 163.167,161.5 162.5,161.5 Z"/></g>
<g><path style="opacity:0.11" fill="#c4c4c4" d="M 218.5,159.5 C 218.842,160.338 219.508,160.672 220.5,160.5C 219.614,161.776 218.614,161.776 217.5,160.5C 217.624,159.893 217.957,159.56 218.5,159.5 Z"/></g>
<g><path style="opacity:0.071" fill="#e8e6e6" d="M 104.5,161.5 C 104.5,162.833 103.833,163.5 102.5,163.5C 102.5,163.167 102.5,162.833 102.5,162.5C 103.167,162.167 103.833,161.833 104.5,161.5 Z"/></g>
<g><path style="opacity:0.016" fill="#e9e6e6" d="M 95.5,164.5 C 95.8417,163.662 96.5084,163.328 97.5,163.5C 97.6716,164.492 97.3382,165.158 96.5,165.5C 96.5,164.833 96.1667,164.5 95.5,164.5 Z"/></g>
<g><path style="opacity:0.227" fill="#9f625d" d="M 131.5,159.5 C 131.833,159.5 132.167,159.5 132.5,159.5C 132.328,160.492 132.662,161.158 133.5,161.5C 133.5,162.167 133.833,162.5 134.5,162.5C 134.328,163.492 134.662,164.158 135.5,164.5C 135.5,164.833 135.5,165.167 135.5,165.5C 132.224,164.878 130.891,162.878 131.5,159.5 Z"/></g>
<g><path style="opacity:0.384" fill="#a9726d" d="M 138.5,168.5 C 138.5,168.167 138.5,167.833 138.5,167.5C 140.434,168.11 142.101,169.11 143.5,170.5C 142.798,171.116 141.798,171.116 140.5,170.5C 140.5,169.833 140.167,169.5 139.5,169.5C 139.5,168.833 139.167,168.5 138.5,168.5 Z"/></g>
<g><path style="opacity:1" fill="#d2c5c5" d="M 111.5,166.5 C 112.833,166.5 114.167,166.5 115.5,166.5C 115.657,167.873 115.49,169.207 115,170.5C 112.514,172.5 109.847,174.167 107,175.5C 105.029,175.719 103.862,174.885 103.5,173C 106.022,170.583 108.688,168.417 111.5,166.5 Z"/></g>
<g><path style="opacity:0.063" fill="#8d7c7e" d="M 270.5,168.5 C 271.674,169.514 272.34,170.847 272.5,172.5C 270.896,171.713 270.229,170.38 270.5,168.5 Z"/></g>
<g><path style="opacity:1" fill="#932827" d="M 108.5,170.5 C 109.867,172.093 109.534,173.426 107.5,174.5C 106.692,174.192 106.025,173.692 105.5,173C 106.571,172.148 107.571,171.315 108.5,170.5 Z"/></g>
<g><path style="opacity:0.267" fill="#a07e7c" d="M 247.5,174.5 C 247.833,174.5 248.167,174.5 248.5,174.5C 248.179,176.048 247.179,176.715 245.5,176.5C 246.167,175.833 246.833,175.167 247.5,174.5 Z"/></g>
<g><path style="opacity:1" fill="#d7cece" d="M 113.5,179.5 C 112.778,179.082 112.278,178.416 112,177.5C 111.601,177.728 111.435,178.062 111.5,178.5C 109.863,179.218 108.197,179.384 106.5,179C 110.09,175.871 114.09,173.871 118.5,173C 119.747,174.458 119.747,175.958 118.5,177.5C 116.709,178.17 115.042,178.837 113.5,179.5 Z"/></g>
<g><path style="opacity:1" fill="#943735" d="M 115.5,174.5 C 117.048,174.821 117.715,175.821 117.5,177.5C 113.627,177.666 112.96,176.666 115.5,174.5 Z"/></g>
<g><path style="opacity:1" fill="#e7dddd" d="M 188.5,175.5 C 189.496,175.414 190.329,175.748 191,176.5C 192,179.167 193,181.833 194,184.5C 194.419,182.32 194.252,180.154 193.5,178C 193.833,177.167 194.167,176.333 194.5,175.5C 196.798,182.281 198.131,189.281 198.5,196.5C 197.5,196.5 196.5,196.5 195.5,196.5C 195.54,193.575 194.707,190.909 193,188.5C 192.272,191.23 192.438,193.897 193.5,196.5C 192.675,197.386 191.675,197.719 190.5,197.5C 189.181,190.235 188.515,182.902 188.5,175.5 Z"/></g>
<g><path style="opacity:1" fill="#d0c4c4" d="M 252.5,176.5 C 252.56,175.957 252.893,175.624 253.5,175.5C 257.238,177.076 260.571,179.243 263.5,182C 261.744,182.14 260.078,181.64 258.5,180.5C 258.167,181 257.833,181.5 257.5,182C 258.613,183.394 259.947,184.561 261.5,185.5C 261.167,185.833 260.833,186.167 260.5,186.5C 257.467,184.302 254.3,182.302 251,180.5C 250.333,179.833 250.333,179.167 251,178.5C 252.819,180.536 254.653,180.703 256.5,179C 255.016,178.338 253.683,177.504 252.5,176.5 Z"/></g>
<g><path style="opacity:0.631" fill="#aa8a88" d="M 244.5,178.5 C 245.087,179.767 245.087,180.767 244.5,181.5C 243.224,180.386 243.224,179.386 244.5,178.5 Z"/></g>
<g><path style="opacity:1" fill="#ece5e4" d="M 172.5,191.5 C 172.783,192.289 173.283,192.956 174,193.5C 174.497,190.854 174.664,188.187 174.5,185.5C 174.337,183.143 174.503,180.81 175,178.5C 175.414,178.043 175.914,177.709 176.5,177.5C 177.277,184.484 177.11,191.484 176,198.5C 174.413,199.727 173.079,199.394 172,197.5C 171.517,198.448 171.351,199.448 171.5,200.5C 170.5,200.5 169.5,200.5 168.5,200.5C 166.979,195.095 165.146,189.762 163,184.5C 162.202,182.741 162.369,181.074 163.5,179.5C 165.592,184.025 167.425,188.691 169,193.5C 169.319,189.761 168.819,186.094 167.5,182.5C 167.833,181.833 168.167,181.167 168.5,180.5C 169.251,181.376 169.751,182.376 170,183.5C 170.249,182.376 170.749,181.376 171.5,180.5C 172.489,184.107 172.823,187.774 172.5,191.5 Z"/></g>
<g><path style="opacity:1" fill="#a07675" d="M 113.5,179.5 C 112.4,182.016 110.733,183.016 108.5,182.5C 110.288,181.717 111.288,180.384 111.5,178.5C 111.435,178.062 111.601,177.728 112,177.5C 112.278,178.416 112.778,179.082 113.5,179.5 Z"/></g>
<g><path style="opacity:0.014" fill="#cbcbcb" d="M 139.5,181.5 C 139.5,182.167 139.833,182.5 140.5,182.5C 140.5,185.5 140.5,188.5 140.5,191.5C 139.833,191.5 139.5,191.833 139.5,192.5C 138.167,188.833 138.167,185.167 139.5,181.5 Z"/></g>
<g><path style="opacity:0.165" fill="#9c8786" d="M 269.5,181.5 C 269.068,182.71 268.401,183.71 267.5,184.5C 267.285,182.821 267.952,181.821 269.5,181.5 Z"/></g>
<g><path style="opacity:1" fill="#d0c2c3" d="M 119.5,178.5 C 122.473,178.965 123.64,180.632 123,183.5C 121.101,179.898 119.435,180.231 118,184.5C 115.761,183.131 113.927,183.631 112.5,186C 113.711,186.893 113.711,187.726 112.5,188.5C 111.112,187.409 110.612,186.076 111,184.5C 114.291,183.025 117.125,181.025 119.5,178.5 Z"/></g>
<g><path style="opacity:1" fill="#d7cccd" d="M 247.5,182.5 C 250.718,182.651 251.051,183.484 248.5,185C 250.449,187.621 252.949,189.454 256,190.5C 256.5,190.167 257,189.833 257.5,189.5C 256.482,188.148 255.149,187.148 253.5,186.5C 253.808,185.692 254.308,185.025 255,184.5C 261.73,190.029 260.896,192.196 252.5,191C 250.667,189.167 248.833,187.333 247,185.5C 246.53,184.423 246.697,183.423 247.5,182.5 Z"/></g>
<g><path style="opacity:1" fill="#946666" d="M 174.5,185.5 C 174.664,188.187 174.497,190.854 174,193.5C 173.283,192.956 172.783,192.289 172.5,191.5C 173.167,189.5 173.833,187.5 174.5,185.5 Z"/></g>
<g><path style="opacity:1" fill="#e0d7d7" d="M 201.5,173.5 C 204.278,173.022 206.278,174.022 207.5,176.5C 206.224,177.645 204.891,177.645 203.5,176.5C 200.687,182.155 201.354,187.488 205.5,192.5C 205.833,191.667 206.167,190.833 206.5,190C 205.622,188.2 204.955,186.367 204.5,184.5C 206.167,184.5 207.833,184.5 209.5,184.5C 209.816,187.978 209.316,191.312 208,194.5C 206.333,195.833 204.667,195.833 203,194.5C 199.053,187.704 198.553,180.704 201.5,173.5 Z"/></g>
<g><path style="opacity:0.282" fill="#987776" d="M 236.5,188.5 C 238.592,189.286 238.259,190.286 235.5,191.5C 234.893,191.376 234.56,191.043 234.5,190.5C 235.167,190.5 235.5,190.167 235.5,189.5C 236.167,189.5 236.5,189.167 236.5,188.5 Z"/></g>
<g><path style="opacity:1" fill="#cbb7b7" d="M 244.5,187.5 C 247.665,190.312 251.332,192.312 255.5,193.5C 255.728,195.355 255.061,196.188 253.5,196C 250.146,193.968 246.813,191.968 243.5,190C 244.252,189.329 244.586,188.496 244.5,187.5 Z"/></g>
<g><path style="opacity:1" fill="#cdbbbb" d="M 118.5,194.5 C 117.425,195.562 116.425,195.562 115.5,194.5C 116.263,193.281 117.263,192.281 118.5,191.5C 116.784,191.003 115.117,190.669 113.5,190.5C 117.245,188.607 121.079,186.94 125,185.5C 125.5,185.833 126,186.167 126.5,186.5C 124.118,189.548 121.452,192.215 118.5,194.5 Z"/></g>
<g><path style="opacity:1" fill="#e7dfe0" d="M 180.5,177.5 C 183.523,177.105 184.523,178.105 183.5,180.5C 184.707,186.535 186.04,192.535 187.5,198.5C 185.833,198.5 184.167,198.5 182.5,198.5C 183.895,191.322 183.228,184.322 180.5,177.5 Z"/></g>
<g><path style="opacity:1" fill="#cebebe" d="M 241.5,191.5 C 245.598,193.749 249.598,196.249 253.5,199C 251.331,199.429 249.331,198.929 247.5,197.5C 247.167,197.833 246.833,198.167 246.5,198.5C 247.981,199.48 249.315,200.647 250.5,202C 246.248,201.369 242.582,199.369 239.5,196C 241.107,195.885 242.607,196.385 244,197.5C 244.5,197.167 245,196.833 245.5,196.5C 243.596,195.234 242.263,193.567 241.5,191.5 Z"/></g>
<g><path style="opacity:1" fill="#c4afae" d="M 118.5,194.5 C 120.758,194.775 121.092,195.775 119.5,197.5C 120.689,198.429 122.022,198.762 123.5,198.5C 123.623,195.626 124.623,193.126 126.5,191C 129.93,190.362 131.263,191.862 130.5,195.5C 128.058,195.881 127.391,195.214 128.5,193.5C 127.998,192.479 127.332,192.312 126.5,193C 125.751,194.734 125.251,196.567 125,198.5C 122.313,201.204 119.813,201.037 117.5,198C 117.989,196.862 118.322,195.695 118.5,194.5 Z"/></g>
<g><path style="opacity:1" fill="#cdbebe" d="M 238.5,197.5 C 239.249,198.531 239.915,199.698 240.5,201C 243.378,202.599 246.044,204.433 248.5,206.5C 248.167,206.833 247.833,207.167 247.5,207.5C 243.993,204.913 240.326,202.58 236.5,200.5C 237.193,199.482 237.859,198.482 238.5,197.5 Z"/></g>
<g><path style="opacity:1" fill="#cfbdbd" d="M 130.5,197.5 C 130.897,196.475 131.563,196.308 132.5,197C 135.108,200.031 134.108,201.365 129.5,201C 126.887,202.041 124.554,203.541 122.5,205.5C 122.167,205.167 121.833,204.833 121.5,204.5C 124.626,202.098 127.96,199.931 131.5,198C 131.272,197.601 130.938,197.435 130.5,197.5 Z"/></g>
<g><path style="opacity:0.008" fill="#b6aaa9" d="M 131.5,214.5 C 131.167,214.5 130.833,214.5 130.5,214.5C 130.843,212.775 131.843,212.275 133.5,213C 132.584,213.278 131.918,213.778 131.5,214.5 Z"/></g>
<g><path style="opacity:0.008" fill="#d8d7d7" d="M 230.5,208.5 C 230.593,214.491 230.593,220.491 230.5,226.5C 230.768,224.901 230.434,223.568 229.5,222.5C 229.5,219.167 229.5,215.833 229.5,212.5C 230.434,211.432 230.768,210.099 230.5,208.5 Z"/></g>
<g><path style="opacity:0.012" fill="#f2f2f2" d="M 184.5,217.5 C 184.842,216.662 185.508,216.328 186.5,216.5C 186.672,217.492 186.338,218.158 185.5,218.5C 185.5,217.833 185.167,217.5 184.5,217.5 Z"/></g>
<g><path style="opacity:0.024" fill="#fefefe" d="M 182.5,217.5 C 182.5,218.167 182.833,218.5 183.5,218.5C 183.158,219.338 182.492,219.672 181.5,219.5C 181.328,218.508 181.662,217.842 182.5,217.5 Z"/></g>
<g><path style="opacity:1" fill="#a88e8d" d="M 148.5,228.5 C 148.5,232.5 148.5,236.5 148.5,240.5C 149.5,240.5 150.5,240.5 151.5,240.5C 150.432,241.434 149.099,241.768 147.5,241.5C 147.182,236.968 147.515,232.634 148.5,228.5 Z"/></g>
<g><path style="opacity:1" fill="#c28b8a" d="M 164.5,228.5 C 163.518,231.962 163.185,235.629 163.5,239.5C 162.191,235.649 162.191,231.649 163.5,227.5C 164.107,227.624 164.44,227.957 164.5,228.5 Z"/></g>
<g><path style="opacity:1" fill="#efebec" d="M 173.5,231.5 C 173.719,232.675 173.386,233.675 172.5,234.5C 171.534,232.604 171.201,230.604 171.5,228.5C 171.56,227.957 171.893,227.624 172.5,227.5C 173.429,228.689 173.762,230.022 173.5,231.5 Z"/></g>
<g><path style="opacity:1" fill="#c6b1b1" d="M 184.5,234.5 C 180.736,233.615 179.736,231.448 181.5,228C 184.914,227.243 185.914,228.41 184.5,231.5C 183.808,230.975 183.308,230.308 183,229.5C 182.387,231.495 182.887,233.162 184.5,234.5 Z"/></g>
<g><path style="opacity:1" fill="#d4bebe" d="M 205.5,228.5 C 206.931,228.881 207.764,229.881 208,231.5C 208.419,230.328 209.085,229.328 210,228.5C 210.536,230.567 210.036,232.401 208.5,234C 210.595,236.29 211.262,238.79 210.5,241.5C 208.931,240.286 208.098,238.619 208,236.5C 207.798,238.256 207.298,239.922 206.5,241.5C 205.508,237.217 205.174,232.884 205.5,228.5 Z"/></g>
<g><path style="opacity:0.016" fill="#f1f1f1" d="M 230.5,228.5 C 230.5,229.833 229.833,230.5 228.5,230.5C 228.5,229.167 229.167,228.5 230.5,228.5 Z"/></g>
<g><path style="opacity:1" fill="#d8c8c8" d="M 187.5,227.5 C 189.288,227.215 190.955,227.548 192.5,228.5C 190.986,232.303 189.986,236.303 189.5,240.5C 188.713,236.162 188.046,231.828 187.5,227.5 Z"/></g>
<g><path style="opacity:1" fill="#ded8d9" d="M 151.5,240.5 C 150.5,240.5 149.5,240.5 148.5,240.5C 148.5,236.5 148.5,232.5 148.5,228.5C 148.435,228.062 148.601,227.728 149,227.5C 150.333,228.167 151.667,228.833 153,229.5C 153.667,232.833 153.667,236.167 153,239.5C 152.617,240.056 152.117,240.389 151.5,240.5 Z"/></g>
<g><path style="opacity:1" fill="#932b29" d="M 149.5,229.5 C 153.282,232.562 153.448,235.895 150,239.5C 149.502,236.183 149.335,232.85 149.5,229.5 Z"/></g>
<g><path style="opacity:1" fill="#ece7e7" d="M 193.5,229.5 C 194.251,228.427 195.251,228.26 196.5,229C 195.194,232.802 195.194,236.635 196.5,240.5C 195.5,241.833 194.5,241.833 193.5,240.5C 194.793,236.701 194.793,233.034 193.5,229.5 Z"/></g>
<g><path style="opacity:1" fill="#ba8f8e" d="M 171.5,228.5 C 171.201,230.604 171.534,232.604 172.5,234.5C 173.386,233.675 173.719,232.675 173.5,231.5C 174.167,232.5 174.833,233.5 175.5,234.5C 175.158,235.338 174.492,235.672 173.5,235.5C 172.835,237.369 172.169,239.369 171.5,241.5C 170.189,237.016 170.189,232.683 171.5,228.5 Z"/></g>
<g><path style="opacity:1" fill="#c9a9a9" d="M 159.5,233.5 C 159.5,234.5 159.5,235.5 159.5,236.5C 158.001,237.678 157.001,239.345 156.5,241.5C 155.507,236.88 155.173,232.214 155.5,227.5C 159.835,227.715 161.168,229.715 159.5,233.5 Z"/></g>
<g><path style="opacity:1" fill="#932d2b" d="M 159.5,233.5 C 157.656,232.796 157.156,231.463 158,229.5C 159.188,230.563 159.688,231.897 159.5,233.5 Z"/></g>
<g><path style="opacity:1" fill="#eceaea" d="M 173.5,235.5 C 174.492,235.672 175.158,235.338 175.5,234.5C 175.298,232.011 175.798,229.677 177,227.5C 178.29,232.11 178.624,236.777 178,241.5C 177.667,239.167 177.333,236.833 177,234.5C 176.457,236.631 175.624,238.631 174.5,240.5C 173.548,238.955 173.215,237.288 173.5,235.5 Z"/></g>
<g><path style="opacity:1" fill="#d5c3c4" d="M 159.5,236.5 C 160.914,238.044 161.247,239.711 160.5,241.5C 159.548,239.955 159.215,238.288 159.5,236.5 Z"/></g>
<g><path style="opacity:1" fill="#ccbaba" d="M 199.5,227.5 C 201.484,227.383 203.15,228.05 204.5,229.5C 203.609,230.59 202.609,230.59 201.5,229.5C 199.031,232.674 198.864,236.007 201,239.5C 202.069,239.36 203.236,239.36 204.5,239.5C 202.674,242.081 200.841,242.081 199,239.5C 198.306,235.446 198.473,231.446 199.5,227.5 Z"/></g>
<g><path style="opacity:1" fill="#d3c5c5" d="M 164.5,228.5 C 165.266,244.429 166.433,244.429 168,228.5C 168.667,232.5 168.667,236.5 168,240.5C 165.955,242.043 164.455,241.71 163.5,239.5C 163.185,235.629 163.518,231.962 164.5,228.5 Z"/></g>
<g><path style="opacity:1" fill="#ccb3b3" d="M 184.5,234.5 C 185.693,234.97 186.36,235.97 186.5,237.5C 186.333,238.5 186.167,239.5 186,240.5C 184.301,241.406 182.467,241.739 180.5,241.5C 180.225,236.78 181.059,236.446 183,240.5C 185.612,238.963 186.112,236.963 184.5,234.5 Z"/></g>
<g><path style="opacity:0.471" fill="#aa7b7b" d="M 144.5,270.5 C 144.715,272.179 144.048,273.179 142.5,273.5C 142.932,272.29 143.599,271.29 144.5,270.5 Z"/></g>
<g><path style="opacity:0.22" fill="#bf9291" d="M 166.5,287.5 C 168.337,287.639 168.67,288.306 167.5,289.5C 166.702,289.043 166.369,288.376 166.5,287.5 Z"/></g>
</svg>
