<?xml version="1.0" encoding="UTF-8"?>
<!DOCTYPE svg PUBLIC "-//W3C//DTD SVG 1.1//EN" "http://www.w3.org/Graphics/SVG/1.1/DTD/svg11.dtd">
<svg xmlns="http://www.w3.org/2000/svg" version="1.1" width="370px" height="370px" style="shape-rendering:geometricPrecision; text-rendering:geometricPrecision; image-rendering:optimizeQuality; fill-rule:evenodd; clip-rule:evenodd" xmlns:xlink="http://www.w3.org/1999/xlink">
<g><path style="opacity:0.991" fill="#95221f" d="M 61.5,79.5 C 61.5,81.5 62.5,82.5 64.5,82.5C 69.4602,84.647 74.1269,87.3136 78.5,90.5C 79.0347,92.4456 80.368,93.4456 82.5,93.5C 90.9822,95.37 99.3155,97.7033 107.5,100.5C 106.496,102.677 107.162,103.011 109.5,101.5C 115.325,101.886 121.158,102.219 127,102.5C 135.482,101.637 143.982,100.971 152.5,100.5C 158.213,100.517 163.88,101.017 169.5,102C 175.377,104.015 181.377,105.515 187.5,106.5C 194.153,105.701 200.82,105.035 207.5,104.5C 229.156,106.863 250.822,107.03 272.5,105C 292.307,101.98 312.14,99.1466 332,96.5C 339.499,96.6654 346.166,98.9987 352,103.5C 352.494,105.134 352.66,106.801 352.5,108.5C 351.861,109.097 351.528,109.93 351.5,111C 351.684,112.376 352.351,113.209 353.5,113.5C 354.864,122.446 355.864,131.446 356.5,140.5C 355.467,154.49 355.3,168.49 356,182.5C 358.197,188.091 360.197,193.758 362,199.5C 362.333,181.167 362.667,162.833 363,144.5C 363.5,166.164 363.667,187.831 363.5,209.5C 358.19,208.963 355.023,205.963 354,200.5C 352.536,186.803 350.87,173.137 349,159.5C 347.836,168.464 347.002,177.464 346.5,186.5C 347.934,202.369 349.601,218.202 351.5,234C 350.022,240.637 347.022,246.47 342.5,251.5C 340.936,258.152 339.436,264.819 338,271.5C 335.04,275.993 333.707,280.993 334,286.5C 333.535,287.931 332.701,289.097 331.5,290C 326.02,290.639 320.687,289.972 315.5,288C 314.941,287.275 314.608,286.442 314.5,285.5C 317.395,279.379 320.561,273.379 324,267.5C 330.336,254.455 332.67,240.788 331,226.5C 330.612,225.572 329.945,224.905 329,224.5C 322.262,230.917 316.595,238.251 312,246.5C 309.735,256.624 307.069,266.624 304,276.5C 301.81,278.388 299.977,280.555 298.5,283C 299.632,287.413 299.799,291.913 299,296.5C 298.5,297.667 297.667,298.5 296.5,299C 292.227,300.03 287.894,300.697 283.5,301C 204.833,301.667 126.167,301.667 47.5,301C 72.1667,300.667 96.8333,300.333 121.5,300C 120.524,297.853 120.691,295.686 122,293.5C 126.207,288.225 128.873,282.225 130,275.5C 132.776,256.872 133.109,238.205 131,219.5C 128.775,214.632 124.942,212.132 119.5,212C 116.751,210.877 114.251,209.377 112,207.5C 108.787,196.34 103.954,186.007 97.5,176.5C 88.395,169.897 80.0616,162.397 72.5,154C 65.2547,151.378 58.588,147.711 52.5,143C 45.9239,140.881 39.2572,139.048 32.5,137.5C 27.5897,139.073 22.5897,139.573 17.5,139C 14.084,137.419 11.084,135.252 8.5,132.5C 8.57298,130.973 7.90632,129.973 6.5,129.5C 6.5,127.167 6.5,124.833 6.5,122.5C 7.67373,121.486 8.3404,120.153 8.5,118.5C 15.3162,115.677 21.3162,111.677 26.5,106.5C 27.9063,106.027 28.573,105.027 28.5,103.5C 31.2532,99.8428 33.4199,95.8428 35,91.5C 37.5957,89.4513 40.429,87.7846 43.5,86.5C 41.7348,81.3312 41.0682,75.9979 41.5,70.5C 42.675,70.281 43.675,70.6143 44.5,71.5C 45.9073,75.0672 47.9073,78.2338 50.5,81C 52.4727,81.4955 54.4727,81.6621 56.5,81.5C 56.136,70.829 57.8026,70.1623 61.5,79.5 Z M 179.5,216.5 C 192.896,216.306 205.896,218.473 218.5,223C 237.356,223.688 256.023,222.022 274.5,218C 280.634,217.1 286.634,217.6 292.5,219.5C 298.299,232.134 299.132,245.134 295,258.5C 291.197,270.586 285.864,281.919 279,292.5C 277.047,295.257 277.213,297.757 279.5,300C 233.167,300.667 186.833,300.667 140.5,300C 141.71,289.744 142.877,279.244 144,268.5C 148.156,254.699 151.489,240.699 154,226.5C 158.499,233.992 161.832,241.992 164,250.5C 164.667,260.5 164.667,270.5 164,280.5C 160.392,284.599 157.892,289.266 156.5,294.5C 162.176,294.666 167.843,294.499 173.5,294C 175.795,290.965 176.129,287.632 174.5,284C 174.706,282.135 175.372,280.468 176.5,279C 176.025,277.237 175.358,275.57 174.5,274C 177.082,260.415 179.416,246.749 181.5,233C 181.159,227.448 180.492,221.948 179.5,216.5 Z"/></g>
<g><path style="opacity:0.369" fill="#b4b7b8" d="M 61.5,79.5 C 62.8333,80.1667 63.8333,81.1667 64.5,82.5C 62.5,82.5 61.5,81.5 61.5,79.5 Z"/></g>
<g><path style="opacity:0.678" fill="#a28f88" d="M 78.5,90.5 C 80.2303,91.0256 81.5637,92.0256 82.5,93.5C 80.368,93.4456 79.0347,92.4456 78.5,90.5 Z"/></g>
<g><path style="opacity:0.906" fill="#ab9586" d="M 107.5,100.5 C 108.492,100.328 109.158,100.662 109.5,101.5C 107.162,103.011 106.496,102.677 107.5,100.5 Z"/></g>
<g><path style="opacity:0.282" fill="#a58f8c" d="M 28.5,103.5 C 28.573,105.027 27.9063,106.027 26.5,106.5C 26.427,104.973 27.0937,103.973 28.5,103.5 Z"/></g>
<g><path style="opacity:0.788" fill="#a17163" d="M 352.5,108.5 C 353.038,110.117 353.371,111.784 353.5,113.5C 352.351,113.209 351.684,112.376 351.5,111C 351.528,109.93 351.861,109.097 352.5,108.5 Z"/></g>
<g><path style="opacity:0.031" fill="#8ff7f7" d="M 8.5,118.5 C 8.3404,120.153 7.67373,121.486 6.5,122.5C 7.0804,118.858 7.5804,115.191 8,111.5C 8.49665,113.81 8.66331,116.143 8.5,118.5 Z"/></g>
<g><path style="opacity:1" fill="#eee8e7" d="M 320.5,118.5 C 326.958,119.145 332.458,121.812 337,126.5C 337.713,129.475 336.879,131.975 334.5,134C 328.205,131.683 322.205,128.516 316.5,124.5C 317.844,122.471 319.177,120.471 320.5,118.5 Z"/></g>
<g><path style="opacity:1" fill="#972f2a" d="M 321.5,121.5 C 325.559,123.021 329.559,124.854 333.5,127C 334.821,128.545 334.488,129.711 332.5,130.5C 328.993,128.246 325.327,126.246 321.5,124.5C 320.438,123.575 320.438,122.575 321.5,121.5 Z"/></g>
<g><path style="opacity:1" fill="#e7d7d1" d="M 188.5,127.5 C 190.467,127.261 192.301,127.594 194,128.5C 194.018,132.431 193.851,136.431 193.5,140.5C 192.167,133.833 190.833,133.833 189.5,140.5C 188.508,136.217 188.174,131.884 188.5,127.5 Z"/></g>
<g><path style="opacity:1" fill="#e7d4d3" d="M 195.5,127.5 C 196.8,129.223 197.467,131.39 197.5,134C 197.167,136.167 196.833,138.333 196.5,140.5C 195.508,136.217 195.174,131.884 195.5,127.5 Z"/></g>
<g><path style="opacity:0.102" fill="#fcfcfc" d="M 6.5,129.5 C 7.90632,129.973 8.57298,130.973 8.5,132.5C 8.5,135.167 8.5,137.833 8.5,140.5C 7.83333,140.5 7.16667,140.5 6.5,140.5C 6.5,136.833 6.5,133.167 6.5,129.5 Z"/></g>
<g><path style="opacity:1" fill="#ece6e4" d="M 199.5,127.5 C 201.199,127.34 202.866,127.506 204.5,128C 205.059,128.725 205.392,129.558 205.5,130.5C 205.101,133.422 204.934,136.422 205,139.5C 203.301,140.406 201.467,140.739 199.5,140.5C 199.5,136.167 199.5,131.833 199.5,127.5 Z"/></g>
<g><path style="opacity:1" fill="#932120" d="M 201.5,129.5 C 203.465,129.948 203.798,130.948 202.5,132.5C 201.614,131.675 201.281,130.675 201.5,129.5 Z"/></g>
<g><path style="opacity:1" fill="#f2ece9" d="M 121.5,137.5 C 121.719,138.675 121.386,139.675 120.5,140.5C 119.824,139.398 119.158,138.398 118.5,137.5C 117.5,137.5 116.5,137.5 115.5,137.5C 115.5,142.167 115.5,146.833 115.5,151.5C 116.5,151.5 117.5,151.5 118.5,151.5C 118.5,149.833 118.5,148.167 118.5,146.5C 119.5,146.5 120.5,146.5 121.5,146.5C 121.5,147.833 121.5,149.167 121.5,150.5C 120.538,154.146 118.205,155.313 114.5,154C 113.874,153.25 113.374,152.416 113,151.5C 112.171,146.136 112.337,140.802 113.5,135.5C 116.873,133.771 119.54,134.437 121.5,137.5 Z"/></g>
<g><path style="opacity:1" fill="#f7f4f2" d="M 129.5,142.5 C 130.165,140.302 130.832,137.969 131.5,135.5C 132.491,139.445 132.824,143.445 132.5,147.5C 132.5,149.833 132.5,152.167 132.5,154.5C 131.5,154.5 130.5,154.5 129.5,154.5C 129.5,151.5 129.5,148.5 129.5,145.5C 128.5,145.5 127.5,145.5 126.5,145.5C 126.5,148.167 126.5,150.833 126.5,153.5C 125.5,153.5 124.5,153.5 123.5,153.5C 123.5,148.5 123.5,143.5 123.5,138.5C 123.5,137.167 123.5,135.833 123.5,134.5C 124.5,134.5 125.5,134.5 126.5,134.5C 126.5,137.167 126.5,139.833 126.5,142.5C 127.5,142.5 128.5,142.5 129.5,142.5 Z"/></g>
<g><path style="opacity:1" fill="#c49e97" d="M 132.5,147.5 C 132.824,143.445 132.491,139.445 131.5,135.5C 130.832,137.969 130.165,140.302 129.5,142.5C 129.5,139.833 129.5,137.167 129.5,134.5C 130.833,134.5 132.167,134.5 133.5,134.5C 133.818,139.032 133.485,143.366 132.5,147.5 Z"/></g>
<g><path style="opacity:1" fill="#f3edea" d="M 135.5,135.5 C 137.144,140.59 138.144,145.923 138.5,151.5C 139.5,151.5 140.5,151.5 141.5,151.5C 141.5,145.833 141.5,140.167 141.5,134.5C 142.5,134.5 143.5,134.5 144.5,134.5C 144.666,140.509 144.499,146.509 144,152.5C 141.582,154.68 138.916,155.013 136,153.5C 135.501,147.509 135.334,141.509 135.5,135.5 Z"/></g>
<g><path style="opacity:1" fill="#eee8e7" d="M 148.5,134.5 C 153.833,133.833 156.167,136.167 155.5,141.5C 154.5,141.5 153.5,141.5 152.5,141.5C 152.5,140.167 152.5,138.833 152.5,137.5C 151.5,137.5 150.5,137.5 149.5,137.5C 149.334,142.179 149.501,146.845 150,151.5C 150.667,152.833 151.333,152.833 152,151.5C 152.49,150.207 152.657,148.873 152.5,147.5C 153.5,147.5 154.5,147.5 155.5,147.5C 155.585,154.494 152.752,156.161 147,152.5C 146.333,147.167 146.333,141.833 147,136.5C 147.717,135.956 148.217,135.289 148.5,134.5 Z"/></g>
<g><path style="opacity:1" fill="#ede5e4" d="M 157.5,134.5 C 158.5,134.5 159.5,134.5 160.5,134.5C 159.802,144.694 161.135,145.028 164.5,135.5C 165.5,134.167 166.5,134.167 167.5,135.5C 165.532,137.605 164.532,140.105 164.5,143C 165.346,146.53 166.346,150.03 167.5,153.5C 166.349,154.731 165.183,154.731 164,153.5C 161.688,144.241 160.521,144.574 160.5,154.5C 159.5,154.5 158.5,154.5 157.5,154.5C 157.5,147.833 157.5,141.167 157.5,134.5 Z"/></g>
<g><path style="opacity:1" fill="#94231e" d="M 201.5,134.5 C 202.586,134.62 203.253,135.287 203.5,136.5C 203.167,137.167 202.833,137.833 202.5,138.5C 201.571,137.311 201.238,135.978 201.5,134.5 Z"/></g>
<g><path style="opacity:1" fill="#c6918f" d="M 135.5,135.5 C 136.209,134.596 137.209,134.263 138.5,134.5C 138.5,140.167 138.5,145.833 138.5,151.5C 138.144,145.923 137.144,140.59 135.5,135.5 Z"/></g>
<g><path style="opacity:1" fill="#92211f" d="M 118.5,137.5 C 118.5,138.833 118.5,140.167 118.5,141.5C 119.833,141.5 121.167,141.5 122.5,141.5C 122.784,143.415 122.451,145.081 121.5,146.5C 120.5,146.5 119.5,146.5 118.5,146.5C 118.5,148.167 118.5,149.833 118.5,151.5C 117.5,151.5 116.5,151.5 115.5,151.5C 115.5,146.833 115.5,142.167 115.5,137.5C 116.5,137.5 117.5,137.5 118.5,137.5 Z"/></g>
<g><path style="opacity:1" fill="#eae2e1" d="M 314.5,127.5 C 320.229,130.026 325.896,132.859 331.5,136C 332.337,137.011 332.67,138.178 332.5,139.5C 327.758,138.642 323.091,137.809 318.5,137C 322.167,139.167 325.833,141.333 329.5,143.5C 329.167,144.5 328.5,145.167 327.5,145.5C 321.669,142.419 316.002,139.085 310.5,135.5C 310.865,134.098 311.699,133.098 313,132.5C 316.816,133.781 320.65,134.614 324.5,135C 321.5,133.5 318.5,132 315.5,130.5C 314.614,129.675 314.281,128.675 314.5,127.5 Z"/></g>
<g><path style="opacity:1" fill="#d9cfcf" d="M 233.5,138.5 C 235.414,141.684 236.08,145.351 235.5,149.5C 236.675,149.281 237.675,149.614 238.5,150.5C 236.955,151.452 235.288,151.785 233.5,151.5C 233.5,147.167 233.5,142.833 233.5,138.5 Z"/></g>
<g><path style="opacity:1" fill="#e9d7d2" d="M 247.5,138.5 C 248.8,140.223 249.467,142.39 249.5,145C 249.167,147.167 248.833,149.333 248.5,151.5C 247.508,147.217 247.174,142.884 247.5,138.5 Z"/></g>
<g><path style="opacity:1" fill="#e8dfdd" d="M 240.5,138.5 C 242.167,138.5 243.833,138.5 245.5,138.5C 245.666,142.514 245.499,146.514 245,150.5C 242.978,151.991 241.312,151.658 240,149.5C 239.245,145.745 239.411,142.078 240.5,138.5 Z"/></g>
<g><path style="opacity:1" fill="#ede6e5" d="M 308.5,138.5 C 314.463,140.566 319.963,143.566 325,147.5C 326.167,153 324,155.167 318.5,154C 313.833,151.333 309.167,148.667 304.5,146C 305.047,145.075 305.713,144.242 306.5,143.5C 311.619,146.726 316.952,149.393 322.5,151.5C 322.67,150.178 322.337,149.011 321.5,148C 317.34,146.088 313.34,143.921 309.5,141.5C 308.614,140.675 308.281,139.675 308.5,138.5 Z"/></g>
<g><path style="opacity:1" fill="#994844" d="M 118.5,137.5 C 119.158,138.398 119.824,139.398 120.5,140.5C 121.386,139.675 121.719,138.675 121.5,137.5C 122.167,137.833 122.833,138.167 123.5,138.5C 123.5,143.5 123.5,148.5 123.5,153.5C 124.5,153.5 125.5,153.5 126.5,153.5C 125.432,154.434 124.099,154.768 122.5,154.5C 122.768,152.901 122.434,151.568 121.5,150.5C 121.5,149.167 121.5,147.833 121.5,146.5C 122.451,145.081 122.784,143.415 122.5,141.5C 121.167,141.5 119.833,141.5 118.5,141.5C 118.5,140.167 118.5,138.833 118.5,137.5 Z"/></g>
<g><path style="opacity:1" fill="#9f3f35" d="M 241.5,139.5 C 242.777,140.694 243.444,142.36 243.5,144.5C 243.167,146.167 242.833,147.833 242.5,149.5C 241.513,146.232 241.18,142.898 241.5,139.5 Z"/></g>
<g><path style="opacity:1" fill="#e9ddd9" d="M 251.5,138.5 C 252.497,138.47 253.164,138.97 253.5,140C 254.078,141.811 254.578,143.645 255,145.5C 255.186,143.1 255.686,140.766 256.5,138.5C 257.492,142.783 257.826,147.116 257.5,151.5C 256.5,151.5 255.5,151.5 254.5,151.5C 253.503,139.515 252.503,139.515 251.5,151.5C 251.167,150.667 250.833,149.833 250.5,149C 251.286,145.542 251.62,142.042 251.5,138.5 Z"/></g>
<g><path style="opacity:1" fill="#e8dfde" d="M 302.5,149.5 C 308.733,150.781 314.4,153.448 319.5,157.5C 320.876,161.416 319.543,164.082 315.5,165.5C 310.674,163.254 306.008,160.754 301.5,158C 300.041,154.929 300.374,152.096 302.5,149.5 Z"/></g>
<g><path style="opacity:1" fill="#952b26" d="M 303.5,152.5 C 308.59,154.212 313.256,156.712 317.5,160C 314.761,161.673 312.095,161.339 309.5,159C 307.751,157.708 305.918,156.542 304,155.5C 303.517,154.552 303.351,153.552 303.5,152.5 Z"/></g>
<g><path style="opacity:1" fill="#ece5e4" d="M 296.5,160.5 C 298.527,160.338 300.527,160.505 302.5,161C 306.678,163.645 311.011,166.145 315.5,168.5C 315.167,169.5 314.5,170.167 313.5,170.5C 303.196,166.799 302.863,167.966 312.5,174C 311.953,174.925 311.287,175.758 310.5,176.5C 304.998,172.915 299.331,169.581 293.5,166.5C 294.513,164.473 295.513,162.473 296.5,160.5 Z"/></g>
<g><path style="opacity:1" fill="#972f2a" d="M 298.5,163.5 C 300.912,163.244 302.579,164.244 303.5,166.5C 301.813,167.568 300.146,167.401 298.5,166C 297.402,165.23 297.402,164.397 298.5,163.5 Z"/></g>
<g><path style="opacity:0.024" fill="#79fcfd" d="M 6.5,140.5 C 7.16667,140.5 7.83333,140.5 8.5,140.5C 8.49959,223.153 7.83293,223.153 6.5,140.5 Z"/></g>
<g><path style="opacity:1" fill="#f3efec" d="M 206.5,181.5 C 208.308,182.918 208.975,184.918 208.5,187.5C 209.5,187.5 210.5,187.5 211.5,187.5C 211.201,185.396 211.534,183.396 212.5,181.5C 213.503,186.168 213.337,190.835 212,195.5C 211.505,193.527 211.338,191.527 211.5,189.5C 210.5,189.5 209.5,189.5 208.5,189.5C 208.799,191.604 208.466,193.604 207.5,195.5C 206.507,190.88 206.173,186.214 206.5,181.5 Z"/></g>
<g><path style="opacity:1" fill="#aa5e5b" d="M 228.5,182.5 C 226.833,182.5 225.167,182.5 223.5,182.5C 223.334,186.846 223.501,191.179 224,195.5C 224.198,193.618 224.698,191.952 225.5,190.5C 225.5,192.5 225.5,194.5 225.5,196.5C 224.5,196.5 223.5,196.5 222.5,196.5C 222.5,191.5 222.5,186.5 222.5,181.5C 224.735,181.205 226.735,181.539 228.5,182.5 Z"/></g>
<g><path style="opacity:1" fill="#e4d9d7" d="M 235.5,195.5 C 233.869,191.768 232.869,187.768 232.5,183.5C 231.624,183.631 230.957,183.298 230.5,182.5C 232.833,181.167 235.167,181.167 237.5,182.5C 235.654,186.582 234.987,190.915 235.5,195.5 Z"/></g>
<g><path style="opacity:1" fill="#e7dbda" d="M 260.5,185.5 C 261.952,184.698 263.618,184.198 265.5,184C 264.473,183.487 263.473,182.987 262.5,182.5C 260.934,182.024 260.6,181.357 261.5,180.5C 264.3,181.646 267.133,181.646 270,180.5C 272.973,180.972 272.807,181.805 269.5,183C 270.793,183.49 272.127,183.657 273.5,183.5C 273.5,184.5 273.5,185.5 273.5,186.5C 268.968,186.818 264.634,186.485 260.5,185.5 Z"/></g>
<g><path style="opacity:1" fill="#b47f7e" d="M 262.5,182.5 C 263.473,182.987 264.473,183.487 265.5,184C 263.618,184.198 261.952,184.698 260.5,185.5C 259.957,185.44 259.624,185.107 259.5,184.5C 260.602,183.824 261.602,183.158 262.5,182.5 Z"/></g>
<g><path style="opacity:1" fill="#f2eeeb" d="M 215.5,181.5 C 217.467,181.261 219.301,181.594 221,182.5C 221.667,186.167 221.667,189.833 221,193.5C 218.074,197.648 215.908,197.148 214.5,192C 215.382,188.559 215.716,185.059 215.5,181.5 Z"/></g>
<g><path style="opacity:1" fill="#882d29" d="M 217.5,183.5 C 219.402,186.337 220.069,189.671 219.5,193.5C 218.5,193.5 217.5,193.5 216.5,193.5C 216.253,190.061 216.586,186.728 217.5,183.5 Z"/></g>
<g><path style="opacity:1" fill="#b67372" d="M 232.5,183.5 C 232.869,187.768 233.869,191.768 235.5,195.5C 234.791,196.404 233.791,196.737 232.5,196.5C 232.5,192.167 232.5,187.833 232.5,183.5 Z"/></g>
<g><path style="opacity:1" fill="#e5dcdb" d="M 199.5,181.5 C 201.288,181.215 202.955,181.548 204.5,182.5C 205.59,183.609 205.59,184.609 204.5,185.5C 203.476,184.147 202.143,183.48 200.5,183.5C 201.589,186.43 202.923,189.264 204.5,192C 203.944,195.439 202.111,196.272 199,194.5C 198.627,191.142 199.461,190.808 201.5,193.5C 202.539,190.953 201.705,188.953 199,187.5C 198.322,185.402 198.489,183.402 199.5,181.5 Z"/></g>
<g><path style="opacity:1" fill="#b28f8f" d="M 270.5,190.5 C 270.918,189.778 271.584,189.278 272.5,189C 268.311,188.188 264.311,188.355 260.5,189.5C 259.957,189.44 259.624,189.107 259.5,188.5C 264.12,187.507 268.786,187.173 273.5,187.5C 273.5,188.5 273.5,189.5 273.5,190.5C 272.5,190.5 271.5,190.5 270.5,190.5 Z"/></g>
<g><path style="opacity:1" fill="#e9e3e1" d="M 228.5,182.5 C 228.97,186.97 228.97,191.636 228.5,196.5C 227.692,194.577 227.192,192.577 227,190.5C 226.31,189.262 225.81,189.262 225.5,190.5C 224.698,191.952 224.198,193.618 224,195.5C 223.501,191.179 223.334,186.846 223.5,182.5C 225.167,182.5 226.833,182.5 228.5,182.5 Z"/></g>
<g><path style="opacity:1" fill="#8a2523" d="M 225.5,183.5 C 226.586,183.62 227.253,184.287 227.5,185.5C 227.167,186.167 226.833,186.833 226.5,187.5C 225.571,186.311 225.238,184.978 225.5,183.5 Z"/></g>
<g><path style="opacity:1" fill="#f9f9f9" d="M 260.5,189.5 C 264.311,188.355 268.311,188.188 272.5,189C 271.584,189.278 270.918,189.778 270.5,190.5C 267.214,189.793 263.881,189.46 260.5,189.5 Z"/></g>
<g><path style="opacity:1" fill="#faf8f6" d="M 271.5,194.5 C 267.558,194.125 263.891,193.125 260.5,191.5C 262.512,190.986 264.512,190.82 266.5,191C 265.833,191.333 265.167,191.667 264.5,192C 267.226,192.182 269.893,192.682 272.5,193.5C 272.376,194.107 272.043,194.44 271.5,194.5 Z"/></g>
<g><path style="opacity:1" fill="#cbb2b0" d="M 128.5,193.5 C 128.279,196.097 127.779,196.097 127,193.5C 125.98,194.891 125.147,196.391 124.5,198C 123.552,198.483 122.552,198.649 121.5,198.5C 120.596,197.791 120.263,196.791 120.5,195.5C 117.648,194.206 117.314,192.706 119.5,191C 118.551,190.383 117.718,190.549 117,191.5C 116.383,190.551 116.549,189.718 117.5,189C 115.714,188.804 114.381,187.971 113.5,186.5C 115.531,184.478 117.865,182.811 120.5,181.5C 121.965,183.599 123.299,185.766 124.5,188C 123.66,189.767 122.327,191.101 120.5,192C 122.256,192.14 123.922,191.64 125.5,190.5C 126.696,190.846 126.696,191.346 125.5,192C 126.737,192.232 127.737,192.732 128.5,193.5 Z"/></g>
<g><path style="opacity:1" fill="#8a3935" d="M 115.5,185.5 C 117.337,185.639 117.67,186.306 116.5,187.5C 115.702,187.043 115.369,186.376 115.5,185.5 Z"/></g>
<g><path style="opacity:1" fill="#933d39" d="M 120.5,195.5 C 121.315,194.163 122.482,193.163 124,192.5C 124.774,194.403 124.44,196.07 123,197.5C 122.583,196.244 121.75,195.577 120.5,195.5 Z"/></g>
<g><path style="opacity:1" fill="#9f6a68" d="M 260.5,191.5 C 263.891,193.125 267.558,194.125 271.5,194.5C 267.5,194.5 263.5,194.5 259.5,194.5C 259.263,193.209 259.596,192.209 260.5,191.5 Z"/></g>
<g><path style="opacity:1" fill="#a86c65" d="M 128.5,193.5 C 129.574,195.279 130.907,196.946 132.5,198.5C 132.376,199.107 132.043,199.44 131.5,199.5C 129.563,197.674 127.563,197.507 125.5,199C 126.066,199.995 126.733,200.828 127.5,201.5C 127.5,202.167 127.833,202.5 128.5,202.5C 128.158,203.338 127.492,203.672 126.5,203.5C 125.761,203.631 125.094,203.464 124.5,203C 125.863,200.871 125.529,200.371 123.5,201.5C 122.575,200.643 121.908,199.643 121.5,198.5C 122.552,198.649 123.552,198.483 124.5,198C 125.147,196.391 125.98,194.891 127,193.5C 127.779,196.097 128.279,196.097 128.5,193.5 Z"/></g>
<g><path style="opacity:1" fill="#cdb9b5" d="M 164.5,194.5 C 165.5,194.5 166.5,194.5 167.5,194.5C 167.682,199.794 168.182,199.794 169,194.5C 169.667,197.833 169.667,201.167 169,204.5C 168.085,203.672 167.419,202.672 167,201.5C 166.751,202.624 166.251,203.624 165.5,204.5C 164.513,201.232 164.18,197.898 164.5,194.5 Z"/></g>
<g><path style="opacity:1" fill="#d1b6b3" d="M 160.5,194.5 C 161.931,194.881 162.764,195.881 163,197.5C 163.667,199.833 163.667,202.167 163,204.5C 161.983,201.972 160.816,201.972 159.5,204.5C 159.167,204.167 158.833,203.833 158.5,203.5C 159.169,200.47 159.835,197.47 160.5,194.5 Z"/></g>
<g><path style="opacity:1" fill="#c7a3a1" d="M 204.5,198.5 C 203.761,198.369 203.094,198.536 202.5,199C 203.38,200.356 203.714,201.856 203.5,203.5C 202.5,203.5 201.5,203.5 200.5,203.5C 199.342,200.09 199.175,202.423 200,210.5C 200.05,208.256 200.883,206.589 202.5,205.5C 201.659,207.379 201.325,209.379 201.5,211.5C 200.5,211.5 199.5,211.5 198.5,211.5C 198.5,206.833 198.5,202.167 198.5,197.5C 200.735,197.205 202.735,197.539 204.5,198.5 Z"/></g>
<g><path style="opacity:1" fill="#f0eded" d="M 204.5,198.5 C 206.144,201.603 205.477,203.936 202.5,205.5C 200.883,206.589 200.05,208.256 200,210.5C 199.175,202.423 199.342,200.09 200.5,203.5C 201.5,203.5 202.5,203.5 203.5,203.5C 203.714,201.856 203.38,200.356 202.5,199C 203.094,198.536 203.761,198.369 204.5,198.5 Z"/></g>
<g><path style="opacity:1" fill="#a46563" d="M 227.5,197.5 C 227.833,197.5 228.167,197.5 228.5,197.5C 228.5,202.167 228.5,206.833 228.5,211.5C 227.834,207.979 227.167,204.313 226.5,200.5C 225.828,201.949 225.161,203.282 224.5,204.5C 224.5,202.833 224.5,201.167 224.5,199.5C 226.179,199.715 227.179,199.048 227.5,197.5 Z"/></g>
<g><path style="opacity:1" fill="#ebe8e7" d="M 228.5,197.5 C 230.604,197.201 232.604,197.534 234.5,198.5C 233.311,199.429 231.978,199.762 230.5,199.5C 230.5,200.833 230.5,202.167 230.5,203.5C 234.5,204.167 234.5,204.833 230.5,205.5C 230.5,207.167 230.5,208.833 230.5,210.5C 231.873,210.343 233.207,210.51 234.5,211C 232.527,211.495 230.527,211.662 228.5,211.5C 228.5,206.833 228.5,202.167 228.5,197.5 Z"/></g>
<g><path style="opacity:1" fill="#d6b8b6" d="M 260.5,207.5 C 264.5,207.5 268.5,207.5 272.5,207.5C 272.784,205.585 272.451,203.919 271.5,202.5C 267.606,201.407 263.606,200.74 259.5,200.5C 259.5,199.167 259.5,197.833 259.5,196.5C 263.027,196.496 266.527,196.163 270,195.5C 274.277,196.059 274.444,196.726 270.5,197.5C 270.5,198.5 270.5,199.5 270.5,200.5C 271.5,200.5 272.5,200.5 273.5,200.5C 273.5,203.167 273.5,205.833 273.5,208.5C 268.968,208.818 264.634,208.485 260.5,207.5 Z"/></g>
<g><path style="opacity:1" fill="#d7c4c2" d="M 147.5,194.5 C 149.665,194.116 151.332,194.783 152.5,196.5C 151.369,197.604 150.535,197.271 150,195.5C 149.833,196 149.667,196.5 149.5,197C 150.5,198.667 151.5,200.333 152.5,202C 151.125,205.069 149.459,205.236 147.5,202.5C 148.631,201.396 149.465,201.729 150,203.5C 150.722,201.339 150.055,199.672 148,198.5C 147.51,197.207 147.343,195.873 147.5,194.5 Z"/></g>
<g><path style="opacity:1" fill="#d6c5c1" d="M 171.5,194.5 C 172.268,195.263 172.768,196.263 173,197.5C 173.419,196.328 174.085,195.328 175,194.5C 175.167,195 175.333,195.5 175.5,196C 175.076,198.854 174.743,201.687 174.5,204.5C 173.719,203.271 173.219,201.938 173,200.5C 172.781,201.938 172.281,203.271 171.5,204.5C 170.249,201.126 170.249,197.793 171.5,194.5 Z"/></g>
<g><path style="opacity:1" fill="#eee9e5" d="M 131.5,199.5 C 129.62,199.229 128.287,199.896 127.5,201.5C 126.733,200.828 126.066,199.995 125.5,199C 127.563,197.507 129.563,197.674 131.5,199.5 Z"/></g>
<g><path style="opacity:1" fill="#e6dddc" d="M 153.5,194.5 C 154.835,199.535 156.001,199.535 157,194.5C 157.667,197.833 157.667,201.167 157,204.5C 156,199.167 155,199.167 154,204.5C 153.502,201.183 153.335,197.85 153.5,194.5 Z"/></g>
<g><path style="opacity:1" fill="#e2d4d2" d="M 227.5,197.5 C 227.179,199.048 226.179,199.715 224.5,199.5C 224.5,201.167 224.5,202.833 224.5,204.5C 224.808,206.924 224.474,209.257 223.5,211.5C 223.028,206.972 222.028,202.639 220.5,198.5C 222.743,197.526 225.076,197.192 227.5,197.5 Z"/></g>
<g><path style="opacity:1" fill="#d5c2be" d="M 134.5,203.5 C 132.501,202.143 131.335,202.81 131,205.5C 130.586,205.043 130.086,204.709 129.5,204.5C 127.596,208.444 126.596,208.11 126.5,203.5C 127.492,203.672 128.158,203.338 128.5,202.5C 129.807,201.847 131.14,201.18 132.5,200.5C 133.919,201.005 134.585,202.005 134.5,203.5 Z"/></g>
<g><path style="opacity:1" fill="#faf9f8" d="M 271.5,202.5 C 272.451,203.919 272.784,205.585 272.5,207.5C 268.5,207.5 264.5,207.5 260.5,207.5C 262.607,206.532 264.941,206.198 267.5,206.5C 268.833,206.5 270.167,206.5 271.5,206.5C 271.5,205.167 271.5,203.833 271.5,202.5 Z"/></g>
<g><path style="opacity:1" fill="#eee6e4" d="M 214.5,201.5 C 215.461,203.265 215.795,205.265 215.5,207.5C 216.675,207.719 217.675,207.386 218.5,206.5C 217.602,203.427 216.602,200.427 215.5,197.5C 216.5,197.5 217.5,197.5 218.5,197.5C 218.464,201.453 219.131,205.286 220.5,209C 220.167,209.833 219.833,210.667 219.5,211.5C 218.784,210.689 217.95,210.022 217,209.5C 213.724,211.227 210.224,211.894 206.5,211.5C 206.173,206.786 206.507,202.12 207.5,197.5C 208.491,201.445 208.824,205.445 208.5,209.5C 210.144,209.286 211.644,209.62 213,210.5C 213.502,207.487 214.002,204.487 214.5,201.5 Z"/></g>
<g><path style="opacity:1" fill="#b68a85" d="M 215.5,197.5 C 216.602,200.427 217.602,203.427 218.5,206.5C 217.675,207.386 216.675,207.719 215.5,207.5C 215.795,205.265 215.461,203.265 214.5,201.5C 214.232,199.901 214.566,198.568 215.5,197.5 Z"/></g>
<g><path style="opacity:1" fill="#af897f" d="M 267.5,206.5 C 264.941,206.198 262.607,206.532 260.5,207.5C 259.957,207.44 259.624,207.107 259.5,206.5C 262.309,205.2 264.976,205.2 267.5,206.5 Z"/></g>
<g><path style="opacity:1" fill="#d6c7c6" d="M 134.5,203.5 C 135.837,204.315 136.837,205.482 137.5,207C 136.551,207.617 135.718,207.451 135,206.5C 133.511,208.332 131.678,209.165 129.5,209C 132.079,207.924 133.746,206.091 134.5,203.5 Z"/></g>
<g><path style="opacity:1" fill="#f2ebeb" d="M 259.5,209.5 C 261.048,209.821 261.715,210.821 261.5,212.5C 262.833,212.5 264.167,212.5 265.5,212.5C 265.833,208.5 266.167,208.5 266.5,212.5C 268.604,212.201 270.604,212.534 272.5,213.5C 268.217,214.492 263.884,214.826 259.5,214.5C 259.5,212.833 259.5,211.167 259.5,209.5 Z"/></g>
<g><path style="opacity:1" fill="#ac9292" d="M 135.5,221.5 C 138.137,223.154 137.803,223.654 134.5,223C 135.056,222.617 135.389,222.117 135.5,221.5 Z"/></g>
</svg>
