<?xml version="1.0" encoding="UTF-8"?>
<!DOCTYPE svg PUBLIC "-//W3C//DTD SVG 1.1//EN" "http://www.w3.org/Graphics/SVG/1.1/DTD/svg11.dtd">
<svg xmlns="http://www.w3.org/2000/svg" version="1.1" width="1920px" height="720px" style="shape-rendering:geometricPrecision; text-rendering:geometricPrecision; image-rendering:optimizeQuality; fill-rule:evenodd; clip-rule:evenodd" xmlns:xlink="http://www.w3.org/1999/xlink">
<g><path style="opacity:1" fill="#fefefe" d="M 766.5,-0.5 C 950.833,-0.5 1135.17,-0.5 1319.5,-0.5C 1319.5,-0.166667 1319.5,0.166667 1319.5,0.5C 1318.5,188.999 1318.17,377.666 1318.5,566.5C 1162.5,566.5 1006.5,566.5 850.5,566.5C 823.812,565.842 797.479,566.509 771.5,568.5C 580.17,567.535 388.837,567.202 197.5,567.5C 197.5,500.5 197.5,433.5 197.5,366.5C 198.117,366.389 198.617,366.056 199,365.5C 199.5,243.834 199.667,122.167 199.5,0.5C 388.667,0.833038 577.667,0.499705 766.5,-0.5 Z"/></g>
<g><path style="opacity:1" fill="#a72a22" d="M 1319.5,0.5 C 1319.5,0.166667 1319.5,-0.166667 1319.5,-0.5C 1519.5,-0.5 1719.5,-0.5 1919.5,-0.5C 1919.5,189.833 1919.5,380.167 1919.5,570.5C 1919.17,570.5 1918.83,570.5 1918.5,570.5C 1808.17,569.167 1697.83,569.167 1587.5,570.5C 1586.5,591.994 1586.17,613.66 1586.5,635.5C 1585.17,635.5 1583.83,635.5 1582.5,635.5C 1582.83,613.327 1582.5,591.327 1581.5,569.5C 1581.17,569.5 1580.83,569.5 1580.5,569.5C 1555.5,569.5 1530.5,569.5 1505.5,569.5C 1495.77,570.956 1486.11,571.956 1476.5,572.5C 1474.5,572.5 1472.5,572.5 1470.5,572.5C 1470.71,570.821 1470.05,569.821 1468.5,569.5C 1436.5,569.5 1404.5,569.5 1372.5,569.5C 1372.5,591.167 1372.5,612.833 1372.5,634.5C 1372.17,634.5 1371.83,634.5 1371.5,634.5C 1366.94,634.757 1362.61,635.757 1358.5,637.5C 1355.28,636.059 1352.28,636.393 1349.5,638.5C 1347.51,636.543 1345.51,634.543 1343.5,632.5C 1342.31,631.571 1340.98,631.238 1339.5,631.5C 1339.5,632.5 1339.5,633.5 1339.5,634.5C 1337.83,634.5 1336.17,634.5 1334.5,634.5C 1334.16,633.662 1333.49,633.328 1332.5,633.5C 1331.52,636.287 1331.19,639.287 1331.5,642.5C 1329.74,642.643 1328.07,642.309 1326.5,641.5C 1325.83,644.167 1325.17,646.833 1324.5,649.5C 1323.83,649.833 1323.17,650.167 1322.5,650.5C 1321.82,623.131 1321.15,595.797 1320.5,568.5C 1320.83,455.665 1320.5,342.999 1319.5,230.5C 1320.26,153.7 1320.26,77.0338 1319.5,0.5 Z"/></g>
<g><path style="opacity:1" fill="#a82822" d="M -0.5,0.5 C 63.8333,0.5 128.167,0.5 192.5,0.5C 191.84,188.067 192.506,375.567 194.5,563C 193.753,564.866 193.419,566.533 193.5,568C 194,568.5 194.5,569 195,569.5C 195.5,619.499 195.667,669.499 195.5,719.5C 130.167,719.5 64.8333,719.5 -0.5,719.5C -0.5,479.833 -0.5,240.167 -0.5,0.5 Z"/></g>
<g><path style="opacity:1" fill="#9d2e24" d="M 192.5,0.5 C 193.833,0.5 195.167,0.5 196.5,0.5C 196.5,240.167 196.5,479.833 196.5,719.5C 196.167,719.5 195.833,719.5 195.5,719.5C 195.667,669.499 195.5,619.499 195,569.5C 194.5,569 194,568.5 193.5,568C 193.419,566.533 193.753,564.866 194.5,563C 192.506,375.567 191.84,188.067 192.5,0.5 Z"/></g>
<g><path style="opacity:1" fill="#fff6fb" d="M 197.5,0.5 C 198.167,0.5 198.833,0.5 199.5,0.5C 199.667,122.167 199.5,243.834 199,365.5C 198.617,366.056 198.117,366.389 197.5,366.5C 197.5,244.5 197.5,122.5 197.5,0.5 Z"/></g>
<g><path style="opacity:1" fill="#e2c6c6" d="M 1319.5,0.5 C 1320.26,77.0338 1320.26,153.7 1319.5,230.5C 1319.5,342.833 1319.5,455.167 1319.5,567.5C 1163.5,567.5 1007.5,567.5 851.5,567.5C 851.167,567.5 850.833,567.5 850.5,567.5C 850.5,567.167 850.5,566.833 850.5,566.5C 1006.5,566.5 1162.5,566.5 1318.5,566.5C 1318.17,377.666 1318.5,188.999 1319.5,0.5 Z"/></g>
<g><path style="opacity:1" fill="#dda7a6" d="M 850.5,566.5 C 850.5,566.833 850.5,567.167 850.5,567.5C 824.158,567.35 797.825,567.683 771.5,568.5C 797.479,566.509 823.812,565.842 850.5,566.5 Z"/></g>
<g><path style="opacity:1" fill="#cb8681" d="M 196.5,0.5 C 196.833,0.5 197.167,0.5 197.5,0.5C 197.5,122.5 197.5,244.5 197.5,366.5C 197.5,433.5 197.5,500.5 197.5,567.5C 197.611,568.117 197.944,568.617 198.5,569C 389.667,569.833 580.667,569.666 771.5,568.5C 797.825,567.683 824.158,567.35 850.5,567.5C 850.833,567.5 851.167,567.5 851.5,567.5C 851.611,568.117 851.944,568.617 852.5,569C 1007.52,569.827 1162.52,569.661 1317.5,568.5C 1316.74,569.268 1315.74,569.768 1314.5,570C 1316.59,570.953 1316.93,572.286 1315.5,574C 1316.13,574.75 1316.63,575.584 1317,576.5C 1317.67,600.167 1317.67,623.833 1317,647.5C 1314.06,649.372 1312.89,652.039 1313.5,655.5C 1314.5,655.5 1315.5,655.5 1316.5,655.5C 1316.9,651.64 1317.24,651.807 1317.5,656C 1317.33,657.167 1317.17,658.333 1317,659.5C 1316.69,658.692 1316.19,658.025 1315.5,657.5C 1314.51,662.456 1314.17,667.456 1314.5,672.5C 1315.5,672.5 1316.5,672.5 1317.5,672.5C 1317.5,688.167 1317.5,703.833 1317.5,719.5C 943.833,719.5 570.167,719.5 196.5,719.5C 196.5,479.833 196.5,240.167 196.5,0.5 Z"/></g>
<g><path style="opacity:1" fill="#ca9391" d="M 1319.5,230.5 C 1320.5,342.999 1320.83,455.665 1320.5,568.5C 1320.17,568.5 1319.83,568.5 1319.5,568.5C 1318.83,568.5 1318.17,568.5 1317.5,568.5C 1162.52,569.661 1007.52,569.827 852.5,569C 851.944,568.617 851.611,568.117 851.5,567.5C 1007.5,567.5 1163.5,567.5 1319.5,567.5C 1319.5,455.167 1319.5,342.833 1319.5,230.5 Z"/></g>
<g><path style="opacity:1" fill="#c79b96" d="M 197.5,567.5 C 388.837,567.202 580.17,567.535 771.5,568.5C 580.667,569.666 389.667,569.833 198.5,569C 197.944,568.617 197.611,568.117 197.5,567.5 Z"/></g>
<g><path style="opacity:1" fill="#dfb6b3" d="M 1505.5,569.5 C 1530.5,569.5 1555.5,569.5 1580.5,569.5C 1580.5,569.833 1580.5,570.167 1580.5,570.5C 1555.99,570.169 1531.66,570.502 1507.5,571.5C 1506.5,571.167 1505.83,570.5 1505.5,569.5 Z"/></g>
<g><path style="opacity:1" fill="#d18481" d="M 200.5,570.5 C 382.104,570.002 563.771,570.502 745.5,572C 565.833,572.333 386.167,572.667 206.5,573C 204.782,573.346 203.115,573.846 201.5,574.5C 200.571,573.311 200.238,571.978 200.5,570.5 Z"/></g>
<g><path style="opacity:1" fill="#e5c3c1" d="M 1467.5,645.5 C 1466.23,638.721 1462.23,634.221 1455.5,632C 1449.17,630.124 1442.67,629.291 1436,629.5C 1428.17,629.961 1420.34,630.295 1412.5,630.5C 1412.72,626.055 1413.55,621.722 1415,617.5C 1420.22,614.315 1425.39,611.315 1430.5,608.5C 1431.04,606.42 1431.88,604.42 1433,602.5C 1433.37,605.877 1433.37,609.21 1433,612.5C 1433.86,610.913 1434.53,609.246 1435,607.5C 1435.32,609.301 1435.98,609.634 1437,608.5C 1439.34,601.867 1437.84,596.367 1432.5,592C 1429.83,591.333 1427.17,591.333 1424.5,592C 1420.83,594.333 1417.83,597.333 1415.5,601C 1413.02,601.677 1411.19,600.844 1410,598.5C 1409.46,592.703 1407.3,587.703 1403.5,583.5C 1404.5,581.409 1403.83,579.743 1401.5,578.5C 1395.87,582.219 1394.87,587.052 1398.5,593C 1393.8,599.394 1393.46,605.894 1397.5,612.5C 1402.13,615.458 1406.13,619.124 1409.5,623.5C 1408.99,625.225 1408.32,626.892 1407.5,628.5C 1397.27,630.261 1386.94,631.428 1376.5,632C 1375.47,632.513 1374.47,633.013 1373.5,633.5C 1373.5,612.5 1373.5,591.5 1373.5,570.5C 1404.83,570.5 1436.17,570.5 1467.5,570.5C 1467.5,595.5 1467.5,620.5 1467.5,645.5 Z"/></g>
<g><path style="opacity:1" fill="#fdfcfb" d="M 1580.5,570.5 C 1580.5,592.833 1580.5,615.167 1580.5,637.5C 1583.17,637.5 1585.83,637.5 1588.5,637.5C 1588.5,615.167 1588.5,592.833 1588.5,570.5C 1698.5,570.5 1808.5,570.5 1918.5,570.5C 1918.5,620.167 1918.5,669.833 1918.5,719.5C 1879.83,719.5 1841.17,719.5 1802.5,719.5C 1802.5,700.833 1802.5,682.167 1802.5,663.5C 1810.5,663.5 1818.5,663.5 1826.5,663.5C 1826.5,660.833 1826.5,658.167 1826.5,655.5C 1807.5,655.5 1788.5,655.5 1769.5,655.5C 1769.5,658.167 1769.5,660.833 1769.5,663.5C 1777.17,663.5 1784.83,663.5 1792.5,663.5C 1792.5,682.167 1792.5,700.833 1792.5,719.5C 1785.83,719.5 1779.17,719.5 1772.5,719.5C 1769.66,713.822 1766.33,708.489 1762.5,703.5C 1760.16,698.651 1756.83,694.484 1752.5,691C 1762.56,685.315 1765.56,677.149 1761.5,666.5C 1759.83,662.833 1757.17,660.167 1753.5,658.5C 1751.98,657.59 1750.31,656.757 1748.5,656C 1740.17,655.5 1731.84,655.334 1723.5,655.5C 1723.5,676.833 1723.5,698.167 1723.5,719.5C 1713.83,719.5 1704.17,719.5 1694.5,719.5C 1699.92,715.417 1704.25,710.417 1707.5,704.5C 1711.08,697.683 1712.24,690.35 1711,682.5C 1709.86,677.557 1707.7,673.224 1704.5,669.5C 1702.4,665.566 1699.4,662.4 1695.5,660C 1692.69,658.259 1689.69,657.092 1686.5,656.5C 1667.26,650.971 1652.1,656.638 1641,673.5C 1634.26,691.864 1638.42,707.197 1653.5,719.5C 1635.5,719.5 1617.5,719.5 1599.5,719.5C 1599.5,711.167 1599.5,702.833 1599.5,694.5C 1603.7,694.817 1607.7,694.483 1611.5,693.5C 1616.84,693.39 1621.5,691.724 1625.5,688.5C 1626.17,688.5 1626.5,688.167 1626.5,687.5C 1630.3,684.114 1631.97,679.78 1631.5,674.5C 1632,668.646 1630,663.979 1625.5,660.5C 1622.52,657.513 1618.85,655.846 1614.5,655.5C 1606.02,654.507 1597.35,654.174 1588.5,654.5C 1588.5,676.167 1588.5,697.833 1588.5,719.5C 1584.83,719.5 1581.17,719.5 1577.5,719.5C 1569.19,708.852 1560.86,698.185 1552.5,687.5C 1561.11,677.211 1569.78,666.878 1578.5,656.5C 1574.88,655.341 1571.21,655.175 1567.5,656C 1560.66,664.339 1553.66,672.506 1546.5,680.5C 1542.48,676.146 1538.48,671.813 1534.5,667.5C 1531.74,663.561 1528.74,659.728 1525.5,656C 1521.79,655.175 1518.12,655.341 1514.5,656.5C 1516.85,659.239 1519.18,661.905 1521.5,664.5C 1525.84,669.873 1530.18,675.206 1534.5,680.5C 1536.37,683.061 1538.37,685.561 1540.5,688C 1538.26,690.731 1536.26,693.564 1534.5,696.5C 1528.82,702.177 1523.49,708.177 1518.5,714.5C 1517.17,716.167 1515.83,717.833 1514.5,719.5C 1512.5,719.5 1510.5,719.5 1508.5,719.5C 1508.5,717.833 1508.5,716.167 1508.5,714.5C 1498.5,714.5 1488.5,714.5 1478.5,714.5C 1478.5,707.5 1478.5,700.5 1478.5,693.5C 1487.5,693.5 1496.5,693.5 1505.5,693.5C 1506.48,690.713 1506.81,687.713 1506.5,684.5C 1497.17,684.5 1487.83,684.5 1478.5,684.5C 1477.17,677.833 1477.17,671.167 1478.5,664.5C 1488.17,664.5 1497.83,664.5 1507.5,664.5C 1507.81,661.287 1507.48,658.287 1506.5,655.5C 1496.5,655.5 1486.5,655.5 1476.5,655.5C 1476.5,638.5 1476.5,621.5 1476.5,604.5C 1485.79,605.32 1494.79,604.153 1503.5,601C 1512.14,595.91 1514.97,588.41 1512,578.5C 1510.99,575.798 1509.49,573.465 1507.5,571.5C 1531.66,570.502 1555.99,570.169 1580.5,570.5 Z"/></g>
<g><path style="opacity:1" fill="#fdf7f6" d="M 1476.5,572.5 C 1484.68,571.897 1492.68,572.731 1500.5,575C 1504.54,577.075 1506.2,580.408 1505.5,585C 1505.51,592.327 1501.85,596.66 1494.5,598C 1488.51,598.499 1482.51,598.666 1476.5,598.5C 1476.5,589.833 1476.5,581.167 1476.5,572.5 Z"/></g>
<g><path style="opacity:1" fill="#d08c88" d="M 1468.5,569.5 C 1468.5,604.5 1468.5,639.5 1468.5,674.5C 1468.79,676.735 1468.46,678.735 1467.5,680.5C 1466.83,680.5 1466.17,680.5 1465.5,680.5C 1467.45,669.086 1468.11,657.419 1467.5,645.5C 1467.5,620.5 1467.5,595.5 1467.5,570.5C 1436.17,570.5 1404.83,570.5 1373.5,570.5C 1373.5,591.5 1373.5,612.5 1373.5,633.5C 1373.5,634.167 1373.17,634.5 1372.5,634.5C 1372.5,612.833 1372.5,591.167 1372.5,569.5C 1404.5,569.5 1436.5,569.5 1468.5,569.5 Z"/></g>
<g><path style="opacity:1" fill="#a03831" d="M 1505.5,569.5 C 1505.83,570.5 1506.5,571.167 1507.5,571.5C 1509.49,573.465 1510.99,575.798 1512,578.5C 1514.97,588.41 1512.14,595.91 1503.5,601C 1494.79,604.153 1485.79,605.32 1476.5,604.5C 1476.5,603.5 1476.5,602.5 1476.5,601.5C 1482.81,601.342 1489.14,601.008 1495.5,600.5C 1489.01,599.833 1482.68,599.167 1476.5,598.5C 1482.51,598.666 1488.51,598.499 1494.5,598C 1501.85,596.66 1505.51,592.327 1505.5,585C 1506.2,580.408 1504.54,577.075 1500.5,575C 1492.68,572.731 1484.68,571.897 1476.5,572.5C 1486.11,571.956 1495.77,570.956 1505.5,569.5 Z"/></g>
<g><path style="opacity:1" fill="#d5837d" d="M 1317.5,568.5 C 1318.17,568.5 1318.83,568.5 1319.5,568.5C 1319.5,618.833 1319.5,669.167 1319.5,719.5C 1318.83,719.5 1318.17,719.5 1317.5,719.5C 1317.5,703.833 1317.5,688.167 1317.5,672.5C 1316.5,672.5 1315.5,672.5 1314.5,672.5C 1314.17,667.456 1314.51,662.456 1315.5,657.5C 1316.19,658.025 1316.69,658.692 1317,659.5C 1317.17,658.333 1317.33,657.167 1317.5,656C 1317.24,651.807 1316.9,651.64 1316.5,655.5C 1315.5,655.5 1314.5,655.5 1313.5,655.5C 1312.89,652.039 1314.06,649.372 1317,647.5C 1317.67,623.833 1317.67,600.167 1317,576.5C 1316.63,575.584 1316.13,574.75 1315.5,574C 1316.93,572.286 1316.59,570.953 1314.5,570C 1315.74,569.768 1316.74,569.268 1317.5,568.5 Z"/></g>
<g><path style="opacity:1" fill="#e3aeab" d="M 1580.5,569.5 C 1580.83,569.5 1581.17,569.5 1581.5,569.5C 1581.5,591.833 1581.5,614.167 1581.5,636.5C 1583.5,636.5 1585.5,636.5 1587.5,636.5C 1587.5,614.5 1587.5,592.5 1587.5,570.5C 1697.83,569.167 1808.17,569.167 1918.5,570.5C 1808.5,570.5 1698.5,570.5 1588.5,570.5C 1588.5,592.833 1588.5,615.167 1588.5,637.5C 1585.83,637.5 1583.17,637.5 1580.5,637.5C 1580.5,615.167 1580.5,592.833 1580.5,570.5C 1580.5,570.167 1580.5,569.833 1580.5,569.5 Z"/></g>
<g><path style="opacity:1" fill="#be7775" d="M 1709.5,577.5 C 1711.61,576.532 1713.94,576.198 1716.5,576.5C 1716.5,581.167 1716.5,585.833 1716.5,590.5C 1715.52,586.366 1715.18,582.032 1715.5,577.5C 1713.5,577.5 1711.5,577.5 1709.5,577.5 Z"/></g>
<g><path style="opacity:1" fill="#f5cccc" d="M 1819.5,589.5 C 1816.15,589.335 1812.82,589.502 1809.5,590C 1805.68,592.003 1802.35,594.503 1799.5,597.5C 1799.5,595.167 1799.5,592.833 1799.5,590.5C 1800.16,591.278 1800.99,591.944 1802,592.5C 1807.44,588.603 1813.27,587.603 1819.5,589.5 Z"/></g>
<g><path style="opacity:1" fill="#9e3731" d="M 1693.5,619.5 C 1690.45,615.476 1686.45,613.976 1681.5,615C 1688.17,616.495 1690.67,620.662 1689,627.5C 1688.58,629.426 1687.41,630.426 1685.5,630.5C 1687.68,627.224 1688.01,623.724 1686.5,620C 1681.13,617.151 1675.47,615.151 1669.5,614C 1660.64,610.875 1658.14,605.042 1662,596.5C 1668.02,589.814 1675.52,587.648 1684.5,590C 1688.36,591.579 1691.36,594.079 1693.5,597.5C 1691.85,598.648 1690.35,599.981 1689,601.5C 1684.49,594.565 1678.32,592.732 1670.5,596C 1666.89,599.315 1666.56,602.982 1669.5,607C 1676.11,609.457 1682.78,611.791 1689.5,614C 1691.46,615.451 1692.8,617.284 1693.5,619.5 Z"/></g>
<g><path style="opacity:1" fill="#933834" d="M 1581.5,569.5 C 1582.5,591.327 1582.83,613.327 1582.5,635.5C 1583.83,635.5 1585.17,635.5 1586.5,635.5C 1586.17,613.66 1586.5,591.994 1587.5,570.5C 1587.5,592.5 1587.5,614.5 1587.5,636.5C 1585.5,636.5 1583.5,636.5 1581.5,636.5C 1581.5,614.167 1581.5,591.833 1581.5,569.5 Z"/></g>
<g><path style="opacity:1" fill="#9c322c" d="M 1709.5,577.5 C 1711.5,577.5 1713.5,577.5 1715.5,577.5C 1715.18,582.032 1715.52,586.366 1716.5,590.5C 1720.83,590.5 1725.17,590.5 1729.5,590.5C 1729.5,592.167 1729.5,593.833 1729.5,595.5C 1724.97,595.182 1720.63,595.515 1716.5,596.5C 1715.51,606.987 1715.17,617.654 1715.5,628.5C 1714.67,620.677 1714.17,612.677 1714,604.5C 1713.64,602.392 1712.97,600.392 1712,598.5C 1711.5,607.16 1711.33,615.827 1711.5,624.5C 1710.83,615.167 1710.17,605.833 1709.5,596.5C 1706.38,595.521 1703.04,595.187 1699.5,595.5C 1699.5,593.833 1699.5,592.167 1699.5,590.5C 1702.83,590.5 1706.17,590.5 1709.5,590.5C 1709.5,586.167 1709.5,581.833 1709.5,577.5 Z"/></g>
<g><path style="opacity:1" fill="#983a35" d="M 1768.5,592.5 C 1762.49,591.422 1756.49,591.422 1750.5,592.5C 1754.8,593.328 1759.13,593.828 1763.5,594C 1770.54,597.192 1772.54,602.025 1769.5,608.5C 1769.32,597.385 1763.65,592.885 1752.5,595C 1749.22,595.973 1746.22,597.473 1743.5,599.5C 1742.02,598.52 1740.69,597.353 1739.5,596C 1740.71,594.961 1741.71,593.794 1742.5,592.5C 1749.57,589.731 1756.9,588.898 1764.5,590C 1766.07,590.608 1767.4,591.442 1768.5,592.5 Z"/></g>
<g><path style="opacity:1" fill="#993a36" d="M 1819.5,589.5 C 1819.5,591.5 1819.5,593.5 1819.5,595.5C 1812.05,593.787 1806.39,596.12 1802.5,602.5C 1802.17,602.5 1801.83,602.5 1801.5,602.5C 1801.63,600.446 1800.97,598.779 1799.5,597.5C 1802.35,594.503 1805.68,592.003 1809.5,590C 1812.82,589.502 1816.15,589.335 1819.5,589.5 Z"/></g>
<g><path style="opacity:1" fill="#a3362e" d="M 1768.5,592.5 C 1772.39,594.243 1774.89,597.243 1776,601.5C 1776.5,613.162 1776.67,624.829 1776.5,636.5C 1774.5,636.5 1772.5,636.5 1770.5,636.5C 1770.5,634.167 1770.5,631.833 1770.5,629.5C 1769.91,628.849 1769.24,628.182 1768.5,627.5C 1770.04,625.121 1770.71,622.454 1770.5,619.5C 1770.5,617.304 1770.16,615.304 1769.5,613.5C 1762.72,613.201 1756.05,613.867 1749.5,615.5C 1747.25,615.819 1745.25,615.319 1743.5,614C 1744.38,613.292 1745.05,612.458 1745.5,611.5C 1746.21,610.596 1747.21,610.263 1748.5,610.5C 1753.34,610.089 1758.01,609.422 1762.5,608.5C 1764.83,608.5 1767.17,608.5 1769.5,608.5C 1772.54,602.025 1770.54,597.192 1763.5,594C 1759.13,593.828 1754.8,593.328 1750.5,592.5C 1756.49,591.422 1762.49,591.422 1768.5,592.5 Z"/></g>
<g><path style="opacity:1" fill="#9b332f" d="M 1468.5,569.5 C 1470.05,569.821 1470.71,570.821 1470.5,572.5C 1472.5,572.5 1474.5,572.5 1476.5,572.5C 1476.5,581.167 1476.5,589.833 1476.5,598.5C 1475.17,598.5 1473.83,598.5 1472.5,598.5C 1474.27,590.629 1474.94,582.629 1474.5,574.5C 1472.86,574.286 1471.36,574.62 1470,575.5C 1469.83,608.669 1469.33,641.669 1468.5,674.5C 1468.5,639.5 1468.5,604.5 1468.5,569.5 Z"/></g>
<g><path style="opacity:1" fill="#9b3f38" d="M 1563.5,624.5 C 1563.83,621.843 1564.16,619.176 1564.5,616.5C 1562.92,610.957 1561.59,605.29 1560.5,599.5C 1552.11,591.233 1542.11,588.566 1530.5,591.5C 1541.44,587.563 1551.44,589.396 1560.5,597C 1567.18,605.663 1568.18,614.83 1563.5,624.5 Z"/></g>
<g><path style="opacity:1" fill="#9e352f" d="M 1642.5,594.5 C 1644.02,596.216 1645.02,598.216 1645.5,600.5C 1646.98,604.959 1647.64,609.626 1647.5,614.5C 1634.99,614.171 1622.66,614.505 1610.5,615.5C 1610.11,618.553 1610.78,621.22 1612.5,623.5C 1615.29,629.651 1620.12,632.651 1627,632.5C 1633.52,632.326 1638.68,629.659 1642.5,624.5C 1644.17,625.5 1645.5,626.833 1646.5,628.5C 1637.97,638.287 1627.63,640.787 1615.5,636C 1603.07,626.639 1599.9,614.806 1606,600.5C 1612.47,590.338 1621.64,586.838 1633.5,590C 1636.81,590.986 1639.81,592.486 1642.5,594.5 Z"/></g>
<g><path style="opacity:1" fill="#fcf6f5" d="M 1641.5,607.5 C 1631.55,609.475 1621.22,610.142 1610.5,609.5C 1610.5,608.5 1610.5,607.5 1610.5,606.5C 1615.67,595.164 1624,591.997 1635.5,597C 1639.43,599.424 1641.43,602.924 1641.5,607.5 Z"/></g>
<g><path style="opacity:1" fill="#fbe9e6" d="M 1768.5,631.5 C 1768.83,630.5 1769.5,629.833 1770.5,629.5C 1770.5,631.833 1770.5,634.167 1770.5,636.5C 1772.5,636.5 1774.5,636.5 1776.5,636.5C 1776.67,624.829 1776.5,613.162 1776,601.5C 1774.89,597.243 1772.39,594.243 1768.5,592.5C 1767.4,591.442 1766.07,590.608 1764.5,590C 1756.9,588.898 1749.57,589.731 1742.5,592.5C 1742.41,591.504 1742.75,590.671 1743.5,590C 1751.34,587.397 1759.34,586.897 1767.5,588.5C 1771.35,590.362 1774.52,593.029 1777,596.5C 1777.29,608.634 1777.79,620.8 1778.5,633C 1777.83,634.667 1777.17,636.333 1776.5,638C 1774.19,638.497 1771.86,638.663 1769.5,638.5C 1769.8,635.941 1769.47,633.607 1768.5,631.5 Z"/></g>
<g><path style="opacity:1" fill="#d9a29f" d="M 1610.5,606.5 C 1610.5,607.5 1610.5,608.5 1610.5,609.5C 1621.22,610.142 1631.55,609.475 1641.5,607.5C 1642.4,608.209 1642.74,609.209 1642.5,610.5C 1631.5,610.5 1620.5,610.5 1609.5,610.5C 1609.23,608.901 1609.57,607.568 1610.5,606.5 Z"/></g>
<g><path style="opacity:1" fill="#ba7e79" d="M 1762.5,608.5 C 1758.01,609.422 1753.34,610.089 1748.5,610.5C 1749.26,609.732 1750.26,609.232 1751.5,609C 1755.15,608.501 1758.82,608.335 1762.5,608.5 Z"/></g>
<g><path style="opacity:1" fill="#a02d27" d="M 1799.5,590.5 C 1799.5,592.833 1799.5,595.167 1799.5,597.5C 1800.97,598.779 1801.63,600.446 1801.5,602.5C 1800.78,602.918 1800.28,603.584 1800,604.5C 1799.5,614.828 1799.33,625.161 1799.5,635.5C 1797.86,635.714 1796.36,635.38 1795,634.5C 1794.83,620.994 1794.33,607.66 1793.5,594.5C 1793.5,593.167 1793.5,591.833 1793.5,590.5C 1795.5,590.5 1797.5,590.5 1799.5,590.5 Z"/></g>
<g><path style="opacity:1" fill="#a42a25" d="M 1519.5,624.5 C 1518.66,624.158 1518.33,623.492 1518.5,622.5C 1517.63,618.192 1517.47,613.859 1518,609.5C 1519,608.167 1520,606.833 1521,605.5C 1522.46,611.653 1522.96,617.986 1522.5,624.5C 1521.5,624.5 1520.5,624.5 1519.5,624.5 Z"/></g>
<g><path style="opacity:1" fill="#9a504b" d="M 1793.5,594.5 C 1794.33,607.66 1794.83,620.994 1795,634.5C 1796.36,635.38 1797.86,635.714 1799.5,635.5C 1799.33,625.161 1799.5,614.828 1800,604.5C 1800.28,603.584 1800.78,602.918 1801.5,602.5C 1801.83,602.5 1802.17,602.5 1802.5,602.5C 1802.01,603.473 1801.51,604.473 1801,605.5C 1800.5,616.161 1800.33,626.828 1800.5,637.5C 1798.17,637.5 1795.83,637.5 1793.5,637.5C 1793.5,623.167 1793.5,608.833 1793.5,594.5 Z"/></g>
<g><path style="opacity:1" fill="#934a45" d="M 1645.5,600.5 C 1646.56,601.6 1647.39,602.934 1648,604.5C 1648.5,608.152 1648.67,611.818 1648.5,615.5C 1635.83,615.5 1623.17,615.5 1610.5,615.5C 1622.66,614.505 1634.99,614.171 1647.5,614.5C 1647.64,609.626 1646.98,604.959 1645.5,600.5 Z"/></g>
<g><path style="opacity:1" fill="#fdece9" d="M 1642.5,594.5 C 1644.17,594.751 1645.67,595.418 1647,596.5C 1649.61,603.263 1650.11,610.263 1648.5,617.5C 1647.91,617.709 1647.41,618.043 1647,618.5C 1635.57,617.406 1624.07,616.906 1612.5,617C 1612.4,619.237 1612.4,621.404 1612.5,623.5C 1610.78,621.22 1610.11,618.553 1610.5,615.5C 1623.17,615.5 1635.83,615.5 1648.5,615.5C 1648.67,611.818 1648.5,608.152 1648,604.5C 1647.39,602.934 1646.56,601.6 1645.5,600.5C 1645.02,598.216 1644.02,596.216 1642.5,594.5 Z"/></g>
<g><path style="opacity:1" fill="#fdfbfa" d="M 1467.5,645.5 C 1468.11,657.419 1467.45,669.086 1465.5,680.5C 1464.62,683.505 1463.62,683.838 1462.5,681.5C 1461.36,678.516 1460.7,675.349 1460.5,672C 1461.37,665.436 1462.2,658.936 1463,652.5C 1459.17,661.024 1457.17,670.024 1457,679.5C 1456.62,680.056 1456.12,680.389 1455.5,680.5C 1448.43,673.967 1440.1,670.134 1430.5,669C 1418.09,666.674 1405.76,667.007 1393.5,670C 1390.97,670.424 1388.97,671.59 1387.5,673.5C 1382.13,675.532 1378.47,679.199 1376.5,684.5C 1375.04,684.567 1373.71,684.234 1372.5,683.5C 1368.5,680.833 1364.5,678.167 1360.5,675.5C 1357.93,670.436 1353.93,666.936 1348.5,665C 1341.59,664.312 1334.76,664.812 1328,666.5C 1323.46,665.63 1321.8,662.963 1323,658.5C 1326.65,655.2 1328.99,651.2 1330,646.5C 1332.08,644.924 1333.58,642.924 1334.5,640.5C 1333.05,638.382 1332.39,636.049 1332.5,633.5C 1333.49,633.328 1334.16,633.662 1334.5,634.5C 1335.51,637.72 1337.51,638.386 1340.5,636.5C 1340.24,635.022 1340.57,633.689 1341.5,632.5C 1343.14,635.803 1345.47,638.47 1348.5,640.5C 1356.73,640.194 1364.39,638.194 1371.5,634.5C 1371.83,634.5 1372.17,634.5 1372.5,634.5C 1373.17,634.5 1373.5,634.167 1373.5,633.5C 1374.47,633.013 1375.47,632.513 1376.5,632C 1386.94,631.428 1397.27,630.261 1407.5,628.5C 1408.32,626.892 1408.99,625.225 1409.5,623.5C 1406.13,619.124 1402.13,615.458 1397.5,612.5C 1393.46,605.894 1393.8,599.394 1398.5,593C 1394.87,587.052 1395.87,582.219 1401.5,578.5C 1403.83,579.743 1404.5,581.409 1403.5,583.5C 1407.3,587.703 1409.46,592.703 1410,598.5C 1411.19,600.844 1413.02,601.677 1415.5,601C 1417.83,597.333 1420.83,594.333 1424.5,592C 1427.17,591.333 1429.83,591.333 1432.5,592C 1437.84,596.367 1439.34,601.867 1437,608.5C 1435.98,609.634 1435.32,609.301 1435,607.5C 1434.53,609.246 1433.86,610.913 1433,612.5C 1433.37,609.21 1433.37,605.877 1433,602.5C 1431.88,604.42 1431.04,606.42 1430.5,608.5C 1425.39,611.315 1420.22,614.315 1415,617.5C 1413.55,621.722 1412.72,626.055 1412.5,630.5C 1420.34,630.295 1428.17,629.961 1436,629.5C 1442.67,629.291 1449.17,630.124 1455.5,632C 1462.23,634.221 1466.23,638.721 1467.5,645.5 Z"/></g>
<g><path style="opacity:1" fill="#a32e27" d="M 1693.5,619.5 C 1694.64,622.64 1694.81,625.973 1694,629.5C 1693.05,631.093 1691.88,632.426 1690.5,633.5C 1688.25,633.915 1686.09,634.582 1684,635.5C 1683.17,635.167 1682.33,634.833 1681.5,634.5C 1683.08,633.333 1684.41,632 1685.5,630.5C 1687.41,630.426 1688.58,629.426 1689,627.5C 1690.67,620.662 1688.17,616.495 1681.5,615C 1686.45,613.976 1690.45,615.476 1693.5,619.5 Z"/></g>
<g><path style="opacity:1" fill="#9c3b35" d="M 1745.5,611.5 C 1745.05,612.458 1744.38,613.292 1743.5,614C 1745.25,615.319 1747.25,615.819 1749.5,615.5C 1747.52,617.137 1745.52,618.804 1743.5,620.5C 1744.04,631.51 1749.71,635.343 1760.5,632C 1767.6,627.895 1770.6,621.729 1769.5,613.5C 1770.16,615.304 1770.5,617.304 1770.5,619.5C 1770.71,622.454 1770.04,625.121 1768.5,627.5C 1769.24,628.182 1769.91,628.849 1770.5,629.5C 1769.5,629.833 1768.83,630.5 1768.5,631.5C 1760.93,638.935 1752.27,640.435 1742.5,636C 1735.38,629.227 1734.71,621.893 1740.5,614C 1742.08,612.906 1743.74,612.072 1745.5,611.5 Z"/></g>
<g><path style="opacity:1" fill="#a32a25" d="M 1743.5,620.5 C 1742.01,621.312 1741.34,622.645 1741.5,624.5C 1741.99,627.012 1742.99,629.345 1744.5,631.5C 1742.74,632.754 1741.24,632.421 1740,630.5C 1738.42,626.187 1738.25,621.854 1739.5,617.5C 1740.69,616.571 1742.02,616.238 1743.5,616.5C 1743.5,617.833 1743.5,619.167 1743.5,620.5 Z"/></g>
<g><path style="opacity:1" fill="#fbf5f3" d="M 1769.5,613.5 C 1770.6,621.729 1767.6,627.895 1760.5,632C 1749.71,635.343 1744.04,631.51 1743.5,620.5C 1745.52,618.804 1747.52,617.137 1749.5,615.5C 1756.05,613.867 1762.72,613.201 1769.5,613.5 Z"/></g>
<g><path style="opacity:1" fill="#9e332d" d="M 1563.5,624.5 C 1558.81,634.108 1550.98,638.774 1540,638.5C 1533.92,637.881 1528.42,635.714 1523.5,632C 1521.46,629.815 1520.13,627.315 1519.5,624.5C 1520.5,624.5 1521.5,624.5 1522.5,624.5C 1522.96,617.986 1522.46,611.653 1521,605.5C 1520,606.833 1519,608.167 1518,609.5C 1517.47,613.859 1517.63,618.192 1518.5,622.5C 1513.45,608.665 1517.45,598.331 1530.5,591.5C 1542.11,588.566 1552.11,591.233 1560.5,599.5C 1561.59,605.29 1562.92,610.957 1564.5,616.5C 1564.16,619.176 1563.83,621.843 1563.5,624.5 Z"/></g>
<g><path style="opacity:1" fill="#fcf8f7" d="M 1536.5,594.5 C 1551.82,593.984 1559.32,601.317 1559,616.5C 1556.11,629.036 1548.27,634.202 1535.5,632C 1522.92,624.641 1520.08,614.475 1527,601.5C 1529.82,598.524 1532.99,596.191 1536.5,594.5 Z"/></g>
<g><path style="opacity:1" fill="#a1312b" d="M 1672.5,632.5 C 1674.26,633.461 1676.26,633.795 1678.5,633.5C 1678.5,634.5 1678.5,635.5 1678.5,636.5C 1673,635.792 1667.67,634.459 1662.5,632.5C 1660.75,632.582 1659.75,631.749 1659.5,630C 1660.29,628.04 1661.63,626.54 1663.5,625.5C 1666.26,628.27 1669.26,630.604 1672.5,632.5 Z"/></g>
<g><path style="opacity:1" fill="#984440" d="M 1709.5,596.5 C 1710.17,605.833 1710.83,615.167 1711.5,624.5C 1710.8,628.803 1712.13,632.303 1715.5,635C 1719.49,635.499 1723.49,635.666 1727.5,635.5C 1727.65,634.448 1727.48,633.448 1727,632.5C 1721.83,634.658 1718,633.325 1715.5,628.5C 1715.17,617.654 1715.51,606.987 1716.5,596.5C 1716.33,606.839 1716.5,617.172 1717,627.5C 1717.31,628.766 1717.81,629.933 1718.5,631C 1721.89,631.752 1725.23,631.585 1728.5,630.5C 1729.47,632.396 1729.8,634.396 1729.5,636.5C 1725.2,637.463 1720.87,637.629 1716.5,637C 1714.38,635.878 1712.54,634.378 1711,632.5C 1709.54,620.601 1709.04,608.601 1709.5,596.5 Z"/></g>
<g><path style="opacity:1" fill="#a42b24" d="M 1715.5,628.5 C 1718,633.325 1721.83,634.658 1727,632.5C 1727.48,633.448 1727.65,634.448 1727.5,635.5C 1723.49,635.666 1719.49,635.499 1715.5,635C 1712.13,632.303 1710.8,628.803 1711.5,624.5C 1711.33,615.827 1711.5,607.16 1712,598.5C 1712.97,600.392 1713.64,602.392 1714,604.5C 1714.17,612.677 1714.67,620.677 1715.5,628.5 Z"/></g>
<g><path style="opacity:1" fill="#9d443f" d="M 1685.5,630.5 C 1684.41,632 1683.08,633.333 1681.5,634.5C 1682.33,634.833 1683.17,635.167 1684,635.5C 1686.09,634.582 1688.25,633.915 1690.5,633.5C 1683.92,638.551 1676.59,639.718 1668.5,637C 1665.89,636.208 1663.89,634.708 1662.5,632.5C 1667.67,634.459 1673,635.792 1678.5,636.5C 1678.5,635.5 1678.5,634.5 1678.5,633.5C 1676.26,633.795 1674.26,633.461 1672.5,632.5C 1677.03,632.85 1681.36,632.183 1685.5,630.5 Z"/></g>
<g><path style="opacity:1" fill="#963330" d="M 1371.5,634.5 C 1364.39,638.194 1356.73,640.194 1348.5,640.5C 1345.47,638.47 1343.14,635.803 1341.5,632.5C 1340.57,633.689 1340.24,635.022 1340.5,636.5C 1337.51,638.386 1335.51,637.72 1334.5,634.5C 1336.17,634.5 1337.83,634.5 1339.5,634.5C 1339.5,633.5 1339.5,632.5 1339.5,631.5C 1340.98,631.238 1342.31,631.571 1343.5,632.5C 1345.51,634.543 1347.51,636.543 1349.5,638.5C 1352.28,636.393 1355.28,636.059 1358.5,637.5C 1362.61,635.757 1366.94,634.757 1371.5,634.5 Z"/></g>
<g><path style="opacity:1" fill="#8f3833" d="M 1802.5,663.5 C 1809.65,662.508 1816.98,662.175 1824.5,662.5C 1824.5,660.5 1824.5,658.5 1824.5,656.5C 1806.5,656.5 1788.5,656.5 1770.5,656.5C 1770.26,658.467 1770.59,660.301 1771.5,662C 1778.68,662.171 1785.68,662.671 1792.5,663.5C 1784.83,663.5 1777.17,663.5 1769.5,663.5C 1769.5,660.833 1769.5,658.167 1769.5,655.5C 1788.5,655.5 1807.5,655.5 1826.5,655.5C 1826.5,658.167 1826.5,660.833 1826.5,663.5C 1818.5,663.5 1810.5,663.5 1802.5,663.5 Z"/></g>
<g><path style="opacity:1" fill="#9c3733" d="M 1534.5,667.5 C 1531.79,665.055 1528.96,662.722 1526,660.5C 1525.52,659.552 1525.35,658.552 1525.5,657.5C 1523.83,657.5 1522.17,657.5 1520.5,657.5C 1520.99,659.806 1521.33,662.139 1521.5,664.5C 1519.18,661.905 1516.85,659.239 1514.5,656.5C 1518.12,655.341 1521.79,655.175 1525.5,656C 1528.74,659.728 1531.74,663.561 1534.5,667.5 Z"/></g>
<g><path style="opacity:1" fill="#98352e" d="M 1614.5,655.5 C 1618.85,655.846 1622.52,657.513 1625.5,660.5C 1614.07,657.791 1602.4,656.791 1590.5,657.5C 1590.5,678.167 1590.5,698.833 1590.5,719.5C 1590.17,719.5 1589.83,719.5 1589.5,719.5C 1589.5,698.167 1589.5,676.833 1589.5,655.5C 1597.83,655.5 1606.17,655.5 1614.5,655.5 Z"/></g>
<g><path style="opacity:1" fill="#a52a24" d="M 1625.5,660.5 C 1627.22,663.608 1626.72,666.275 1624,668.5C 1622.31,665.641 1619.81,664.308 1616.5,664.5C 1616.42,663.25 1615.76,662.417 1614.5,662C 1608.8,661.17 1603.14,661.337 1597.5,662.5C 1596.2,671.137 1596.2,679.804 1597.5,688.5C 1603.12,687.711 1608.78,687.211 1614.5,687C 1618.13,686.21 1620.13,684.043 1620.5,680.5C 1624.09,678.298 1625.43,674.965 1624.5,670.5C 1626.39,670.703 1627.89,670.037 1629,668.5C 1629.67,673.167 1629.67,677.833 1629,682.5C 1627.12,683.653 1626.28,685.319 1626.5,687.5C 1626.5,688.167 1626.17,688.5 1625.5,688.5C 1616.55,691.903 1607.22,693.236 1597.5,692.5C 1597.5,701.5 1597.5,710.5 1597.5,719.5C 1595.17,719.5 1592.83,719.5 1590.5,719.5C 1590.5,698.833 1590.5,678.167 1590.5,657.5C 1602.4,656.791 1614.07,657.791 1625.5,660.5 Z"/></g>
<g><path style="opacity:1" fill="#993e39" d="M 1753.5,658.5 C 1751.65,658.222 1750.32,658.889 1749.5,660.5C 1749.83,663.842 1751.33,666.508 1754,668.5C 1754.67,671.5 1754.67,674.5 1754,677.5C 1753.62,678.056 1753.12,678.389 1752.5,678.5C 1752.5,677.833 1752.5,677.167 1752.5,676.5C 1754.35,669.788 1751.68,665.621 1744.5,664C 1740.85,663.501 1737.18,663.335 1733.5,663.5C 1733.5,670.5 1733.5,677.5 1733.5,684.5C 1731.56,677.863 1730.73,670.863 1731,663.5C 1731.5,663 1732,662.5 1732.5,662C 1736.49,661.501 1740.49,661.334 1744.5,661.5C 1744.5,660.5 1744.5,659.5 1744.5,658.5C 1741.57,657.391 1735.24,657.058 1725.5,657.5C 1725.5,678.167 1725.5,698.833 1725.5,719.5C 1724.83,719.5 1724.17,719.5 1723.5,719.5C 1723.5,698.167 1723.5,676.833 1723.5,655.5C 1731.84,655.334 1740.17,655.5 1748.5,656C 1750.31,656.757 1751.98,657.59 1753.5,658.5 Z"/></g>
<g><path style="opacity:1" fill="#9a3028" d="M 1319.5,568.5 C 1319.83,568.5 1320.17,568.5 1320.5,568.5C 1321.15,595.797 1321.82,623.131 1322.5,650.5C 1323.17,650.167 1323.83,649.833 1324.5,649.5C 1325.17,646.833 1325.83,644.167 1326.5,641.5C 1328.07,642.309 1329.74,642.643 1331.5,642.5C 1331.19,639.287 1331.52,636.287 1332.5,633.5C 1332.39,636.049 1333.05,638.382 1334.5,640.5C 1333.58,642.924 1332.08,644.924 1330,646.5C 1328.99,651.2 1326.65,655.2 1323,658.5C 1321.8,662.963 1323.46,665.63 1328,666.5C 1334.76,664.812 1341.59,664.312 1348.5,665C 1353.93,666.936 1357.93,670.436 1360.5,675.5C 1359.5,675.5 1358.5,675.5 1357.5,675.5C 1356.09,669.379 1352.59,667.712 1347,670.5C 1344.08,668.619 1341.08,668.286 1338,669.5C 1332.87,668.81 1327.7,668.143 1322.5,667.5C 1321.5,684.821 1321.17,702.154 1321.5,719.5C 1320.83,719.5 1320.17,719.5 1319.5,719.5C 1319.5,669.167 1319.5,618.833 1319.5,568.5 Z"/></g>
<g><path style="opacity:1" fill="#a32c25" d="M 1476.5,598.5 C 1482.68,599.167 1489.01,599.833 1495.5,600.5C 1489.14,601.008 1482.81,601.342 1476.5,601.5C 1476.5,602.5 1476.5,603.5 1476.5,604.5C 1476.5,621.5 1476.5,638.5 1476.5,655.5C 1485.99,656.494 1495.65,656.827 1505.5,656.5C 1505.5,658.167 1505.5,659.833 1505.5,661.5C 1496.36,662.085 1487.36,662.752 1478.5,663.5C 1478.5,663.833 1478.5,664.167 1478.5,664.5C 1477.17,671.167 1477.17,677.833 1478.5,684.5C 1486.32,685.492 1494.32,685.826 1502.5,685.5C 1505.11,687.59 1505.11,689.757 1502.5,692C 1494.32,692.171 1486.32,692.671 1478.5,693.5C 1477.51,700.648 1477.18,707.981 1477.5,715.5C 1487.5,715.5 1497.5,715.5 1507.5,715.5C 1507.5,716.833 1507.5,718.167 1507.5,719.5C 1494.5,719.5 1481.5,719.5 1468.5,719.5C 1468.83,707.322 1468.5,695.322 1467.5,683.5C 1467.5,682.5 1467.5,681.5 1467.5,680.5C 1468.46,678.735 1468.79,676.735 1468.5,674.5C 1469.33,641.669 1469.83,608.669 1470,575.5C 1471.36,574.62 1472.86,574.286 1474.5,574.5C 1474.94,582.629 1474.27,590.629 1472.5,598.5C 1473.83,598.5 1475.17,598.5 1476.5,598.5 Z"/></g>
<g><path style="opacity:1" fill="#a42b21" d="M 1534.5,667.5 C 1535.52,671.738 1536.85,675.905 1538.5,680C 1538.17,680.5 1537.83,681 1537.5,681.5C 1536.58,680.873 1535.58,680.539 1534.5,680.5C 1534.76,679.022 1534.43,677.689 1533.5,676.5C 1531.18,674.53 1529.35,672.196 1528,669.5C 1526.22,667.21 1524.06,665.543 1521.5,664.5C 1521.33,662.139 1520.99,659.806 1520.5,657.5C 1522.17,657.5 1523.83,657.5 1525.5,657.5C 1525.35,658.552 1525.52,659.552 1526,660.5C 1528.96,662.722 1531.79,665.055 1534.5,667.5 Z"/></g>
<g><path style="opacity:1" fill="#9e4542" d="M 1686.5,656.5 C 1689.69,657.092 1692.69,658.259 1695.5,660C 1699.4,662.4 1702.4,665.566 1704.5,669.5C 1698.78,664.654 1692.78,660.32 1686.5,656.5 Z"/></g>
<g><path style="opacity:1" fill="#923633" d="M 1476.5,655.5 C 1486.5,655.5 1496.5,655.5 1506.5,655.5C 1506.5,658.167 1506.5,660.833 1506.5,663.5C 1497.17,663.5 1487.83,663.5 1478.5,663.5C 1487.36,662.752 1496.36,662.085 1505.5,661.5C 1505.5,659.833 1505.5,658.167 1505.5,656.5C 1495.65,656.827 1485.99,656.494 1476.5,655.5 Z"/></g>
<g><path style="opacity:1" fill="#d4908b" d="M 1614.5,655.5 C 1606.17,655.5 1597.83,655.5 1589.5,655.5C 1589.5,676.833 1589.5,698.167 1589.5,719.5C 1589.17,719.5 1588.83,719.5 1588.5,719.5C 1588.5,697.833 1588.5,676.167 1588.5,654.5C 1597.35,654.174 1606.02,654.507 1614.5,655.5 Z"/></g>
<g><path style="opacity:1" fill="#e2c9ca" d="M 1462.5,681.5 C 1460.63,680.243 1458.97,680.576 1457.5,682.5C 1456.48,682.145 1455.81,681.478 1455.5,680.5C 1456.12,680.389 1456.62,680.056 1457,679.5C 1457.17,670.024 1459.17,661.024 1463,652.5C 1462.2,658.936 1461.37,665.436 1460.5,672C 1460.7,675.349 1461.36,678.516 1462.5,681.5 Z"/></g>
<g><path style="opacity:1" fill="#e4a4a3" d="M 1506.5,655.5 C 1507.48,658.287 1507.81,661.287 1507.5,664.5C 1497.83,664.5 1488.17,664.5 1478.5,664.5C 1478.5,664.167 1478.5,663.833 1478.5,663.5C 1487.83,663.5 1497.17,663.5 1506.5,663.5C 1506.5,660.833 1506.5,658.167 1506.5,655.5 Z"/></g>
<g><path style="opacity:1" fill="#fdfaf9" d="M 1680.5,663.5 C 1698.87,670.236 1704.87,682.902 1698.5,701.5C 1693.93,709.121 1687.27,713.788 1678.5,715.5C 1666.58,716.535 1657.25,712.202 1650.5,702.5C 1646.55,693.801 1646.55,685.134 1650.5,676.5C 1657.6,665.787 1667.6,661.453 1680.5,663.5 Z"/></g>
<g><path style="opacity:1" fill="#fdfbf9" d="M 1614.5,664.5 C 1615.17,664.5 1615.83,664.5 1616.5,664.5C 1618.31,665.836 1619.81,667.503 1621,669.5C 1621.68,673.221 1621.51,676.888 1620.5,680.5C 1618.55,683.127 1615.88,684.46 1612.5,684.5C 1608.17,684.5 1603.83,684.5 1599.5,684.5C 1599.5,677.833 1599.5,671.167 1599.5,664.5C 1604.5,664.5 1609.5,664.5 1614.5,664.5 Z"/></g>
<g><path style="opacity:1" fill="#a03631" d="M 1625.5,660.5 C 1630,663.979 1632,668.646 1631.5,674.5C 1631.97,679.78 1630.3,684.114 1626.5,687.5C 1626.28,685.319 1627.12,683.653 1629,682.5C 1629.67,677.833 1629.67,673.167 1629,668.5C 1627.89,670.037 1626.39,670.703 1624.5,670.5C 1625.43,674.965 1624.09,678.298 1620.5,680.5C 1621.51,676.888 1621.68,673.221 1621,669.5C 1619.81,667.503 1618.31,665.836 1616.5,664.5C 1619.81,664.308 1622.31,665.641 1624,668.5C 1626.72,666.275 1627.22,663.608 1625.5,660.5 Z"/></g>
<g><path style="opacity:1" fill="#9f3834" d="M 1686.5,656.5 C 1684.27,656.38 1682.1,656.713 1680,657.5C 1676.03,655.553 1671.87,655.053 1667.5,656C 1662.73,658.631 1657.56,661.131 1652,663.5C 1651.73,665.59 1652.73,666.924 1655,667.5C 1663.08,662.753 1671.58,661.42 1680.5,663.5C 1667.6,661.453 1657.6,665.787 1650.5,676.5C 1651.17,673.833 1651.83,671.167 1652.5,668.5C 1650.86,668.52 1649.52,667.853 1648.5,666.5C 1639.91,674.658 1637.08,684.658 1640,696.5C 1640.97,703.438 1644.3,708.772 1650,712.5C 1650.33,712.167 1650.67,711.833 1651,711.5C 1652.04,714.384 1653.87,715.05 1656.5,713.5C 1655.05,712.15 1654.38,710.484 1654.5,708.5C 1650.93,708.241 1649.6,706.241 1650.5,702.5C 1657.25,712.202 1666.58,716.535 1678.5,715.5C 1672.68,716.328 1666.68,716.828 1660.5,717C 1659.24,717.417 1658.58,718.25 1658.5,719.5C 1656.83,719.5 1655.17,719.5 1653.5,719.5C 1638.42,707.197 1634.26,691.864 1641,673.5C 1652.1,656.638 1667.26,650.971 1686.5,656.5 Z"/></g>
<g><path style="opacity:1" fill="#a72921" d="M 1360.5,675.5 C 1360.34,676.873 1360.51,678.207 1361,679.5C 1362.61,680.147 1364.11,680.98 1365.5,682C 1363.86,683.434 1362.86,685.267 1362.5,687.5C 1362.83,687.833 1363.17,688.167 1363.5,688.5C 1364.15,686.851 1365.15,685.518 1366.5,684.5C 1367.52,685.853 1368.86,686.52 1370.5,686.5C 1370.5,697.5 1370.5,708.5 1370.5,719.5C 1354.17,719.5 1337.83,719.5 1321.5,719.5C 1321.17,702.154 1321.5,684.821 1322.5,667.5C 1327.7,668.143 1332.87,668.81 1338,669.5C 1341.08,668.286 1344.08,668.619 1347,670.5C 1352.59,667.712 1356.09,669.379 1357.5,675.5C 1358.5,675.5 1359.5,675.5 1360.5,675.5 Z"/></g>
<g><path style="opacity:1" fill="#efbcb8" d="M 1614.5,664.5 C 1609.5,664.5 1604.5,664.5 1599.5,664.5C 1599.5,671.167 1599.5,677.833 1599.5,684.5C 1603.83,684.5 1608.17,684.5 1612.5,684.5C 1608.03,685.486 1603.36,685.819 1598.5,685.5C 1598.5,678.167 1598.5,670.833 1598.5,663.5C 1604.03,663.179 1609.36,663.512 1614.5,664.5 Z"/></g>
<g><path style="opacity:1" fill="#a71c1d" d="M 1396.5,700.5 C 1393.54,701.467 1391.87,703.467 1391.5,706.5C 1389.17,706.5 1386.83,706.5 1384.5,706.5C 1384.95,703.99 1384.28,701.99 1382.5,700.5C 1382.5,700.167 1382.5,699.833 1382.5,699.5C 1381.29,694.748 1379.29,690.414 1376.5,686.5C 1378.77,685.277 1379.94,683.277 1380,680.5C 1381.64,678.19 1383.8,676.69 1386.5,676C 1387.25,675.329 1387.59,674.496 1387.5,673.5C 1391.14,672.727 1394.81,672.06 1398.5,671.5C 1403.14,670.603 1407.81,670.436 1412.5,671C 1414.99,672.325 1416.16,674.491 1416,677.5C 1417.16,677.998 1417.99,678.831 1418.5,680C 1417.24,683.594 1414.91,686.261 1411.5,688C 1417.37,697.584 1415.7,698.918 1406.5,692C 1405.06,691.219 1403.72,691.386 1402.5,692.5C 1403.53,692.554 1404.7,692.888 1406,693.5C 1407.12,695.42 1407.96,697.42 1408.5,699.5C 1405.65,699.364 1402.82,699.031 1400,698.5C 1398.32,698.608 1397.15,699.275 1396.5,700.5 Z"/></g>
<g><path style="opacity:1" fill="#9b3a37" d="M 1521.5,664.5 C 1524.06,665.543 1526.22,667.21 1528,669.5C 1529.35,672.196 1531.18,674.53 1533.5,676.5C 1534.43,677.689 1534.76,679.022 1534.5,680.5C 1530.18,675.206 1525.84,669.873 1521.5,664.5 Z"/></g>
<g><path style="opacity:1" fill="#a33027" d="M 1802.5,663.5 C 1802.5,682.167 1802.5,700.833 1802.5,719.5C 1799.17,719.5 1795.83,719.5 1792.5,719.5C 1792.5,700.833 1792.5,682.167 1792.5,663.5C 1785.68,662.671 1778.68,662.171 1771.5,662C 1770.59,660.301 1770.26,658.467 1770.5,656.5C 1788.5,656.5 1806.5,656.5 1824.5,656.5C 1824.5,658.5 1824.5,660.5 1824.5,662.5C 1816.98,662.175 1809.65,662.508 1802.5,663.5 Z"/></g>
<g><path style="opacity:1" fill="#9b312a" d="M 1616.5,664.5 C 1615.83,664.5 1615.17,664.5 1614.5,664.5C 1609.36,663.512 1604.03,663.179 1598.5,663.5C 1598.5,670.833 1598.5,678.167 1598.5,685.5C 1603.36,685.819 1608.03,685.486 1612.5,684.5C 1615.88,684.46 1618.55,683.127 1620.5,680.5C 1620.13,684.043 1618.13,686.21 1614.5,687C 1608.78,687.211 1603.12,687.711 1597.5,688.5C 1596.2,679.804 1596.2,671.137 1597.5,662.5C 1603.14,661.337 1608.8,661.17 1614.5,662C 1615.76,662.417 1616.42,663.25 1616.5,664.5 Z"/></g>
<g><path style="opacity:1" fill="#f5d8d8" d="M 1426.5,679.5 C 1425.84,677.958 1425.17,676.291 1424.5,674.5C 1423.63,678.204 1423.97,681.871 1425.5,685.5C 1424.42,688.138 1423.08,690.471 1421.5,692.5C 1422.52,689.128 1422.52,685.794 1421.5,682.5C 1423.24,679.001 1422.57,676.001 1419.5,673.5C 1426.56,669.552 1428.89,671.552 1426.5,679.5 Z"/></g>
<g><path style="opacity:1" fill="#a51d1e" d="M 1461.5,693.5 C 1462.43,696.37 1464.1,698.704 1466.5,700.5C 1466.5,701.5 1466.5,702.5 1466.5,703.5C 1466.17,704.5 1465.5,705.167 1464.5,705.5C 1459.13,705.958 1453.97,705.291 1449,703.5C 1448.66,700.317 1450.16,698.317 1453.5,697.5C 1454.45,695.955 1454.79,694.288 1454.5,692.5C 1452.5,692.5 1450.5,692.5 1448.5,692.5C 1448.65,691.448 1448.48,690.448 1448,689.5C 1445.86,688.521 1444.03,687.188 1442.5,685.5C 1437.71,685.201 1433.37,683.701 1429.5,681C 1427.12,672.787 1430.12,669.787 1438.5,672C 1443.46,673.818 1447.79,676.651 1451.5,680.5C 1452.39,681.325 1452.72,682.325 1452.5,683.5C 1455.17,683.5 1457.83,683.5 1460.5,683.5C 1461.21,686.786 1461.54,690.119 1461.5,693.5 Z"/></g>
<g><path style="opacity:1" fill="#8d2e2f" d="M 1387.5,673.5 C 1387.59,674.496 1387.25,675.329 1386.5,676C 1383.8,676.69 1381.64,678.19 1380,680.5C 1379.94,683.277 1378.77,685.277 1376.5,686.5C 1376.5,685.833 1376.5,685.167 1376.5,684.5C 1378.47,679.199 1382.13,675.532 1387.5,673.5 Z"/></g>
<g><path style="opacity:1" fill="#9f342e" d="M 1552.5,687.5 C 1552.17,684.689 1551.34,682.022 1550,679.5C 1549.25,680.99 1548.09,681.99 1546.5,682.5C 1539.68,680.321 1538.01,682.321 1541.5,688.5C 1541.23,690.66 1540.23,692.326 1538.5,693.5C 1539.5,694.833 1540.5,696.167 1541.5,697.5C 1542.39,696.675 1542.72,695.675 1542.5,694.5C 1544.83,694.5 1547.17,694.5 1549.5,694.5C 1549.35,693.448 1549.52,692.448 1550,691.5C 1550.5,694.146 1550.66,696.813 1550.5,699.5C 1548.85,698.521 1547.52,697.188 1546.5,695.5C 1539.43,703.227 1532.77,711.227 1526.5,719.5C 1525.83,719.5 1525.17,719.5 1524.5,719.5C 1524.5,718.167 1524.5,716.833 1524.5,715.5C 1528.62,714.534 1530.79,711.868 1531,707.5C 1531.41,707.957 1531.91,708.291 1532.5,708.5C 1533.75,706.999 1534.75,705.332 1535.5,703.5C 1536.69,702.571 1538.02,702.238 1539.5,702.5C 1539.29,699.288 1537.62,697.288 1534.5,696.5C 1536.26,693.564 1538.26,690.731 1540.5,688C 1538.37,685.561 1536.37,683.061 1534.5,680.5C 1535.58,680.539 1536.58,680.873 1537.5,681.5C 1537.83,681 1538.17,680.5 1538.5,680C 1536.85,675.905 1535.52,671.738 1534.5,667.5C 1538.48,671.813 1542.48,676.146 1546.5,680.5C 1553.66,672.506 1560.66,664.339 1567.5,656C 1571.21,655.175 1574.88,655.341 1578.5,656.5C 1569.78,666.878 1561.11,677.211 1552.5,687.5 Z"/></g>
<g><path style="opacity:1" fill="#993234" d="M 1455.5,680.5 C 1455.81,681.478 1456.48,682.145 1457.5,682.5C 1458.97,680.576 1460.63,680.243 1462.5,681.5C 1463.62,683.838 1464.62,683.505 1465.5,680.5C 1466.17,680.5 1466.83,680.5 1467.5,680.5C 1467.5,681.5 1467.5,682.5 1467.5,683.5C 1467.5,683.833 1467.5,684.167 1467.5,684.5C 1463.4,686.146 1461.4,689.146 1461.5,693.5C 1461.54,690.119 1461.21,686.786 1460.5,683.5C 1457.83,683.5 1455.17,683.5 1452.5,683.5C 1452.72,682.325 1452.39,681.325 1451.5,680.5C 1447.79,676.651 1443.46,673.818 1438.5,672C 1430.12,669.787 1427.12,672.787 1429.5,681C 1433.37,683.701 1437.71,685.201 1442.5,685.5C 1444.03,687.188 1445.86,688.521 1448,689.5C 1448.48,690.448 1448.65,691.448 1448.5,692.5C 1450.5,692.5 1452.5,692.5 1454.5,692.5C 1454.79,694.288 1454.45,695.955 1453.5,697.5C 1450.16,698.317 1448.66,700.317 1449,703.5C 1453.97,705.291 1459.13,705.958 1464.5,705.5C 1463.08,706.451 1461.41,706.784 1459.5,706.5C 1456.5,706.5 1453.5,706.5 1450.5,706.5C 1448.45,705.513 1446.78,704.18 1445.5,702.5C 1446.65,699.185 1448.99,697.018 1452.5,696C 1446.09,689.79 1438.42,685.623 1429.5,683.5C 1428.48,682.148 1427.48,680.815 1426.5,679.5C 1428.89,671.552 1426.56,669.552 1419.5,673.5C 1422.57,676.001 1423.24,679.001 1421.5,682.5C 1421.5,680.833 1421.5,679.167 1421.5,677.5C 1420.18,677.67 1419.01,677.337 1418,676.5C 1417.98,674.209 1417.82,672.042 1417.5,670C 1412.17,669.333 1406.83,669.333 1401.5,670C 1400.26,670.232 1399.26,670.732 1398.5,671.5C 1394.81,672.06 1391.14,672.727 1387.5,673.5C 1388.97,671.59 1390.97,670.424 1393.5,670C 1405.76,667.007 1418.09,666.674 1430.5,669C 1440.1,670.134 1448.43,673.967 1455.5,680.5 Z"/></g>
<g><path style="opacity:1" fill="#be7575" d="M 1478.5,684.5 C 1487.83,684.5 1497.17,684.5 1506.5,684.5C 1506.81,687.713 1506.48,690.713 1505.5,693.5C 1505.5,690.833 1505.5,688.167 1505.5,685.5C 1504.5,685.5 1503.5,685.5 1502.5,685.5C 1494.32,685.826 1486.32,685.492 1478.5,684.5 Z"/></g>
<g><path style="opacity:1" fill="#fcf8f7" d="M 1426.5,679.5 C 1427.48,680.815 1428.48,682.148 1429.5,683.5C 1438.42,685.623 1446.09,689.79 1452.5,696C 1448.99,697.018 1446.65,699.185 1445.5,702.5C 1442.17,702.215 1439.17,702.882 1436.5,704.5C 1435.63,707.112 1434.96,709.779 1434.5,712.5C 1433.53,713.635 1432.36,714.635 1431,715.5C 1430.68,713.311 1431.18,711.311 1432.5,709.5C 1433.87,707.21 1433.2,705.544 1430.5,704.5C 1425.37,704.684 1422.37,702.351 1421.5,697.5C 1421.5,695.833 1421.5,694.167 1421.5,692.5C 1423.08,690.471 1424.42,688.138 1425.5,685.5C 1423.97,681.871 1423.63,678.204 1424.5,674.5C 1425.17,676.291 1425.84,677.958 1426.5,679.5 Z"/></g>
<g><path style="opacity:1" fill="#9f2123" d="M 1421.5,682.5 C 1422.52,685.794 1422.52,689.128 1421.5,692.5C 1421.5,694.167 1421.5,695.833 1421.5,697.5C 1415.68,697.775 1410.18,699.442 1405,702.5C 1402.36,701.006 1399.53,700.339 1396.5,700.5C 1397.15,699.275 1398.32,698.608 1400,698.5C 1402.82,699.031 1405.65,699.364 1408.5,699.5C 1407.96,697.42 1407.12,695.42 1406,693.5C 1404.7,692.888 1403.53,692.554 1402.5,692.5C 1403.72,691.386 1405.06,691.219 1406.5,692C 1415.7,698.918 1417.37,697.584 1411.5,688C 1414.91,686.261 1417.24,683.594 1418.5,680C 1417.99,678.831 1417.16,677.998 1416,677.5C 1416.16,674.491 1414.99,672.325 1412.5,671C 1407.81,670.436 1403.14,670.603 1398.5,671.5C 1399.26,670.732 1400.26,670.232 1401.5,670C 1406.83,669.333 1412.17,669.333 1417.5,670C 1417.82,672.042 1417.98,674.209 1418,676.5C 1419.01,677.337 1420.18,677.67 1421.5,677.5C 1421.5,679.167 1421.5,680.833 1421.5,682.5 Z"/></g>
<g><path style="opacity:1" fill="#9e4a42" d="M 1704.5,669.5 C 1707.7,673.224 1709.86,677.557 1711,682.5C 1712.24,690.35 1711.08,697.683 1707.5,704.5C 1709.33,696.598 1709.83,688.598 1709,680.5C 1707.2,676.93 1705.7,673.263 1704.5,669.5 Z"/></g>
<g><path style="opacity:1" fill="#a42c25" d="M 1733.5,684.5 C 1733.5,684.833 1733.5,685.167 1733.5,685.5C 1738.72,686.795 1744.06,686.628 1749.5,685C 1751.45,683.266 1752.45,681.099 1752.5,678.5C 1753.12,678.389 1753.62,678.056 1754,677.5C 1754.67,674.5 1754.67,671.5 1754,668.5C 1751.33,666.508 1749.83,663.842 1749.5,660.5C 1750.32,658.889 1751.65,658.222 1753.5,658.5C 1757.17,660.167 1759.83,662.833 1761.5,666.5C 1763.78,676.589 1760.61,684.256 1752,689.5C 1751.51,691.134 1751.34,692.801 1751.5,694.5C 1752.5,694.5 1753.5,694.5 1754.5,694.5C 1754.5,695.5 1754.5,696.5 1754.5,697.5C 1755.55,697.351 1756.55,697.517 1757.5,698C 1758.71,700.375 1760.38,702.209 1762.5,703.5C 1766.33,708.489 1769.66,713.822 1772.5,719.5C 1768.83,719.5 1765.17,719.5 1761.5,719.5C 1756.92,709.412 1750.25,700.912 1741.5,694C 1738.85,693.503 1736.19,693.336 1733.5,693.5C 1733.5,702.167 1733.5,710.833 1733.5,719.5C 1730.83,719.5 1728.17,719.5 1725.5,719.5C 1725.5,698.833 1725.5,678.167 1725.5,657.5C 1735.24,657.058 1741.57,657.391 1744.5,658.5C 1744.5,659.5 1744.5,660.5 1744.5,661.5C 1740.49,661.334 1736.49,661.501 1732.5,662C 1732,662.5 1731.5,663 1731,663.5C 1730.73,670.863 1731.56,677.863 1733.5,684.5 Z"/></g>
<g><path style="opacity:1" fill="#9e4443" d="M 1751.5,678.5 C 1751.83,678.5 1752.17,678.5 1752.5,678.5C 1752.45,681.099 1751.45,683.266 1749.5,685C 1744.06,686.628 1738.72,686.795 1733.5,685.5C 1739.7,686.188 1745.36,684.855 1750.5,681.5C 1751.13,680.583 1751.46,679.583 1751.5,678.5 Z"/></g>
<g><path style="opacity:1" fill="#fce7e4" d="M 1752.5,676.5 C 1750.95,666.913 1745.28,663.246 1735.5,665.5C 1735.5,671.167 1735.5,676.833 1735.5,682.5C 1738.69,682.98 1741.52,682.314 1744,680.5C 1744.33,681.167 1744.67,681.833 1745,682.5C 1747.28,681.281 1749.44,679.948 1751.5,678.5C 1751.46,679.583 1751.13,680.583 1750.5,681.5C 1745.36,684.855 1739.7,686.188 1733.5,685.5C 1733.5,685.167 1733.5,684.833 1733.5,684.5C 1733.5,677.5 1733.5,670.5 1733.5,663.5C 1737.18,663.335 1740.85,663.501 1744.5,664C 1751.68,665.621 1754.35,669.788 1752.5,676.5 Z"/></g>
<g><path style="opacity:1" fill="#fbfcfc" d="M 1752.5,676.5 C 1752.5,677.167 1752.5,677.833 1752.5,678.5C 1752.17,678.5 1751.83,678.5 1751.5,678.5C 1749.44,679.948 1747.28,681.281 1745,682.5C 1744.67,681.833 1744.33,681.167 1744,680.5C 1741.52,682.314 1738.69,682.98 1735.5,682.5C 1735.5,676.833 1735.5,671.167 1735.5,665.5C 1745.28,663.246 1750.95,666.913 1752.5,676.5 Z"/></g>
<g><path style="opacity:1" fill="#a12c2c" d="M 1360.5,675.5 C 1364.5,678.167 1368.5,680.833 1372.5,683.5C 1372.5,695.5 1372.5,707.5 1372.5,719.5C 1371.83,719.5 1371.17,719.5 1370.5,719.5C 1370.5,708.5 1370.5,697.5 1370.5,686.5C 1368.86,686.52 1367.52,685.853 1366.5,684.5C 1365.15,685.518 1364.15,686.851 1363.5,688.5C 1363.17,688.167 1362.83,687.833 1362.5,687.5C 1362.86,685.267 1363.86,683.434 1365.5,682C 1364.11,680.98 1362.61,680.147 1361,679.5C 1360.51,678.207 1360.34,676.873 1360.5,675.5 Z"/></g>
<g><path style="opacity:1" fill="#d08682" d="M 1467.5,683.5 C 1468.5,695.322 1468.83,707.322 1468.5,719.5C 1468.17,719.5 1467.83,719.5 1467.5,719.5C 1467.82,713.974 1467.49,708.64 1466.5,703.5C 1466.5,702.5 1466.5,701.5 1466.5,700.5C 1467.49,695.36 1467.82,690.026 1467.5,684.5C 1467.5,684.167 1467.5,683.833 1467.5,683.5 Z"/></g>
<g><path style="opacity:1" fill="#914644" d="M 1502.5,685.5 C 1503.5,685.5 1504.5,685.5 1505.5,685.5C 1505.5,688.167 1505.5,690.833 1505.5,693.5C 1496.5,693.5 1487.5,693.5 1478.5,693.5C 1486.32,692.671 1494.32,692.171 1502.5,692C 1505.11,689.757 1505.11,687.59 1502.5,685.5 Z"/></g>
<g><path style="opacity:1" fill="#943d36" d="M 1625.5,688.5 C 1621.5,691.724 1616.84,693.39 1611.5,693.5C 1607.17,693.5 1602.83,693.5 1598.5,693.5C 1598.5,702.167 1598.5,710.833 1598.5,719.5C 1598.17,719.5 1597.83,719.5 1597.5,719.5C 1597.5,710.5 1597.5,701.5 1597.5,692.5C 1607.22,693.236 1616.55,691.903 1625.5,688.5 Z"/></g>
<g><path style="opacity:1" fill="#a32c24" d="M 1686.5,656.5 C 1692.78,660.32 1698.78,664.654 1704.5,669.5C 1705.7,673.263 1707.2,676.93 1709,680.5C 1709.83,688.598 1709.33,696.598 1707.5,704.5C 1706.5,704.5 1705.5,704.5 1704.5,704.5C 1704.82,708.172 1703.15,709.838 1699.5,709.5C 1699.5,710.833 1699.5,712.167 1699.5,713.5C 1697.03,713.799 1694.86,714.799 1693,716.5C 1691.83,715.991 1691,715.158 1690.5,714C 1691.93,713.535 1693.1,712.701 1694,711.5C 1695.37,708.009 1696.87,704.675 1698.5,701.5C 1704.87,682.902 1698.87,670.236 1680.5,663.5C 1671.58,661.42 1663.08,662.753 1655,667.5C 1652.73,666.924 1651.73,665.59 1652,663.5C 1657.56,661.131 1662.73,658.631 1667.5,656C 1671.87,655.053 1676.03,655.553 1680,657.5C 1682.1,656.713 1684.27,656.38 1686.5,656.5 Z"/></g>
<g><path style="opacity:1" fill="#a03c3a" d="M 1376.5,686.5 C 1379.29,690.414 1381.29,694.748 1382.5,699.5C 1382.17,699.5 1381.83,699.5 1381.5,699.5C 1379.82,696.975 1378.32,694.309 1377,691.5C 1376.5,694.482 1376.34,697.482 1376.5,700.5C 1377.96,704.954 1377.63,709.287 1375.5,713.5C 1374.33,705.187 1374.17,696.853 1375,688.5C 1375.28,687.584 1375.78,686.918 1376.5,686.5 Z"/></g>
<g><path style="opacity:1" fill="#a42c27" d="M 1552.5,687.5 C 1560.86,698.185 1569.19,708.852 1577.5,719.5C 1573.83,719.5 1570.17,719.5 1566.5,719.5C 1560.79,713.122 1555.45,706.455 1550.5,699.5C 1550.66,696.813 1550.5,694.146 1550,691.5C 1549.52,692.448 1549.35,693.448 1549.5,694.5C 1547.17,694.5 1544.83,694.5 1542.5,694.5C 1542.72,695.675 1542.39,696.675 1541.5,697.5C 1540.5,696.167 1539.5,694.833 1538.5,693.5C 1540.23,692.326 1541.23,690.66 1541.5,688.5C 1538.01,682.321 1539.68,680.321 1546.5,682.5C 1548.09,681.99 1549.25,680.99 1550,679.5C 1551.34,682.022 1552.17,684.689 1552.5,687.5 Z"/></g>
<g><path style="opacity:1" fill="#e49795" d="M 1372.5,683.5 C 1373.71,684.234 1375.04,684.567 1376.5,684.5C 1376.5,685.167 1376.5,685.833 1376.5,686.5C 1375.78,686.918 1375.28,687.584 1375,688.5C 1374.17,696.853 1374.33,705.187 1375.5,713.5C 1377.63,709.287 1377.96,704.954 1376.5,700.5C 1377.12,700.611 1377.62,700.944 1378,701.5C 1378.5,703.81 1378.66,706.143 1378.5,708.5C 1378.38,711.105 1377.38,713.105 1375.5,714.5C 1373.74,715.552 1373.08,717.219 1373.5,719.5C 1373.17,719.5 1372.83,719.5 1372.5,719.5C 1372.5,707.5 1372.5,695.5 1372.5,683.5 Z"/></g>
<g><path style="opacity:1" fill="#f2bbbc" d="M 1467.5,684.5 C 1467.82,690.026 1467.49,695.36 1466.5,700.5C 1464.1,698.704 1462.43,696.37 1461.5,693.5C 1461.4,689.146 1463.4,686.146 1467.5,684.5 Z"/></g>
<g><path style="opacity:1" fill="#9d413d" d="M 1761.5,666.5 C 1765.56,677.149 1762.56,685.315 1752.5,691C 1756.83,694.484 1760.16,698.651 1762.5,703.5C 1760.38,702.209 1758.71,700.375 1757.5,698C 1756.55,697.517 1755.55,697.351 1754.5,697.5C 1754.5,696.5 1754.5,695.5 1754.5,694.5C 1753.5,694.5 1752.5,694.5 1751.5,694.5C 1751.34,692.801 1751.51,691.134 1752,689.5C 1760.61,684.256 1763.78,676.589 1761.5,666.5 Z"/></g>
<g><path style="opacity:1" fill="#a32b22" d="M 1650.5,676.5 C 1646.55,685.134 1646.55,693.801 1650.5,702.5C 1649.6,706.241 1650.93,708.241 1654.5,708.5C 1654.38,710.484 1655.05,712.15 1656.5,713.5C 1653.87,715.05 1652.04,714.384 1651,711.5C 1650.67,711.833 1650.33,712.167 1650,712.5C 1644.3,708.772 1640.97,703.438 1640,696.5C 1637.08,684.658 1639.91,674.658 1648.5,666.5C 1649.52,667.853 1650.86,668.52 1652.5,668.5C 1651.83,671.167 1651.17,673.833 1650.5,676.5 Z"/></g>
<g><path style="opacity:1" fill="#efbdb9" d="M 1381.5,699.5 C 1380.88,699.611 1380.38,699.944 1380,700.5C 1379.82,703.365 1379.32,706.031 1378.5,708.5C 1378.66,706.143 1378.5,703.81 1378,701.5C 1377.62,700.944 1377.12,700.611 1376.5,700.5C 1376.34,697.482 1376.5,694.482 1377,691.5C 1378.32,694.309 1379.82,696.975 1381.5,699.5 Z"/></g>
<g><path style="opacity:1" fill="#fcf8f6" d="M 1550.5,699.5 C 1555.45,706.455 1560.79,713.122 1566.5,719.5C 1553.17,719.5 1539.83,719.5 1526.5,719.5C 1532.77,711.227 1539.43,703.227 1546.5,695.5C 1547.52,697.188 1548.85,698.521 1550.5,699.5 Z"/></g>
<g><path style="opacity:1" fill="#edbebb" d="M 1611.5,693.5 C 1607.7,694.483 1603.7,694.817 1599.5,694.5C 1599.5,702.833 1599.5,711.167 1599.5,719.5C 1599.17,719.5 1598.83,719.5 1598.5,719.5C 1598.5,710.833 1598.5,702.167 1598.5,693.5C 1602.83,693.5 1607.17,693.5 1611.5,693.5 Z"/></g>
<g><path style="opacity:1" fill="#9d4341" d="M 1534.5,696.5 C 1531.63,701.554 1528.13,706.22 1524,710.5C 1522.55,712.464 1520.72,713.797 1518.5,714.5C 1523.49,708.177 1528.82,702.177 1534.5,696.5 Z"/></g>
<g><path style="opacity:1" fill="#e5c1bf" d="M 1421.5,697.5 C 1422.37,702.351 1425.37,704.684 1430.5,704.5C 1430.4,706.553 1431.07,708.22 1432.5,709.5C 1431.18,711.311 1430.68,713.311 1431,715.5C 1432.36,714.635 1433.53,713.635 1434.5,712.5C 1434.5,714.167 1434.5,715.833 1434.5,717.5C 1436.86,717.663 1439.19,717.497 1441.5,717C 1439.95,715.786 1438.78,714.286 1438,712.5C 1437.82,709.635 1437.32,706.969 1436.5,704.5C 1439.17,702.882 1442.17,702.215 1445.5,702.5C 1446.78,704.18 1448.45,705.513 1450.5,706.5C 1449.5,710.008 1447.83,713.174 1445.5,716C 1449.23,717.788 1453.06,717.954 1457,716.5C 1457.94,713.176 1458.78,709.843 1459.5,706.5C 1461.41,706.784 1463.08,706.451 1464.5,705.5C 1465.5,705.167 1466.17,704.5 1466.5,703.5C 1467.49,708.64 1467.82,713.974 1467.5,719.5C 1436.17,719.5 1404.83,719.5 1373.5,719.5C 1373.08,717.219 1373.74,715.552 1375.5,714.5C 1374.77,715.708 1374.43,717.041 1374.5,718.5C 1377.19,718.664 1379.85,718.497 1382.5,718C 1383.34,716.989 1383.67,715.822 1383.5,714.5C 1384.77,718.254 1387.44,719.42 1391.5,718C 1389.08,715.997 1388.24,713.497 1389,710.5C 1390.04,715.888 1393.21,718.055 1398.5,717C 1395.07,715.471 1393.4,712.804 1393.5,709C 1394.23,706.093 1395.23,703.26 1396.5,700.5C 1399.53,700.339 1402.36,701.006 1405,702.5C 1410.18,699.442 1415.68,697.775 1421.5,697.5 Z"/></g>
<g><path style="opacity:1" fill="#fbfafa" d="M 1761.5,719.5 C 1752.17,719.5 1742.83,719.5 1733.5,719.5C 1733.5,710.833 1733.5,702.167 1733.5,693.5C 1736.19,693.336 1738.85,693.503 1741.5,694C 1750.25,700.912 1756.92,709.412 1761.5,719.5 Z"/></g>
<g><path style="opacity:1" fill="#9f2b2d" d="M 1382.5,700.5 C 1384.28,701.99 1384.95,703.99 1384.5,706.5C 1386.83,706.5 1389.17,706.5 1391.5,706.5C 1391.87,703.467 1393.54,701.467 1396.5,700.5C 1395.23,703.26 1394.23,706.093 1393.5,709C 1393.4,712.804 1395.07,715.471 1398.5,717C 1393.21,718.055 1390.04,715.888 1389,710.5C 1388.24,713.497 1389.08,715.997 1391.5,718C 1387.44,719.42 1384.77,718.254 1383.5,714.5C 1383.33,709.819 1383,705.152 1382.5,700.5 Z"/></g>
<g><path style="opacity:1" fill="#9a6062" d="M 1430.5,704.5 C 1433.2,705.544 1433.87,707.21 1432.5,709.5C 1431.07,708.22 1430.4,706.553 1430.5,704.5 Z"/></g>
<g><path style="opacity:1" fill="#a32b23" d="M 1534.5,696.5 C 1537.62,697.288 1539.29,699.288 1539.5,702.5C 1538.02,702.238 1536.69,702.571 1535.5,703.5C 1534.75,705.332 1533.75,706.999 1532.5,708.5C 1531.91,708.291 1531.41,707.957 1531,707.5C 1530.79,711.868 1528.62,714.534 1524.5,715.5C 1524.5,716.833 1524.5,718.167 1524.5,719.5C 1521.17,719.5 1517.83,719.5 1514.5,719.5C 1515.83,717.833 1517.17,716.167 1518.5,714.5C 1520.72,713.797 1522.55,712.464 1524,710.5C 1528.13,706.22 1531.63,701.554 1534.5,696.5 Z"/></g>
<g><path style="opacity:1" fill="#fcf7f6" d="M 1450.5,706.5 C 1453.5,706.5 1456.5,706.5 1459.5,706.5C 1458.78,709.843 1457.94,713.176 1457,716.5C 1453.06,717.954 1449.23,717.788 1445.5,716C 1447.83,713.174 1449.5,710.008 1450.5,706.5 Z"/></g>
<g><path style="opacity:1" fill="#c47879" d="M 1478.5,693.5 C 1478.5,700.5 1478.5,707.5 1478.5,714.5C 1488.5,714.5 1498.5,714.5 1508.5,714.5C 1508.5,716.167 1508.5,717.833 1508.5,719.5C 1508.17,719.5 1507.83,719.5 1507.5,719.5C 1507.5,718.167 1507.5,716.833 1507.5,715.5C 1497.5,715.5 1487.5,715.5 1477.5,715.5C 1477.18,707.981 1477.51,700.648 1478.5,693.5 Z"/></g>
<g><path style="opacity:1" fill="#a23833" d="M 1698.5,701.5 C 1696.87,704.675 1695.37,708.009 1694,711.5C 1693.1,712.701 1691.93,713.535 1690.5,714C 1691,715.158 1691.83,715.991 1693,716.5C 1694.86,714.799 1697.03,713.799 1699.5,713.5C 1699.5,712.167 1699.5,710.833 1699.5,709.5C 1703.15,709.838 1704.82,708.172 1704.5,704.5C 1705.5,704.5 1706.5,704.5 1707.5,704.5C 1704.25,710.417 1699.92,715.417 1694.5,719.5C 1693.17,719.5 1691.83,719.5 1690.5,719.5C 1690.03,717.289 1689.03,715.289 1687.5,713.5C 1684.79,715.26 1681.79,715.927 1678.5,715.5C 1687.27,713.788 1693.93,709.121 1698.5,701.5 Z"/></g>
<g><path style="opacity:1" fill="#f9efed" d="M 1381.5,699.5 C 1381.83,699.5 1382.17,699.5 1382.5,699.5C 1382.5,699.833 1382.5,700.167 1382.5,700.5C 1383,705.152 1383.33,709.819 1383.5,714.5C 1383.67,715.822 1383.34,716.989 1382.5,718C 1379.85,718.497 1377.19,718.664 1374.5,718.5C 1374.43,717.041 1374.77,715.708 1375.5,714.5C 1377.38,713.105 1378.38,711.105 1378.5,708.5C 1379.32,706.031 1379.82,703.365 1380,700.5C 1380.38,699.944 1380.88,699.611 1381.5,699.5 Z"/></g>
<g><path style="opacity:1" fill="#983439" d="M 1436.5,704.5 C 1437.32,706.969 1437.82,709.635 1438,712.5C 1438.78,714.286 1439.95,715.786 1441.5,717C 1439.19,717.497 1436.86,717.663 1434.5,717.5C 1434.5,715.833 1434.5,714.167 1434.5,712.5C 1434.96,709.779 1435.63,707.112 1436.5,704.5 Z"/></g>
<g><path style="opacity:1" fill="#a42a23" d="M 1690.5,719.5 C 1679.83,719.5 1669.17,719.5 1658.5,719.5C 1658.58,718.25 1659.24,717.417 1660.5,717C 1666.68,716.828 1672.68,716.328 1678.5,715.5C 1681.79,715.927 1684.79,715.26 1687.5,713.5C 1689.03,715.289 1690.03,717.289 1690.5,719.5 Z"/></g>
</svg>
