<?xml version="1.0" encoding="UTF-8"?>
<!DOCTYPE svg PUBLIC "-//W3C//DTD SVG 1.1//EN" "http://www.w3.org/Graphics/SVG/1.1/DTD/svg11.dtd">
<svg xmlns="http://www.w3.org/2000/svg" version="1.1" width="185px" height="62px" style="shape-rendering:geometricPrecision; text-rendering:geometricPrecision; image-rendering:optimizeQuality; fill-rule:evenodd; clip-rule:evenodd" xmlns:xlink="http://www.w3.org/1999/xlink">
<g><path style="opacity:0.563" fill="#fdf6f6" d="M 75.5,-0.5 C 86.5,-0.5 97.5,-0.5 108.5,-0.5C 120.89,1.35699 132.557,5.52365 143.5,12C 153.836,19.8056 156.336,29.6389 151,41.5C 145.178,48.3213 138.011,53.1547 129.5,56C 122.792,58.1657 116.126,59.999 109.5,61.5C 97.8333,61.5 86.1667,61.5 74.5,61.5C 62.4903,59.4384 51.157,55.2717 40.5,49C 30.6069,42.0299 27.7735,32.8632 32,21.5C 37.593,13.4484 45.093,7.94836 54.5,5C 61.514,2.70496 68.514,0.871627 75.5,-0.5 Z"/></g>
<g><path style="opacity:1" fill="#e37479" d="M 87.5,0.5 C 93.857,0.476296 100.19,0.809629 106.5,1.5C 100.118,2.6785 93.7843,2.34517 87.5,0.5 Z"/></g>
<g><path style="opacity:1" fill="#e27074" d="M 82.5,1.5 C 83.8734,1.34332 85.2068,1.50999 86.5,2C 82.9748,2.17871 79.6414,2.67871 76.5,3.5C 74.2646,3.79472 72.2646,3.46138 70.5,2.5C 74.4517,1.72791 78.4517,1.39458 82.5,1.5 Z"/></g>
<g><path style="opacity:1" fill="#f1b9bb" d="M 82.5,1.5 C 83.9187,0.548855 85.5853,0.215521 87.5,0.5C 93.7843,2.34517 100.118,2.6785 106.5,1.5C 108.099,1.23219 109.432,1.56552 110.5,2.5C 109.761,2.36899 109.094,2.53566 108.5,3C 110.167,3.33333 111.833,3.66667 113.5,4C 112.906,4.46434 112.239,4.63101 111.5,4.5C 99.8564,3.63877 88.1897,3.30544 76.5,3.5C 79.6414,2.67871 82.9748,2.17871 86.5,2C 85.2068,1.50999 83.8734,1.34332 82.5,1.5 Z"/></g>
<g><path style="opacity:1" fill="#d22532" d="M 76.5,3.5 C 88.1897,3.30544 99.8564,3.63877 111.5,4.5C 112.209,5.40397 113.209,5.73731 114.5,5.5C 126.645,7.15661 137.145,12.1566 146,20.5C 152.478,31.7309 149.978,40.5642 138.5,47C 134.075,49.2126 129.741,51.3793 125.5,53.5C 124.5,53.5 123.5,53.5 122.5,53.5C 122.5,52.5 122.5,51.5 122.5,50.5C 131.175,44.8148 135.342,36.8148 135,26.5C 134.167,25.6667 133.333,24.8333 132.5,24C 126.843,23.5006 121.176,23.3339 115.5,23.5C 115.815,19.6286 115.482,15.9619 114.5,12.5C 113.754,9.44476 111.754,7.7781 108.5,7.5C 104.364,9.0695 100.698,11.4028 97.5,14.5C 94.1851,6.66789 89.1851,5.50122 82.5,11C 81,12.5 79.5,14 78,15.5C 75.7663,7.34102 70.933,5.34102 63.5,9.5C 63.1667,8.83333 62.8333,8.16667 62.5,7.5C 63.5,6.83333 64.5,6.16667 65.5,5.5C 69.3875,5.35407 73.0542,4.6874 76.5,3.5 Z"/></g>
<g><path style="opacity:1" fill="#e26d71" d="M 110.5,2.5 C 113.206,2.5751 115.873,2.90843 118.5,3.5C 117.167,4.16667 115.833,4.83333 114.5,5.5C 113.209,5.73731 112.209,5.40397 111.5,4.5C 112.239,4.63101 112.906,4.46434 113.5,4C 111.833,3.66667 110.167,3.33333 108.5,3C 109.094,2.53566 109.761,2.36899 110.5,2.5 Z"/></g>
<g><path style="opacity:1" fill="#e67c7e" d="M 68.5,3.5 C 67.5,4.16667 66.5,4.83333 65.5,5.5C 62.8478,5.40953 60.5145,6.07619 58.5,7.5C 55.9949,9.01137 53.3283,10.3447 50.5,11.5C 50.1583,10.6618 49.4916,10.3284 48.5,10.5C 54.5286,6.60021 61.1953,4.26688 68.5,3.5 Z"/></g>
<g><path style="opacity:1" fill="#f2b9bb" d="M 70.5,2.5 C 72.2646,3.46138 74.2646,3.79472 76.5,3.5C 73.0542,4.6874 69.3875,5.35407 65.5,5.5C 66.5,4.83333 67.5,4.16667 68.5,3.5C 68.8417,2.66175 69.5084,2.32842 70.5,2.5 Z"/></g>
<g><path style="opacity:1" fill="#df6166" d="M 119.5,4.5 C 123.915,4.8606 127.915,6.19393 131.5,8.5C 127.216,7.73865 123.216,6.40532 119.5,4.5 Z"/></g>
<g><path style="opacity:1" fill="#f4c6c7" d="M 65.5,5.5 C 64.5,6.16667 63.5,6.83333 62.5,7.5C 61.1667,7.5 59.8333,7.5 58.5,7.5C 60.5145,6.07619 62.8478,5.40953 65.5,5.5 Z"/></g>
<g><path style="opacity:1" fill="#d22532" d="M 58.5,7.5 C 59.8333,7.5 61.1667,7.5 62.5,7.5C 62.8333,8.16667 63.1667,8.83333 63.5,9.5C 52.653,14.8338 47.4863,23.5005 48,35.5C 49.1094,37.8147 50.9427,39.3147 53.5,40C 57.2255,40.7599 60.8922,40.5932 64.5,39.5C 65.3253,43.1224 65.8253,46.789 66,50.5C 66.7202,52.0557 67.8868,53.0557 69.5,53.5C 69.8333,54.1667 70.1667,54.8333 70.5,55.5C 57.4439,54.0547 46.2772,48.7214 37,39.5C 32.5855,30.7948 34.0855,23.2948 41.5,17C 44.1943,14.6535 47.1943,12.8202 50.5,11.5C 53.3283,10.3447 55.9949,9.01137 58.5,7.5 Z"/></g>
<g><path style="opacity:1" fill="#fcf4f4" d="M 114.5,12.5 C 114.5,16.5 114.5,20.5 114.5,24.5C 112.958,25.3007 111.292,25.634 109.5,25.5C 107.901,25.2322 106.568,25.5655 105.5,26.5C 104.5,26.5 103.5,26.5 102.5,26.5C 101.833,26.5 101.167,26.5 100.5,26.5C 101.568,25.5655 102.901,25.2322 104.5,25.5C 104.665,22.1501 104.498,18.8168 104,15.5C 103.586,15.0426 103.086,14.7093 102.5,14.5C 99.2766,16.3718 97.2766,19.0385 96.5,22.5C 96.5854,24.3328 97.2521,25.6661 98.5,26.5C 98.5,26.8333 98.5,27.1667 98.5,27.5C 96.8333,27.5 95.1667,27.5 93.5,27.5C 91.5853,27.2155 89.9187,27.5489 88.5,28.5C 87.5,28.5 86.5,28.5 85.5,28.5C 85.8266,23.7863 85.4933,19.1196 84.5,14.5C 82.4235,16.2877 80.2568,17.9544 78,19.5C 77.502,22.4816 77.3354,25.4816 77.5,28.5C 79.5,28.5 81.5,28.5 83.5,28.5C 76.6339,29.6033 69.6339,30.7699 62.5,32C 59.8333,34 59.8333,36 62.5,38C 65.146,38.4974 67.8127,38.6641 70.5,38.5C 72.099,38.7678 73.4324,38.4345 74.5,37.5C 75.5,37.5 76.5,37.5 77.5,37.5C 77.6657,41.8461 77.499,46.1794 77,50.5C 75.195,53.0393 72.695,54.0393 69.5,53.5C 67.8868,53.0557 66.7202,52.0557 66,50.5C 65.8253,46.789 65.3253,43.1224 64.5,39.5C 60.8922,40.5932 57.2255,40.7599 53.5,40C 50.9427,39.3147 49.1094,37.8147 48,35.5C 47.4863,23.5005 52.653,14.8338 63.5,9.5C 70.933,5.34102 75.7663,7.34102 78,15.5C 79.5,14 81,12.5 82.5,11C 89.1851,5.50122 94.1851,6.66789 97.5,14.5C 100.698,11.4028 104.364,9.0695 108.5,7.5C 111.754,7.7781 113.754,9.44476 114.5,12.5 Z"/></g>
<g><path style="opacity:1" fill="#f0a5a4" d="M 118.5,3.5 C 119.167,3.5 119.5,3.83333 119.5,4.5C 123.216,6.40532 127.216,7.73865 131.5,8.5C 141.128,11.3857 147.961,17.3857 152,26.5C 152.653,35.6937 149.153,42.8603 141.5,48C 138.264,49.7862 134.93,51.2862 131.5,52.5C 129.5,52.8333 127.5,53.1667 125.5,53.5C 129.741,51.3793 134.075,49.2126 138.5,47C 149.978,40.5642 152.478,31.7309 146,20.5C 137.145,12.1566 126.645,7.15661 114.5,5.5C 115.833,4.83333 117.167,4.16667 118.5,3.5 Z"/></g>
<g><path style="opacity:1" fill="#d32934" d="M 61.5,12.5 C 62.8221,12.33 63.9887,12.6634 65,13.5C 65.4994,19.1569 65.6661,24.8236 65.5,30.5C 61.8542,31.2834 58.1875,31.4501 54.5,31C 52.5904,30.5917 51.5904,29.4251 51.5,27.5C 53.292,21.3922 56.6253,16.3922 61.5,12.5 Z"/></g>
<g><path style="opacity:1" fill="#d22733" d="M 85.5,28.5 C 84.8333,28.5 84.1667,28.5 83.5,28.5C 81.5,28.5 79.5,28.5 77.5,28.5C 77.3354,25.4816 77.502,22.4816 78,19.5C 80.2568,17.9544 82.4235,16.2877 84.5,14.5C 85.4933,19.1196 85.8266,23.7863 85.5,28.5 Z"/></g>
<g><path style="opacity:1" fill="#d63940" d="M 100.5,26.5 C 99.8333,26.5 99.1667,26.5 98.5,26.5C 97.2521,25.6661 96.5854,24.3328 96.5,22.5C 97.2766,19.0385 99.2766,16.3718 102.5,14.5C 103.086,14.7093 103.586,15.0426 104,15.5C 104.498,18.8168 104.665,22.1501 104.5,25.5C 102.901,25.2322 101.568,25.5655 100.5,26.5 Z"/></g>
<g><path style="opacity:1" fill="#a8acc9" d="M 88.5,28.5 C 89.9187,27.5489 91.5853,27.2155 93.5,27.5C 94.1667,28.1667 94.8333,28.8333 95.5,29.5C 95.9724,31.5313 96.9724,33.1979 98.5,34.5C 98.5,34.8333 98.5,35.1667 98.5,35.5C 97.8333,35.5 97.1667,35.5 96.5,35.5C 95.8333,35.5 95.1667,35.5 94.5,35.5C 91.5995,34.0723 90.9329,31.9056 92.5,29C 91.2068,28.51 89.8734,28.3433 88.5,28.5 Z"/></g>
<g><path style="opacity:1" fill="#343d82" d="M 93.5,27.5 C 95.1667,27.5 96.8333,27.5 98.5,27.5C 99.5,27.5 100.5,27.5 101.5,27.5C 101.775,32.2203 100.941,32.5537 99,28.5C 98.9717,30.7866 99.805,32.7866 101.5,34.5C 100.5,34.5 99.5,34.5 98.5,34.5C 96.9724,33.1979 95.9724,31.5313 95.5,29.5C 94.8333,28.8333 94.1667,28.1667 93.5,27.5 Z"/></g>
<g><path style="opacity:1" fill="#aaadcb" d="M 105.5,26.5 C 106.568,25.5655 107.901,25.2322 109.5,25.5C 109.918,26.2216 110.584,26.7216 111.5,27C 110.751,28.7337 110.251,30.567 110,32.5C 109.684,29.5043 108.184,27.5043 105.5,26.5 Z"/></g>
<g><path style="opacity:1" fill="#313a80" d="M 114.5,24.5 C 121.749,23.7173 123.749,26.384 120.5,32.5C 119.833,32.5 119.167,32.5 118.5,32.5C 117.022,32.762 115.689,32.4287 114.5,31.5C 115.98,30.8869 117.313,30.5536 118.5,30.5C 115.186,25.1314 113.186,25.7981 112.5,32.5C 110.591,33.3482 108.591,33.6816 106.5,33.5C 106.799,31.396 106.466,29.396 105.5,27.5C 104.306,29.5156 104.306,31.5156 105.5,33.5C 104.5,33.5 103.5,33.5 102.5,33.5C 103.067,31.0314 103.067,28.698 102.5,26.5C 103.5,26.5 104.5,26.5 105.5,26.5C 108.184,27.5043 109.684,29.5043 110,32.5C 110.251,30.567 110.751,28.7337 111.5,27C 110.584,26.7216 109.918,26.2216 109.5,25.5C 111.292,25.634 112.958,25.3007 114.5,24.5 Z"/></g>
<g><path style="opacity:1" fill="#8b90b8" d="M 106.5,33.5 C 106.167,33.5 105.833,33.5 105.5,33.5C 104.306,31.5156 104.306,29.5156 105.5,27.5C 106.466,29.396 106.799,31.396 106.5,33.5 Z"/></g>
<g><path style="opacity:1" fill="#3a4285" d="M 95.5,29.5 C 95.762,30.9778 95.4287,32.3112 94.5,33.5C 91.8061,31.5365 92.1394,30.2032 95.5,29.5 Z"/></g>
<g><path style="opacity:1" fill="#878bb5" d="M 98.5,27.5 C 98.5,27.1667 98.5,26.8333 98.5,26.5C 99.1667,26.5 99.8333,26.5 100.5,26.5C 101.167,26.5 101.833,26.5 102.5,26.5C 103.067,28.698 103.067,31.0314 102.5,33.5C 103.5,33.5 104.5,33.5 105.5,33.5C 104.432,34.4345 103.099,34.7678 101.5,34.5C 99.805,32.7866 98.9717,30.7866 99,28.5C 100.941,32.5537 101.775,32.2203 101.5,27.5C 100.5,27.5 99.5,27.5 98.5,27.5 Z"/></g>
<g><path style="opacity:1" fill="#faf3f4" d="M 114.5,12.5 C 115.482,15.9619 115.815,19.6286 115.5,23.5C 121.176,23.3339 126.843,23.5006 132.5,24C 133.333,24.8333 134.167,25.6667 135,26.5C 135.342,36.8148 131.175,44.8148 122.5,50.5C 107.046,57.3958 101.046,52.3958 104.5,35.5C 102.5,35.5 100.5,35.5 98.5,35.5C 98.5,35.1667 98.5,34.8333 98.5,34.5C 99.5,34.5 100.5,34.5 101.5,34.5C 103.099,34.7678 104.432,34.4345 105.5,33.5C 105.833,33.5 106.167,33.5 106.5,33.5C 108.591,33.6816 110.591,33.3482 112.5,32.5C 113.186,25.7981 115.186,25.1314 118.5,30.5C 117.313,30.5536 115.98,30.8869 114.5,31.5C 115.689,32.4287 117.022,32.762 118.5,32.5C 117.791,33.404 116.791,33.7373 115.5,33.5C 115.334,38.5111 115.501,43.5111 116,48.5C 120.725,48.5512 124.725,46.5512 128,42.5C 134.5,32.555 132,29.2217 120.5,32.5C 123.749,26.384 121.749,23.7173 114.5,24.5C 114.5,20.5 114.5,16.5 114.5,12.5 Z"/></g>
<g><path style="opacity:1" fill="#d22834" d="M 118.5,32.5 C 119.167,32.5 119.833,32.5 120.5,32.5C 132,29.2217 134.5,32.555 128,42.5C 124.725,46.5512 120.725,48.5512 116,48.5C 115.501,43.5111 115.334,38.5111 115.5,33.5C 116.791,33.7373 117.791,33.404 118.5,32.5 Z"/></g>
<g><path style="opacity:1" fill="#e3797d" d="M 122.5,33.5 C 127.159,33.0146 128.492,34.848 126.5,39C 124.926,39.6987 123.593,39.3654 122.5,38C 123.413,36.5861 123.413,35.0861 122.5,33.5 Z"/></g>
<g><path style="opacity:1" fill="#343c82" d="M 83.5,28.5 C 84.1667,28.5 84.8333,28.5 85.5,28.5C 86.5,28.5 87.5,28.5 88.5,28.5C 89.8734,28.3433 91.2068,28.51 92.5,29C 90.9329,31.9056 91.5995,34.0723 94.5,35.5C 89.9515,35.6245 85.6181,36.2911 81.5,37.5C 80.1667,37.5 78.8333,37.5 77.5,37.5C 76.5,37.5 75.5,37.5 74.5,37.5C 73.5,37.5 72.5,37.5 71.5,37.5C 71.8186,35.2495 71.3186,33.2495 70,31.5C 69.0853,32.3279 68.4186,33.3279 68,34.5C 67.6924,33.6919 67.1924,33.0253 66.5,32.5C 65.5481,34.0453 65.2148,35.712 65.5,37.5C 67.451,37.7733 68.951,37.1066 70,35.5C 70.4828,36.448 70.6495,37.448 70.5,38.5C 67.8127,38.6641 65.146,38.4974 62.5,38C 59.8333,36 59.8333,34 62.5,32C 69.6339,30.7699 76.6339,29.6033 83.5,28.5 Z"/></g>
<g><path style="opacity:1" fill="#dadce8" d="M 73.5,31.5 C 74.4345,32.5676 74.7678,33.901 74.5,35.5C 78.1716,36.0447 77.8383,36.3781 73.5,36.5C 73.5,34.8333 73.5,33.1667 73.5,31.5 Z"/></g>
<g><path style="opacity:1" fill="#c3c4d9" d="M 87.5,29.5 C 88.2389,29.369 88.9056,29.5357 89.5,30C 88.2889,31.1131 88.2889,32.2798 89.5,33.5C 88.0475,33.0598 86.8808,33.7265 86,35.5C 85.6066,33.2837 86.1066,31.2837 87.5,29.5 Z"/></g>
<g><path style="opacity:1" fill="#c5c7db" d="M 78.5,30.5 C 79.8734,30.3433 81.2068,30.51 82.5,31C 79.8333,31.6667 79.8333,32.3333 82.5,33C 79.8185,36.0787 78.4852,35.2453 78.5,30.5 Z"/></g>
<g><path style="opacity:1" fill="#fbf8f8" d="M 94.5,35.5 C 95.1667,35.5 95.8333,35.5 96.5,35.5C 96.666,40.8437 96.4994,46.1771 96,51.5C 92.6667,54.1667 89.3333,54.1667 86,51.5C 85.5008,46.8452 85.3342,42.1785 85.5,37.5C 84.1667,37.5 82.8333,37.5 81.5,37.5C 85.6181,36.2911 89.9515,35.6245 94.5,35.5 Z"/></g>
<g><path style="opacity:1" fill="#a7abc9" d="M 74.5,37.5 C 73.4324,38.4345 72.099,38.7678 70.5,38.5C 70.6495,37.448 70.4828,36.448 70,35.5C 68.951,37.1066 67.451,37.7733 65.5,37.5C 65.2148,35.712 65.5481,34.0453 66.5,32.5C 67.1924,33.0253 67.6924,33.6919 68,34.5C 68.4186,33.3279 69.0853,32.3279 70,31.5C 71.3186,33.2495 71.8186,35.2495 71.5,37.5C 72.5,37.5 73.5,37.5 74.5,37.5 Z"/></g>
<g><path style="opacity:1" fill="#d42e38" d="M 96.5,35.5 C 97.1667,35.5 97.8333,35.5 98.5,35.5C 100.5,35.5 102.5,35.5 104.5,35.5C 101.046,52.3958 107.046,57.3958 122.5,50.5C 122.5,51.5 122.5,52.5 122.5,53.5C 119.868,54.3267 117.202,55.16 114.5,56C 116.058,56.21 117.391,56.71 118.5,57.5C 115.545,58.1587 112.545,58.4921 109.5,58.5C 110.609,57.71 111.942,57.21 113.5,57C 101.19,57.3149 88.8564,57.4815 76.5,57.5C 76.5,56.8333 76.1667,56.5 75.5,56.5C 73.5853,56.7845 71.9187,56.4511 70.5,55.5C 70.1667,54.8333 69.8333,54.1667 69.5,53.5C 72.695,54.0393 75.195,53.0393 77,50.5C 77.499,46.1794 77.6657,41.8461 77.5,37.5C 78.8333,37.5 80.1667,37.5 81.5,37.5C 82.8333,37.5 84.1667,37.5 85.5,37.5C 85.3342,42.1785 85.5008,46.8452 86,51.5C 89.3333,54.1667 92.6667,54.1667 96,51.5C 96.4994,46.1771 96.666,40.8437 96.5,35.5 Z"/></g>
<g><path style="opacity:1" fill="#ed9a9a" d="M 48.5,10.5 C 49.4916,10.3284 50.1583,10.6618 50.5,11.5C 47.1943,12.8202 44.1943,14.6535 41.5,17C 34.0855,23.2948 32.5855,30.7948 37,39.5C 46.2772,48.7214 57.4439,54.0547 70.5,55.5C 71.9187,56.4511 73.5853,56.7845 75.5,56.5C 73.8333,57.1667 72.1667,57.8333 70.5,58.5C 58.0264,56.3452 46.8597,51.3452 37,43.5C 28.7843,32.2877 30.2843,22.4544 41.5,14C 43.5766,12.295 45.91,11.1283 48.5,10.5 Z"/></g>
<g><path style="opacity:1" fill="#df6266" d="M 131.5,52.5 C 128.203,54.6013 124.537,55.9347 120.5,56.5C 121.485,55.3806 123.151,54.3806 125.5,53.5C 127.5,53.1667 129.5,52.8333 131.5,52.5 Z"/></g>
<g><path style="opacity:1" fill="#f2bdbf" d="M 122.5,53.5 C 123.5,53.5 124.5,53.5 125.5,53.5C 123.151,54.3806 121.485,55.3806 120.5,56.5C 120.158,57.3382 119.492,57.6716 118.5,57.5C 117.391,56.71 116.058,56.21 114.5,56C 117.202,55.16 119.868,54.3267 122.5,53.5 Z"/></g>
<g><path style="opacity:1" fill="#f1b8bb" d="M 109.5,58.5 C 109.158,59.3382 108.492,59.6716 107.5,59.5C 97.124,60.1639 86.7907,59.4973 76.5,57.5C 88.8564,57.4815 101.19,57.3149 113.5,57C 111.942,57.21 110.609,57.71 109.5,58.5 Z"/></g>
<g><path style="opacity:1" fill="#e37276" d="M 75.5,56.5 C 76.1667,56.5 76.5,56.8333 76.5,57.5C 86.7907,59.4973 97.124,60.1639 107.5,59.5C 95.11,60.997 82.7767,60.6637 70.5,58.5C 72.1667,57.8333 73.8333,57.1667 75.5,56.5 Z"/></g>
</svg>
