<?xml version="1.0" encoding="UTF-8"?>
<!DOCTYPE svg PUBLIC "-//W3C//DTD SVG 1.1//EN" "http://www.w3.org/Graphics/SVG/1.1/DTD/svg11.dtd">
<svg xmlns="http://www.w3.org/2000/svg" version="1.1" width="3000px" height="780px" style="shape-rendering:geometricPrecision; text-rendering:geometricPrecision; image-rendering:optimizeQuality; fill-rule:evenodd; clip-rule:evenodd" xmlns:xlink="http://www.w3.org/1999/xlink">
<g><path style="opacity:1" fill="#a72a22" d="M -0.5,-0.5 C 86.8333,-0.5 174.167,-0.5 261.5,-0.5C 261.167,111.668 261.5,223.668 262.5,335.5C 256.01,339.677 249.343,343.677 242.5,347.5C 237.469,348.562 232.469,349.729 227.5,351C 219.567,354.529 211.567,357.362 203.5,359.5C 200.39,360.088 197.39,360.755 194.5,361.5C 190.136,362.47 185.636,363.47 181,364.5C 173.735,361.754 166.235,360.921 158.5,362C 156.038,363.294 153.705,364.794 151.5,366.5C 147.785,366.814 144.285,367.814 141,369.5C 138.865,368.873 136.698,368.373 134.5,368C 132.183,363.185 129.849,358.351 127.5,353.5C 123.2,350.702 119.033,347.702 115,344.5C 112.231,338.855 110.898,332.855 111,326.5C 109.267,324.398 107.267,324.065 105,325.5C 100.612,331.819 98.7791,338.819 99.5,346.5C 93.5336,348.063 87.7002,350.063 82,352.5C 75.1176,347.74 71.6176,341.073 71.5,332.5C 67.5911,332.134 64.9245,333.8 63.5,337.5C 61.7958,344.673 62.9624,351.34 67,357.5C 69.6833,360.016 72.1833,362.683 74.5,365.5C 70.9612,371.831 67.6279,378.164 64.5,384.5C 63.1266,384.343 61.7932,384.51 60.5,385C 58.644,387.69 56.3106,389.856 53.5,391.5C 52.2739,394.016 50.7739,396.349 49,398.5C 48.6257,406.287 47.459,413.953 45.5,421.5C 43.7087,422.924 41.8754,424.258 40,425.5C 35.771,430.274 32.271,435.607 29.5,441.5C 22.1357,447.533 15.8023,454.533 10.5,462.5C 10.8333,463.5 11.5,464.167 12.5,464.5C 13.0974,469.911 13.9307,475.245 15,480.5C 18.319,482.482 20.4857,485.315 21.5,489C 23.1691,490.669 25.1691,491.502 27.5,491.5C 27.5,492.833 27.5,494.167 27.5,495.5C 29.8421,495.504 31.8421,496.337 33.5,498C 39.5276,498.83 45.5276,498.664 51.5,497.5C 52.9814,496.52 54.3147,495.353 55.5,494C 69.7489,492.047 84.0823,490.047 98.5,488C 98.9574,487.586 99.2907,487.086 99.5,486.5C 102.167,486.167 104.833,485.833 107.5,485.5C 119.026,487.749 130.859,489.082 143,489.5C 149.468,492.104 155.968,494.771 162.5,497.5C 168.104,501.647 173.771,505.814 179.5,510C 183.063,514.23 187.229,517.73 192,520.5C 194.598,530.321 199.432,538.821 206.5,546C 214.045,550.52 221.378,555.52 228.5,561C 238.118,565.147 246.785,570.814 254.5,578C 258.003,579.703 261.336,581.536 264.5,583.5C 263.127,583.343 261.793,583.51 260.5,584C 261.498,649.096 261.831,714.262 261.5,779.5C 174.167,779.5 86.8333,779.5 -0.5,779.5C -0.5,519.5 -0.5,259.5 -0.5,-0.5 Z"/></g>
<g><path style="opacity:0.311" fill="#a82a20" d="M 261.5,-0.5 C 420.167,-0.5 578.833,-0.5 737.5,-0.5C 737.832,136.237 737.498,272.903 736.5,409.5C 733.153,396.935 729.653,384.268 726,371.5C 722.611,362.312 718.277,353.645 713,345.5C 701.298,331.093 686.131,323.593 667.5,323C 664.833,322 662.167,321 659.5,320C 651.819,319.109 644.152,318.109 636.5,317C 635.833,316 635.167,315 634.5,314C 631.494,311.841 628.161,310.341 624.5,309.5C 610.178,308.334 595.845,308.167 581.5,309C 564.05,311.836 546.383,313.502 528.5,314C 527.692,314.308 527.025,314.808 526.5,315.5C 505.512,316.772 484.512,317.272 463.5,317C 461,315.182 459.334,312.848 458.5,310C 461.002,298.15 464.502,286.65 469,275.5C 468.918,270.505 468.918,265.505 469,260.5C 470.861,258.112 472.194,255.446 473,252.5C 474.294,252.899 475.794,252.899 477.5,252.5C 480.194,248.446 482.361,244.112 484,239.5C 484.154,242.063 483.654,244.563 482.5,247C 482.667,247.5 482.833,248 483,248.5C 484.008,248.018 485.175,247.852 486.5,248C 488.736,243.686 491.07,239.519 493.5,235.5C 494.988,241.865 496.822,241.865 499,235.5C 499.192,237.577 499.692,239.577 500.5,241.5C 505.035,236.656 508.868,231.322 512,225.5C 512.892,228.284 514.058,230.95 515.5,233.5C 513.942,235.405 514.275,236.239 516.5,236C 518.7,233.766 520.533,231.266 522,228.5C 522.333,229.167 522.667,229.833 523,230.5C 529.443,225.286 533.609,218.62 535.5,210.5C 539.182,210.665 542.848,210.499 546.5,210C 547.416,209.626 548.25,209.126 549,208.5C 549.377,204.549 548.543,200.882 546.5,197.5C 550.874,194.879 555.374,192.545 560,190.5C 560.789,186.909 560.622,183.409 559.5,180C 563.801,178.904 565.634,176.071 565,171.5C 566.973,181.545 566.806,191.545 564.5,201.5C 564.946,203.368 565.279,205.201 565.5,207C 561.833,214.834 560.167,223.001 560.5,231.5C 567.307,224.689 570.974,216.356 571.5,206.5C 574.709,202.749 576.876,198.416 578,193.5C 578.599,182.113 578.599,170.78 578,159.5C 579.586,161.67 580.92,164.004 582,166.5C 583.978,183.397 580.478,199.064 571.5,213.5C 571.833,213.833 572.167,214.167 572.5,214.5C 578.199,212.301 582.033,208.301 584,202.5C 592.632,180.586 590.632,159.586 578,139.5C 558.751,118.16 536.917,114.66 512.5,129C 509.051,131.482 505.884,134.315 503,137.5C 496.719,146.782 490.052,155.782 483,164.5C 481.293,163.862 479.46,163.862 477.5,164.5C 477.417,168.232 475.751,170.899 472.5,172.5C 465.035,171.172 457.701,169.339 450.5,167C 448.355,165.182 448.355,163.682 450.5,162.5C 445.234,156.101 442.734,148.767 443,140.5C 444.11,142.037 445.61,142.703 447.5,142.5C 446.939,139.538 445.939,136.705 444.5,134C 444.667,133.5 444.833,133 445,132.5C 446.692,134.245 448.525,134.578 450.5,133.5C 442.698,127.541 438.365,119.875 437.5,110.5C 433.007,97.5074 424.34,88.674 411.5,84C 417.458,80.7421 420.958,75.9088 422,69.5C 420.233,68.1828 418.899,66.5161 418,64.5C 416.426,65.9842 415.093,67.6508 414,69.5C 413.548,66.1228 412.882,62.7895 412,59.5C 411.311,58.6433 410.478,57.9767 409.5,57.5C 408.929,61.3098 408.096,64.9765 407,68.5C 407.028,64.2773 405.695,60.6107 403,57.5C 401.721,62.3211 401.054,67.3211 401,72.5C 399.932,69.129 398.765,65.7957 397.5,62.5C 396.675,61.6143 395.675,61.281 394.5,61.5C 394.455,66.2536 394.622,70.9202 395,75.5C 392.772,73.3216 391.605,70.6549 391.5,67.5C 389.641,67.4609 388.308,68.2942 387.5,70C 388.471,73.1347 388.971,76.3014 389,79.5C 388.092,77.5614 386.592,76.5614 384.5,76.5C 384.261,78.4672 384.594,80.3005 385.5,82C 384.552,82.4828 383.552,82.6495 382.5,82.5C 381.852,87.8283 381.685,93.1617 382,98.5C 382.833,99.3333 383.667,100.167 384.5,101C 381.637,102.364 379.637,104.53 378.5,107.5C 378.887,108.72 379.72,109.387 381,109.5C 382.44,108.852 383.94,108.519 385.5,108.5C 385.026,111.921 385.026,115.255 385.5,118.5C 384.833,119.833 384.167,121.167 383.5,122.5C 385.8,124.781 388.466,126.614 391.5,128C 383.686,144.443 376.853,161.276 371,178.5C 370.333,185.167 370.333,191.833 371,198.5C 373.901,206.386 377.235,214.053 381,221.5C 384.394,225.77 388.561,228.937 393.5,231C 402.908,242.41 413.575,252.41 425.5,261C 429.951,266.602 434.617,271.935 439.5,277C 441.101,277.273 442.601,277.773 444,278.5C 443.903,287.895 442.903,297.229 441,306.5C 440.161,307.624 438.994,308.291 437.5,308.5C 435.476,307.979 433.476,307.812 431.5,308C 430.663,309.011 430.33,310.178 430.5,311.5C 422.843,311.212 415.843,313.045 409.5,317C 385.167,317.333 360.833,317.667 336.5,318C 319.399,320.51 302.065,322.844 284.5,325C 277.302,328.765 269.969,332.265 262.5,335.5C 261.5,223.668 261.167,111.668 261.5,-0.5 Z"/></g>
<g><path style="opacity:0.747" fill="#a72a21" d="M 737.5,-0.5 C 788.167,-0.5 838.833,-0.5 889.5,-0.5C 942.512,13.8083 966.679,48.475 962,103.5C 957.712,136.937 940.212,160.437 909.5,174C 892.203,181.06 874.203,185.06 855.5,186C 830.169,186.5 804.836,186.667 779.5,186.5C 779.5,270.833 779.5,355.167 779.5,439.5C 830.833,439.5 882.167,439.5 933.5,439.5C 933.824,454.745 933.491,469.911 932.5,485C 884.501,485.5 836.501,485.667 788.5,485.5C 788.5,519.5 788.5,553.5 788.5,587.5C 835.167,587.5 881.833,587.5 928.5,587.5C 928.5,602.5 928.5,617.5 928.5,632.5C 881.833,632.5 835.167,632.5 788.5,632.5C 788.5,667.5 788.5,702.5 788.5,737.5C 838.167,737.5 887.833,737.5 937.5,737.5C 937.5,751.5 937.5,765.5 937.5,779.5C 712.167,779.5 486.833,779.5 261.5,779.5C 261.831,714.262 261.498,649.096 260.5,584C 261.793,583.51 263.127,583.343 264.5,583.5C 270.095,586.029 275.929,588.029 282,589.5C 282.902,589.257 283.735,588.923 284.5,588.5C 275.763,600.487 270.93,614.154 270,629.5C 269.081,646.808 270.247,663.975 273.5,681C 273.182,687.774 271.682,694.274 269,700.5C 268.127,706.819 268.627,712.986 270.5,719C 268.39,724.38 268.057,729.88 269.5,735.5C 270.325,736.386 271.325,736.719 272.5,736.5C 272.336,733.813 272.503,731.146 273,728.5C 274.29,730.792 275.957,732.792 278,734.5C 279.616,733.199 281.116,733.199 282.5,734.5C 275.63,736.106 271.963,740.439 271.5,747.5C 271.67,749.715 272.337,751.715 273.5,753.5C 290.757,756.369 307.091,754.369 322.5,747.5C 323.164,748.648 323.331,749.981 323,751.5C 326.299,753.454 329.466,755.62 332.5,758C 338.628,758.175 344.628,759.009 350.5,760.5C 353.336,760.294 356.002,759.627 358.5,758.5C 358.762,757.022 358.429,755.689 357.5,754.5C 350.656,748.336 344.989,741.336 340.5,733.5C 341.931,733.119 342.764,732.119 343,730.5C 343.758,728.231 343.591,726.064 342.5,724C 343.365,722.641 344.365,721.474 345.5,720.5C 346.043,720.56 346.376,720.893 346.5,721.5C 345.833,722.167 345.167,722.833 344.5,723.5C 346.165,726.79 347.831,730.123 349.5,733.5C 352.547,736.545 355.213,739.878 357.5,743.5C 359.22,744.934 361.22,745.767 363.5,746C 365.972,749.802 369.472,751.968 374,752.5C 379.448,751.708 384.948,751.041 390.5,750.5C 390.762,749.022 390.429,747.689 389.5,746.5C 368.852,736.864 361.352,720.864 367,698.5C 373.442,688.838 378.942,678.671 383.5,668C 385.779,667.527 387.779,666.527 389.5,665C 391.167,664.333 392.833,664.333 394.5,665C 402.957,667.706 410.957,671.373 418.5,676C 422.868,677.747 427.202,677.747 431.5,676C 437.621,671.827 443.955,667.827 450.5,664C 464.524,661.495 478.524,659.328 492.5,657.5C 497.304,657.697 501.971,658.363 506.5,659.5C 505.888,656.304 505.888,653.304 506.5,650.5C 507.078,653.28 507.745,655.947 508.5,658.5C 507.465,662.397 508.465,665.731 511.5,668.5C 511.5,668.833 511.5,669.167 511.5,669.5C 516.226,677.708 523.226,683.208 532.5,686C 536.981,686.266 541.314,687.099 545.5,688.5C 548.881,688.54 552.214,688.207 555.5,687.5C 556.514,688.674 557.847,689.34 559.5,689.5C 561.138,690.832 562.804,692.166 564.5,693.5C 564.5,694.833 564.5,696.167 564.5,697.5C 562.9,699.298 562.566,701.298 563.5,703.5C 562.51,707.105 561.844,710.772 561.5,714.5C 561.567,715.959 561.234,717.292 560.5,718.5C 559.325,718.281 558.325,718.614 557.5,719.5C 554.228,726.621 548.562,730.287 540.5,730.5C 540.167,730.5 539.833,730.5 539.5,730.5C 538.295,731.672 538.295,733.005 539.5,734.5C 538.833,735.5 538.167,736.5 537.5,737.5C 541.361,738.284 545.027,738.617 548.5,738.5C 544.131,741.679 544.631,744.013 550,745.5C 551.627,745.375 553.127,744.875 554.5,744C 556.054,742.108 557.888,740.608 560,739.5C 561.696,742.366 564.196,743.7 567.5,743.5C 568.551,746.158 569.885,748.658 571.5,751C 573.713,751.626 575.88,751.459 578,750.5C 587.13,754.754 596.63,755.587 606.5,753C 606.957,752.586 607.291,752.086 607.5,751.5C 586.618,734.009 580.284,712.009 588.5,685.5C 587.66,684.265 586.66,683.265 585.5,682.5C 588.328,683.497 590.995,683.497 593.5,682.5C 594.167,682.5 594.833,682.5 595.5,682.5C 597.846,680.663 600.346,678.996 603,677.5C 604.33,678.582 605.83,679.249 607.5,679.5C 610.362,680.681 613.362,680.681 616.5,679.5C 616.47,680.497 616.97,681.164 618,681.5C 627.585,683.799 636.419,687.632 644.5,693C 647.722,693.199 650.722,694.032 653.5,695.5C 651.438,701.333 649.605,707.333 648,713.5C 640.934,719.629 636.434,727.295 634.5,736.5C 628.28,739.274 626.113,743.941 628,750.5C 631.385,751.948 634.885,753.115 638.5,754C 651.833,754.667 665.167,754.667 678.5,754C 682.695,745.665 685.029,736.832 685.5,727.5C 687.144,727.714 688.644,727.38 690,726.5C 693.19,722.315 692.69,718.481 688.5,715C 690.339,713.868 692.339,713.035 694.5,712.5C 695.5,710 696.5,707.5 697.5,705C 696.376,701.756 694.043,699.923 690.5,699.5C 690.5,698.833 690.5,698.167 690.5,697.5C 691.695,697.322 692.862,696.989 694,696.5C 714.895,702.635 728.061,695.135 733.5,674C 733.294,672.634 732.96,671.301 732.5,670C 729.931,668.134 727.098,666.634 724,665.5C 719.718,658.554 715.052,651.887 710,645.5C 708.412,642.826 707.245,639.992 706.5,637C 707.245,634.008 708.412,631.174 710,628.5C 710.736,619.156 711.569,609.823 712.5,600.5C 719.335,596.584 726.002,592.417 732.5,588C 738.801,579.602 739.135,570.935 733.5,562C 731.893,562.019 730.226,562.185 728.5,562.5C 730.406,559.844 730.906,556.844 730,553.5C 728.107,544.361 726.274,535.194 724.5,526C 724.055,524.553 723.388,523.22 722.5,522C 724.345,517.419 725.012,512.585 724.5,507.5C 725.5,507.5 726.5,507.5 727.5,507.5C 730.195,501.224 732.028,494.558 733,487.5C 733.454,474.197 734.954,461.03 737.5,448C 737.762,435.311 737.428,422.478 736.5,409.5C 737.498,272.903 737.832,136.237 737.5,-0.5 Z M 779.5,27.5 C 806.522,27.1277 833.522,27.6277 860.5,29C 876.454,30.3192 891.121,35.3192 904.5,44C 919.095,55.911 926.095,71.411 925.5,90.5C 923.958,122.887 907.291,142.72 875.5,150C 869.564,151.387 863.564,152.387 857.5,153C 831.502,153.5 805.502,153.667 779.5,153.5C 779.5,111.5 779.5,69.5 779.5,27.5 Z"/></g>
<g><path style="opacity:0.998" fill="#a72a22" d="M 1300.5,-0.5 C 1312.17,-0.5 1323.83,-0.5 1335.5,-0.5C 1335.5,116.5 1335.5,233.5 1335.5,350.5C 1323.83,350.5 1312.17,350.5 1300.5,350.5C 1300.5,233.5 1300.5,116.5 1300.5,-0.5 Z"/></g>
<g><path style="opacity:0.97" fill="#a72a22" d="M 1939.5,48.5 C 1951.17,48.5 1962.83,48.5 1974.5,48.5C 1974.5,70.5 1974.5,92.5 1974.5,114.5C 1996.5,114.5 2018.5,114.5 2040.5,114.5C 2040.5,124.833 2040.5,135.167 2040.5,145.5C 2018.5,145.5 1996.5,145.5 1974.5,145.5C 1974.33,193.834 1974.5,242.168 1975,290.5C 1975.5,302.326 1980.33,311.826 1989.5,319C 2006.27,324.459 2022.6,323.292 2038.5,315.5C 2039.68,326.135 2040.35,336.802 2040.5,347.5C 2021.54,353.511 2002.2,355.011 1982.5,352C 1961.22,347.39 1947.72,334.556 1942,313.5C 1941.01,309.558 1940.34,305.558 1940,301.5C 1939.5,249.501 1939.33,197.501 1939.5,145.5C 1923.5,145.5 1907.5,145.5 1891.5,145.5C 1891.5,135.167 1891.5,124.833 1891.5,114.5C 1907.5,114.5 1923.5,114.5 1939.5,114.5C 1939.5,92.5 1939.5,70.5 1939.5,48.5 Z"/></g>
<g><path style="opacity:1" fill="#fefefe" d="M 736.5,409.5 C 737.428,422.478 737.762,435.311 737.5,448C 734.954,461.03 733.454,474.197 733,487.5C 732.028,494.558 730.195,501.224 727.5,507.5C 726.5,507.5 725.5,507.5 724.5,507.5C 725.012,512.585 724.345,517.419 722.5,522C 723.388,523.22 724.055,524.553 724.5,526C 726.274,535.194 728.107,544.361 730,553.5C 730.906,556.844 730.406,559.844 728.5,562.5C 727.199,563.64 726.032,564.973 725,566.5C 723.985,576.68 718.485,582.346 708.5,583.5C 707.953,577.147 707.286,570.814 706.5,564.5C 704.833,564.5 703.167,564.5 701.5,564.5C 700.833,561.5 700.167,558.5 699.5,555.5C 698.839,553.866 698.506,552.033 698.5,550C 698.828,542.006 699.661,534.173 701,526.5C 701.333,515.5 701.667,504.5 702,493.5C 703.999,486.321 705.666,478.988 707,471.5C 710.923,467.541 713.423,462.874 714.5,457.5C 716.344,455.721 717.01,453.388 716.5,450.5C 717.813,442.599 717.813,434.599 716.5,426.5C 716.666,422.486 716.499,418.486 716,414.5C 715.648,416.247 715.148,417.914 714.5,419.5C 697.56,456.764 687.894,496.097 685.5,537.5C 686.447,548.8 688.781,559.8 692.5,570.5C 690.653,573.017 688.153,574.683 685,575.5C 665.745,561.122 646.578,546.622 627.5,532C 603.608,517.521 577.608,509.521 549.5,508C 519.81,506.879 490.143,505.379 460.5,503.5C 433.105,503.581 406.105,506.414 379.5,512C 366.696,514.451 354.363,518.451 342.5,524C 330.983,531.591 319.316,538.924 307.5,546C 301.649,550.482 296.816,555.982 293,562.5C 289.856,571.078 287.023,579.745 284.5,588.5C 283.735,588.923 282.902,589.257 282,589.5C 275.929,588.029 270.095,586.029 264.5,583.5C 261.336,581.536 258.003,579.703 254.5,578C 246.785,570.814 238.118,565.147 228.5,561C 221.378,555.52 214.045,550.52 206.5,546C 199.432,538.821 194.598,530.321 192,520.5C 187.229,517.73 183.063,514.23 179.5,510C 173.771,505.814 168.104,501.647 162.5,497.5C 155.968,494.771 149.468,492.104 143,489.5C 130.859,489.082 119.026,487.749 107.5,485.5C 104.833,485.833 102.167,486.167 99.5,486.5C 99.2907,487.086 98.9574,487.586 98.5,488C 84.0823,490.047 69.7489,492.047 55.5,494C 54.3147,495.353 52.9814,496.52 51.5,497.5C 45.5276,498.664 39.5276,498.83 33.5,498C 31.8421,496.337 29.8421,495.504 27.5,495.5C 27.5,494.167 27.5,492.833 27.5,491.5C 25.1691,491.502 23.1691,490.669 21.5,489C 20.4857,485.315 18.319,482.482 15,480.5C 13.9307,475.245 13.0974,469.911 12.5,464.5C 11.5,464.167 10.8333,463.5 10.5,462.5C 15.8023,454.533 22.1357,447.533 29.5,441.5C 32.271,435.607 35.771,430.274 40,425.5C 41.8754,424.258 43.7087,422.924 45.5,421.5C 47.459,413.953 48.6257,406.287 49,398.5C 50.7739,396.349 52.2739,394.016 53.5,391.5C 56.3106,389.856 58.644,387.69 60.5,385C 61.7932,384.51 63.1266,384.343 64.5,384.5C 67.6279,378.164 70.9612,371.831 74.5,365.5C 72.1833,362.683 69.6833,360.016 67,357.5C 62.9624,351.34 61.7958,344.673 63.5,337.5C 64.9245,333.8 67.5911,332.134 71.5,332.5C 71.6176,341.073 75.1176,347.74 82,352.5C 87.7002,350.063 93.5336,348.063 99.5,346.5C 98.7791,338.819 100.612,331.819 105,325.5C 107.267,324.065 109.267,324.398 111,326.5C 110.898,332.855 112.231,338.855 115,344.5C 119.033,347.702 123.2,350.702 127.5,353.5C 129.849,358.351 132.183,363.185 134.5,368C 136.698,368.373 138.865,368.873 141,369.5C 144.285,367.814 147.785,366.814 151.5,366.5C 153.705,364.794 156.038,363.294 158.5,362C 166.235,360.921 173.735,361.754 181,364.5C 185.636,363.47 190.136,362.47 194.5,361.5C 198.012,362.055 201.012,361.388 203.5,359.5C 211.567,357.362 219.567,354.529 227.5,351C 232.469,349.729 237.469,348.562 242.5,347.5C 249.343,343.677 256.01,339.677 262.5,335.5C 269.969,332.265 277.302,328.765 284.5,325C 302.065,322.844 319.399,320.51 336.5,318C 360.833,317.667 385.167,317.333 409.5,317C 415.843,313.045 422.843,311.212 430.5,311.5C 430.33,310.178 430.663,309.011 431.5,308C 433.476,307.812 435.476,307.979 437.5,308.5C 438.994,308.291 440.161,307.624 441,306.5C 442.903,297.229 443.903,287.895 444,278.5C 442.601,277.773 441.101,277.273 439.5,277C 434.617,271.935 429.951,266.602 425.5,261C 413.575,252.41 402.908,242.41 393.5,231C 388.561,228.937 384.394,225.77 381,221.5C 377.235,214.053 373.901,206.386 371,198.5C 370.333,191.833 370.333,185.167 371,178.5C 376.853,161.276 383.686,144.443 391.5,128C 388.466,126.614 385.8,124.781 383.5,122.5C 384.167,121.167 384.833,119.833 385.5,118.5C 385.026,115.255 385.026,111.921 385.5,108.5C 383.94,108.519 382.44,108.852 381,109.5C 379.72,109.387 378.887,108.72 378.5,107.5C 379.637,104.53 381.637,102.364 384.5,101C 383.667,100.167 382.833,99.3333 382,98.5C 381.685,93.1617 381.852,87.8283 382.5,82.5C 383.552,82.6495 384.552,82.4828 385.5,82C 384.594,80.3005 384.261,78.4672 384.5,76.5C 386.592,76.5614 388.092,77.5614 389,79.5C 388.971,76.3014 388.471,73.1347 387.5,70C 388.308,68.2942 389.641,67.4609 391.5,67.5C 391.605,70.6549 392.772,73.3216 395,75.5C 394.622,70.9202 394.455,66.2536 394.5,61.5C 395.675,61.281 396.675,61.6143 397.5,62.5C 398.765,65.7957 399.932,69.129 401,72.5C 401.054,67.3211 401.721,62.3211 403,57.5C 405.695,60.6107 407.028,64.2773 407,68.5C 408.096,64.9765 408.929,61.3098 409.5,57.5C 410.478,57.9767 411.311,58.6433 412,59.5C 412.882,62.7895 413.548,66.1228 414,69.5C 415.093,67.6508 416.426,65.9842 418,64.5C 418.899,66.5161 420.233,68.1828 422,69.5C 420.958,75.9088 417.458,80.7421 411.5,84C 424.34,88.674 433.007,97.5074 437.5,110.5C 438.365,119.875 442.698,127.541 450.5,133.5C 448.525,134.578 446.692,134.245 445,132.5C 444.833,133 444.667,133.5 444.5,134C 445.939,136.705 446.939,139.538 447.5,142.5C 445.61,142.703 444.11,142.037 443,140.5C 442.734,148.767 445.234,156.101 450.5,162.5C 448.355,163.682 448.355,165.182 450.5,167C 457.701,169.339 465.035,171.172 472.5,172.5C 475.751,170.899 477.417,168.232 477.5,164.5C 479.46,163.862 481.293,163.862 483,164.5C 490.052,155.782 496.719,146.782 503,137.5C 505.884,134.315 509.051,131.482 512.5,129C 536.917,114.66 558.751,118.16 578,139.5C 590.632,159.586 592.632,180.586 584,202.5C 582.033,208.301 578.199,212.301 572.5,214.5C 572.167,214.167 571.833,213.833 571.5,213.5C 580.478,199.064 583.978,183.397 582,166.5C 580.92,164.004 579.586,161.67 578,159.5C 578.599,170.78 578.599,182.113 578,193.5C 576.876,198.416 574.709,202.749 571.5,206.5C 570.974,216.356 567.307,224.689 560.5,231.5C 560.167,223.001 561.833,214.834 565.5,207C 565.279,205.201 564.946,203.368 564.5,201.5C 566.806,191.545 566.973,181.545 565,171.5C 565.634,176.071 563.801,178.904 559.5,180C 560.622,183.409 560.789,186.909 560,190.5C 555.374,192.545 550.874,194.879 546.5,197.5C 548.543,200.882 549.377,204.549 549,208.5C 548.25,209.126 547.416,209.626 546.5,210C 542.848,210.499 539.182,210.665 535.5,210.5C 533.609,218.62 529.443,225.286 523,230.5C 522.667,229.833 522.333,229.167 522,228.5C 520.533,231.266 518.7,233.766 516.5,236C 514.275,236.239 513.942,235.405 515.5,233.5C 514.058,230.95 512.892,228.284 512,225.5C 508.868,231.322 505.035,236.656 500.5,241.5C 499.692,239.577 499.192,237.577 499,235.5C 496.822,241.865 494.988,241.865 493.5,235.5C 491.07,239.519 488.736,243.686 486.5,248C 485.175,247.852 484.008,248.018 483,248.5C 482.833,248 482.667,247.5 482.5,247C 483.654,244.563 484.154,242.063 484,239.5C 482.361,244.112 480.194,248.446 477.5,252.5C 475.794,252.899 474.294,252.899 473,252.5C 472.194,255.446 470.861,258.112 469,260.5C 468.918,265.505 468.918,270.505 469,275.5C 464.502,286.65 461.002,298.15 458.5,310C 459.334,312.848 461,315.182 463.5,317C 484.512,317.272 505.512,316.772 526.5,315.5C 527.025,314.808 527.692,314.308 528.5,314C 546.383,313.502 564.05,311.836 581.5,309C 595.845,308.167 610.178,308.334 624.5,309.5C 628.161,310.341 631.494,311.841 634.5,314C 635.167,315 635.833,316 636.5,317C 644.152,318.109 651.819,319.109 659.5,320C 662.167,321 664.833,322 667.5,323C 686.131,323.593 701.298,331.093 713,345.5C 718.277,353.645 722.611,362.312 726,371.5C 729.653,384.268 733.153,396.935 736.5,409.5 Z"/></g>
<g><path style="opacity:0.984" fill="#a72a22" d="M 1098.5,108.5 C 1142.52,107.601 1178.02,124.268 1205,158.5C 1227.09,192.768 1233.09,229.768 1223,269.5C 1206.47,319.691 1171.97,348.524 1119.5,356C 1074.24,361.141 1036.08,347.308 1005,314.5C 978.305,278.686 970.638,239.019 982,195.5C 996.477,150.69 1026.64,122.857 1072.5,112C 1081.26,110.407 1089.93,109.241 1098.5,108.5 Z M 1091.5,139.5 C 1144.51,138.029 1177.01,163.029 1189,214.5C 1194.04,245.346 1187.04,273.012 1168,297.5C 1144.4,321.585 1115.9,330.419 1082.5,324C 1045.52,314.022 1023.36,290.188 1016,252.5C 1009.68,215.227 1020.18,183.727 1047.5,158C 1060.55,147.821 1075.22,141.654 1091.5,139.5 Z"/></g>
<g><path style="opacity:0.982" fill="#a72a22" d="M 1523.5,108.5 C 1565.69,107.345 1598.53,124.011 1622,158.5C 1636.15,184.774 1641.65,212.774 1638.5,242.5C 1573.83,242.5 1509.17,242.5 1444.5,242.5C 1448.55,288.043 1472.88,315.543 1517.5,325C 1554.53,329.146 1583.53,315.98 1604.5,285.5C 1613.43,291.594 1621.93,298.261 1630,305.5C 1630.67,306.5 1630.67,307.5 1630,308.5C 1599.83,345.015 1560.99,360.848 1513.5,356C 1458.77,347.384 1424.6,316.217 1411,262.5C 1401,212.294 1414.5,169.794 1451.5,135C 1472.74,118.533 1496.74,109.7 1523.5,108.5 Z M 1516.5,139.5 C 1568.83,136.83 1597.83,161.497 1603.5,213.5C 1550.83,213.5 1498.17,213.5 1445.5,213.5C 1452.21,172.461 1475.87,147.794 1516.5,139.5 Z"/></g>
<g><path style="opacity:0.98" fill="#a72a22" d="M 1776.5,108.5 C 1808.83,107.876 1836,119.209 1858,142.5C 1859.97,145.601 1861.8,148.768 1863.5,152C 1855.32,159.33 1846.66,166.163 1837.5,172.5C 1818.74,144.404 1792.74,134.237 1759.5,142C 1734.32,149.789 1726.16,165.956 1735,190.5C 1740.98,197.75 1748.48,202.917 1757.5,206C 1775.04,211.134 1792.7,215.801 1810.5,220C 1827.57,224.779 1842.4,233.279 1855,245.5C 1866.85,262.078 1870.52,280.412 1866,300.5C 1858.46,328.368 1840.63,345.868 1812.5,353C 1773.73,362.153 1738.07,355.486 1705.5,333C 1697.82,326.499 1691.49,318.999 1686.5,310.5C 1694.88,302.797 1703.88,295.797 1713.5,289.5C 1736.77,321.869 1767.77,332.703 1806.5,322C 1830.9,311.442 1838.07,293.942 1828,269.5C 1825.5,267 1823,264.5 1820.5,262C 1811.88,257.193 1802.88,253.193 1793.5,250C 1778.92,245.689 1764.25,241.689 1749.5,238C 1700.94,223.041 1686.11,191.874 1705,144.5C 1716.6,127.099 1732.76,116.266 1753.5,112C 1761.26,110.447 1768.92,109.28 1776.5,108.5 Z"/></g>
<g><path style="opacity:0.98" fill="#a72a22" d="M 2177.5,108.5 C 2207.33,107.269 2232.83,116.936 2254,137.5C 2264.49,150.64 2270.49,165.64 2272,182.5C 2272.33,225.833 2272.67,269.167 2273,312.5C 2273.44,325.244 2274.61,337.911 2276.5,350.5C 2265.83,350.5 2255.17,350.5 2244.5,350.5C 2243.24,338.183 2242.08,325.85 2241,313.5C 2221.15,343.425 2193.15,357.758 2157,356.5C 2128.65,357.732 2105.32,347.732 2087,326.5C 2074.65,307.041 2071.31,286.041 2077,263.5C 2083.55,243.28 2096.72,229.113 2116.5,221C 2132.29,214.841 2148.63,210.841 2165.5,209C 2190.11,206.614 2214.78,205.448 2239.5,205.5C 2241.09,187.918 2236.92,171.918 2227,157.5C 2216.52,146.68 2203.69,140.846 2188.5,140C 2157.76,137.302 2130.93,146.135 2108,166.5C 2102.02,159.854 2096.02,153.187 2090,146.5C 2089.02,145.241 2088.68,143.908 2089,142.5C 2104.68,127.574 2123.18,117.741 2144.5,113C 2155.55,110.746 2166.55,109.246 2177.5,108.5 Z M 2226.5,233.5 C 2230.83,233.5 2235.17,233.5 2239.5,233.5C 2242.43,258.037 2236.93,280.37 2223,300.5C 2204.27,321.638 2180.77,330.138 2152.5,326C 2139.32,324.46 2128.15,318.96 2119,309.5C 2108.62,294.283 2107.95,278.616 2117,262.5C 2127.66,251.583 2140.49,244.416 2155.5,241C 2165.36,238.496 2175.36,236.83 2185.5,236C 2199.33,235.177 2212.99,234.344 2226.5,233.5 Z"/></g>
<g><path style="opacity:0.988" fill="#a72a22" d="M 2465.5,108.5 C 2471.85,108.735 2478.18,109.235 2484.5,110C 2487.12,110.151 2489.45,110.985 2491.5,112.5C 2490.05,123.638 2488.05,134.638 2485.5,145.5C 2444.1,135.66 2415.6,150.326 2400,189.5C 2397.47,197.318 2395.81,205.318 2395,213.5C 2394.5,259.165 2394.33,304.832 2394.5,350.5C 2382.83,350.5 2371.17,350.5 2359.5,350.5C 2360,271.818 2359.33,193.151 2357.5,114.5C 2368.5,114.5 2379.5,114.5 2390.5,114.5C 2391.58,127.811 2392.41,141.144 2393,154.5C 2408.75,125.924 2432.91,110.59 2465.5,108.5 Z"/></g>
<g><path style="opacity:0.31" fill="#b64e42" d="M 453.5,281.5 C 455.026,282.492 455.693,283.992 455.5,286C 454.807,289.913 453.807,293.746 452.5,297.5C 451.149,292.033 451.483,286.7 453.5,281.5 Z"/></g>
<g><path style="opacity:1" fill="#d08f8b" d="M 203.5,359.5 C 201.012,361.388 198.012,362.055 194.5,361.5C 197.39,360.755 200.39,360.088 203.5,359.5 Z"/></g>
<g><path style="opacity:0.31" fill="#a82b21" d="M 714.5,419.5 C 715.167,421.833 715.833,424.167 716.5,426.5C 717.813,434.599 717.813,442.599 716.5,450.5C 715.732,452.715 715.065,455.048 714.5,457.5C 713.423,462.874 710.923,467.541 707,471.5C 705.666,478.988 703.999,486.321 702,493.5C 701.667,504.5 701.333,515.5 701,526.5C 699.661,534.173 698.828,542.006 698.5,550C 698.506,552.033 698.839,553.866 699.5,555.5C 699.5,558.833 699.5,562.167 699.5,565.5C 697.196,567.126 694.863,568.793 692.5,570.5C 688.781,559.8 686.447,548.8 685.5,537.5C 687.894,496.097 697.56,456.764 714.5,419.5 Z"/></g>
<g><path style="opacity:0.443" fill="#cc8985" d="M 716.5,426.5 C 715.833,424.167 715.167,421.833 714.5,419.5C 715.148,417.914 715.648,416.247 716,414.5C 716.499,418.486 716.666,422.486 716.5,426.5 Z"/></g>
<g><path style="opacity:0.989" fill="#a72a22" d="M 1822.5,779.5 C 1783.17,779.5 1743.83,779.5 1704.5,779.5C 1660.83,765.332 1627,738.665 1603,699.5C 1582.45,659.649 1576.45,617.649 1585,573.5C 1598.68,513.661 1633.85,471.828 1690.5,448C 1736.08,432.097 1782.08,430.764 1828.5,444C 1882.23,462.395 1919.73,497.895 1941,550.5C 1953.93,591.948 1953.6,633.282 1940,674.5C 1922.57,716.601 1893.4,747.767 1852.5,768C 1842.66,772.552 1832.66,776.385 1822.5,779.5 Z M 1751.5,483.5 C 1813.76,479.367 1859.26,504.701 1888,559.5C 1901.61,593.015 1901.94,626.681 1889,660.5C 1869.27,703.561 1836.1,729.394 1789.5,738C 1739.45,745.763 1697.28,731.263 1663,694.5C 1635.55,658.583 1627.55,618.583 1639,574.5C 1652.83,531.333 1681.33,502.833 1724.5,489C 1733.55,486.719 1742.55,484.885 1751.5,483.5 Z"/></g>
<g><path style="opacity:0.988" fill="#a72a22" d="M 1303.5,779.5 C 1282.5,779.5 1261.5,779.5 1240.5,779.5C 1203.83,733.528 1166.66,687.861 1129,642.5C 1091.33,688.332 1053.5,733.998 1015.5,779.5C 994.5,779.5 973.5,779.5 952.5,779.5C 1000.94,721.457 1049.28,663.29 1097.5,605C 1052.21,550.926 1007.05,496.759 962,442.5C 961.517,441.552 961.351,440.552 961.5,439.5C 982.177,439.167 1002.84,439.5 1023.5,440.5C 1058.48,483.312 1093.64,525.979 1129,568.5C 1164.53,525.943 1199.69,483.109 1234.5,440C 1254.83,439.5 1275.16,439.333 1295.5,439.5C 1295.65,440.552 1295.48,441.552 1295,442.5C 1249.98,496.688 1205.14,551.021 1160.5,605.5C 1208.19,663.519 1255.86,721.519 1303.5,779.5 Z"/></g>
<g><path style="opacity:0.99" fill="#a72a22" d="M 1390.5,779.5 C 1373.17,779.5 1355.83,779.5 1338.5,779.5C 1338.5,666.167 1338.5,552.833 1338.5,439.5C 1380.17,439.333 1421.83,439.5 1463.5,440C 1522.03,446.363 1553.03,478.863 1556.5,537.5C 1554.05,589.443 1527.39,620.61 1476.5,631C 1468.22,632.41 1459.88,633.41 1451.5,634C 1431.17,634.5 1410.84,634.667 1390.5,634.5C 1390.5,682.833 1390.5,731.167 1390.5,779.5 Z M 1390.5,484.5 C 1409.5,484.333 1428.5,484.5 1447.5,485C 1491.74,487.904 1509.58,511.071 1501,554.5C 1496.66,568.84 1487.49,578.673 1473.5,584C 1466.43,586.814 1459.1,588.481 1451.5,589C 1431.17,589.5 1410.84,589.667 1390.5,589.5C 1390.5,554.5 1390.5,519.5 1390.5,484.5 Z"/></g>
<g><path style="opacity:0.99" fill="#a72a22" d="M 2273.5,779.5 C 2253.17,779.5 2232.83,779.5 2212.5,779.5C 2204.95,767.107 2196.78,755.107 2188,743.5C 2177.58,725.667 2166.92,708.001 2156,690.5C 2143.25,671.748 2127.75,655.582 2109.5,642C 2102.06,637.805 2094.06,635.472 2085.5,635C 2077.17,634.5 2068.84,634.334 2060.5,634.5C 2060.5,682.833 2060.5,731.167 2060.5,779.5C 2043.83,779.5 2027.17,779.5 2010.5,779.5C 2010.5,666.167 2010.5,552.833 2010.5,439.5C 2042.17,439.333 2073.84,439.5 2105.5,440C 2133.04,440.179 2157.71,448.513 2179.5,465C 2200.77,483.951 2211.11,507.785 2210.5,536.5C 2209.38,576.273 2190.71,604.106 2154.5,620C 2170.37,631.541 2183.87,645.375 2195,661.5C 2211.75,685.991 2227.75,710.991 2243,736.5C 2253.18,750.863 2263.34,765.196 2273.5,779.5 Z M 2060.5,483.5 C 2076.53,483.176 2092.53,483.676 2108.5,485C 2138.92,488.256 2155.26,505.089 2157.5,535.5C 2156.04,565.126 2140.7,582.292 2111.5,587C 2094.53,588.375 2077.53,588.875 2060.5,588.5C 2060.5,553.5 2060.5,518.5 2060.5,483.5 Z"/></g>
<g><path style="opacity:0.991" fill="#a72a22" d="M 2404.5,779.5 C 2387.5,779.5 2370.5,779.5 2353.5,779.5C 2353.5,681.167 2353.5,582.833 2353.5,484.5C 2314.5,484.5 2275.5,484.5 2236.5,484.5C 2236.5,469.5 2236.5,454.5 2236.5,439.5C 2332.17,439.5 2427.83,439.5 2523.5,439.5C 2523.5,454.5 2523.5,469.5 2523.5,484.5C 2483.83,484.5 2444.17,484.5 2404.5,484.5C 2404.5,582.833 2404.5,681.167 2404.5,779.5 Z"/></g>
<g><path style="opacity:0.443" fill="#ce908c" d="M 716.5,450.5 C 717.01,453.388 716.344,455.721 714.5,457.5C 715.065,455.048 715.732,452.715 716.5,450.5 Z"/></g>
<g><path style="opacity:1" fill="#a71d1e" d="M 692.5,570.5 C 694.863,568.793 697.196,567.126 699.5,565.5C 700.492,565.672 701.158,565.338 701.5,564.5C 703.167,564.5 704.833,564.5 706.5,564.5C 707.286,570.814 707.953,577.147 708.5,583.5C 718.485,582.346 723.985,576.68 725,566.5C 726.032,564.973 727.199,563.64 728.5,562.5C 730.226,562.185 731.893,562.019 733.5,562C 739.135,570.935 738.801,579.602 732.5,588C 726.002,592.417 719.335,596.584 712.5,600.5C 711.569,609.823 710.736,619.156 710,628.5C 708.412,631.174 707.245,634.008 706.5,637C 707.245,639.992 708.412,642.826 710,645.5C 715.052,651.887 719.718,658.554 724,665.5C 727.098,666.634 729.931,668.134 732.5,670C 732.96,671.301 733.294,672.634 733.5,674C 728.061,695.135 714.895,702.635 694,696.5C 692.862,696.989 691.695,697.322 690.5,697.5C 681.348,696.506 672.015,696.173 662.5,696.5C 659.518,696.037 656.518,695.704 653.5,695.5C 650.722,694.032 647.722,693.199 644.5,693C 636.419,687.632 627.585,683.799 618,681.5C 616.97,681.164 616.47,680.497 616.5,679.5C 616.811,678.522 617.478,677.855 618.5,677.5C 621.345,679.191 623.679,678.857 625.5,676.5C 628.835,675.539 630.501,673.206 630.5,669.5C 630.842,668.662 631.508,668.328 632.5,668.5C 636.522,663.949 639.022,658.616 640,652.5C 641.439,650.986 642.939,650.653 644.5,651.5C 645.738,649.266 647.404,648.932 649.5,650.5C 650.647,650.182 651.481,649.516 652,648.5C 654.188,649.526 656.688,649.526 659.5,648.5C 662.675,650.091 666.009,651.091 669.5,651.5C 668.946,647.945 666.946,645.612 663.5,644.5C 661.596,644.262 660.262,643.262 659.5,641.5C 659.586,640.504 659.252,639.671 658.5,639C 656.783,637.441 654.783,636.608 652.5,636.5C 650.216,636.025 648.216,635.025 646.5,633.5C 643.082,630.618 639.082,628.451 634.5,627C 633.589,624.585 631.922,623.085 629.5,622.5C 629.167,621.833 628.833,621.167 628.5,620.5C 627.544,618.484 626.21,616.651 624.5,615C 623.552,614.517 622.552,614.351 621.5,614.5C 621.5,612.5 620.5,611.5 618.5,611.5C 618.179,609.952 617.179,609.285 615.5,609.5C 612.945,605.275 609.279,602.608 604.5,601.5C 603.508,601.672 602.842,601.338 602.5,600.5C 596.883,597.59 590.883,595.59 584.5,594.5C 581.848,591.84 578.515,590.174 574.5,589.5C 573.893,589.624 573.56,589.957 573.5,590.5C 572.221,589.032 570.554,588.365 568.5,588.5C 567.101,587.11 565.434,586.11 563.5,585.5C 560.309,586.241 557.309,585.574 554.5,583.5C 552.035,583.233 549.701,582.566 547.5,581.5C 546.833,581.5 546.167,581.5 545.5,581.5C 543.984,578.467 541.984,575.8 539.5,573.5C 539.658,568.864 537.658,565.864 533.5,564.5C 531.832,562.521 531.166,560.188 531.5,557.5C 531.98,552.41 533.314,547.576 535.5,543C 535.129,541.397 534.795,539.897 534.5,538.5C 534.5,537.5 534.5,536.5 534.5,535.5C 534.938,535.565 535.272,535.399 535.5,535C 535.141,532.37 534.141,530.203 532.5,528.5C 532.5,528.167 532.5,527.833 532.5,527.5C 532.81,524.464 531.143,522.797 527.5,522.5C 524.713,520.671 521.546,519.671 518,519.5C 511.412,520.109 505.246,521.775 499.5,524.5C 496.934,525.392 494.934,527.058 493.5,529.5C 493.919,530.672 494.585,531.672 495.5,532.5C 494.05,533.85 493.383,535.516 493.5,537.5C 492.227,538.077 492.227,538.743 493.5,539.5C 495.648,539.299 497.814,538.966 500,538.5C 501.626,539.289 503.126,540.289 504.5,541.5C 508.294,546.421 510.961,551.755 512.5,557.5C 512.5,557.833 512.5,558.167 512.5,558.5C 510.695,561.64 509.695,565.14 509.5,569C 511.544,573.658 510.544,577.492 506.5,580.5C 506.863,581.183 507.196,581.85 507.5,582.5C 506.903,582.735 506.57,583.235 506.5,584C 507.41,585.749 508.743,586.916 510.5,587.5C 511.189,588.774 512.023,588.774 513,587.5C 514.51,583.7 514.677,580.033 513.5,576.5C 514.75,576.423 515.583,575.756 516,574.5C 516.167,575 516.333,575.5 516.5,576C 516.718,580.457 516.051,584.957 514.5,589.5C 514.5,590.167 514.167,590.5 513.5,590.5C 511.069,596.628 508.735,602.794 506.5,609C 506.833,609.333 507.167,609.667 507.5,610C 505.235,616.159 504.235,622.325 504.5,628.5C 504.5,631.833 504.5,635.167 504.5,638.5C 503.957,638.56 503.624,638.893 503.5,639.5C 504.089,642.64 504.756,645.64 505.5,648.5C 506.338,648.842 506.672,649.508 506.5,650.5C 505.888,653.304 505.888,656.304 506.5,659.5C 501.971,658.363 497.304,657.697 492.5,657.5C 478.524,659.328 464.524,661.495 450.5,664C 443.955,667.827 437.621,671.827 431.5,676C 427.202,677.747 422.868,677.747 418.5,676C 410.957,671.373 402.957,667.706 394.5,665C 392.833,664.333 391.167,664.333 389.5,665C 387.779,666.527 385.779,667.527 383.5,668C 378.942,678.671 373.442,688.838 367,698.5C 361.352,720.864 368.852,736.864 389.5,746.5C 390.429,747.689 390.762,749.022 390.5,750.5C 384.948,751.041 379.448,751.708 374,752.5C 369.472,751.968 365.972,749.802 363.5,746C 361.22,745.767 359.22,744.934 357.5,743.5C 355.213,739.878 352.547,736.545 349.5,733.5C 347.831,730.123 346.165,726.79 344.5,723.5C 345.167,722.833 345.833,722.167 346.5,721.5C 346.376,720.893 346.043,720.56 345.5,720.5C 344.02,717.613 342.687,714.613 341.5,711.5C 340.503,718.803 340.169,726.137 340.5,733.5C 344.989,741.336 350.656,748.336 357.5,754.5C 358.429,755.689 358.762,757.022 358.5,758.5C 356.002,759.627 353.336,760.294 350.5,760.5C 344.628,759.009 338.628,758.175 332.5,758C 329.466,755.62 326.299,753.454 323,751.5C 323.331,749.981 323.164,748.648 322.5,747.5C 322.038,743.489 320.538,739.823 318,736.5C 318.201,722.35 316.201,708.35 312,694.5C 311.614,685.368 312.28,676.368 314,667.5C 307.581,659.26 301.081,651.26 294.5,643.5C 289.576,633.743 285.909,623.076 283.5,611.5C 282.028,613.616 280.861,615.949 280,618.5C 279.333,630.833 279.333,643.167 280,655.5C 280.928,664.878 283.261,673.878 287,682.5C 287.444,689.547 288.277,696.547 289.5,703.5C 288.624,707.403 287.124,711.07 285,714.5C 284.501,718.486 284.334,722.486 284.5,726.5C 284.172,730.354 284.838,734.021 286.5,737.5C 286.167,738.167 285.833,738.833 285.5,739.5C 284.048,738.06 283.048,736.394 282.5,734.5C 281.116,733.199 279.616,733.199 278,734.5C 275.957,732.792 274.29,730.792 273,728.5C 272.503,731.146 272.336,733.813 272.5,736.5C 271.325,736.719 270.325,736.386 269.5,735.5C 268.057,729.88 268.39,724.38 270.5,719C 268.627,712.986 268.127,706.819 269,700.5C 271.682,694.274 273.182,687.774 273.5,681C 270.247,663.975 269.081,646.808 270,629.5C 270.93,614.154 275.763,600.487 284.5,588.5C 287.023,579.745 289.856,571.078 293,562.5C 296.816,555.982 301.649,550.482 307.5,546C 319.316,538.924 330.983,531.591 342.5,524C 354.363,518.451 366.696,514.451 379.5,512C 406.105,506.414 433.105,503.581 460.5,503.5C 490.143,505.379 519.81,506.879 549.5,508C 577.608,509.521 603.608,517.521 627.5,532C 646.578,546.622 665.745,561.122 685,575.5C 688.153,574.683 690.653,573.017 692.5,570.5 Z"/></g>
<g><path style="opacity:1" fill="#b97777" d="M 527.5,522.5 C 518.004,520.893 508.671,521.559 499.5,524.5C 505.246,521.775 511.412,520.109 518,519.5C 521.546,519.671 524.713,520.671 527.5,522.5 Z"/></g>
<g><path style="opacity:1" fill="#fefdfd" d="M 527.5,522.5 C 528.833,524.5 530.5,526.167 532.5,527.5C 532.5,527.833 532.5,528.167 532.5,528.5C 532.927,531.01 533.593,533.343 534.5,535.5C 534.5,536.5 534.5,537.5 534.5,538.5C 532.874,543.888 531.541,549.388 530.5,555C 530.528,556.07 530.861,556.903 531.5,557.5C 531.166,560.188 531.832,562.521 533.5,564.5C 536.233,567.075 538.233,570.075 539.5,573.5C 539.351,574.552 539.517,575.552 540,576.5C 541.426,578.766 543.26,580.432 545.5,581.5C 546.167,581.5 546.833,581.5 547.5,581.5C 547.577,582.75 548.244,583.583 549.5,584C 551.387,584.78 553.054,584.613 554.5,583.5C 557.309,585.574 560.309,586.241 563.5,585.5C 564.3,587.741 565.966,588.741 568.5,588.5C 570.554,588.365 572.221,589.032 573.5,590.5C 576.834,592.613 580.5,593.946 584.5,594.5C 590.196,597.098 596.196,599.098 602.5,600.5C 602.842,601.338 603.508,601.672 604.5,601.5C 604.369,602.376 604.702,603.043 605.5,603.5C 609.13,605.157 612.464,607.157 615.5,609.5C 615.973,610.906 616.973,611.573 618.5,611.5C 620.5,611.5 621.5,612.5 621.5,614.5C 623.239,617.243 625.573,619.243 628.5,620.5C 628.833,621.167 629.167,621.833 629.5,622.5C 629.953,623.458 630.619,624.292 631.5,625C 629.134,625.562 626.801,625.396 624.5,624.5C 622.627,624.482 622.294,624.982 623.5,626C 631.351,628.044 639.018,630.544 646.5,633.5C 648.216,635.025 650.216,636.025 652.5,636.5C 654.619,638.4 656.953,640.066 659.5,641.5C 660.262,643.262 661.596,644.262 663.5,644.5C 664.141,645.482 664.807,646.482 665.5,647.5C 656.058,646.902 646.725,648.069 637.5,651C 638.576,652.726 638.743,654.559 638,656.5C 635.854,660.441 634.021,664.441 632.5,668.5C 631.508,668.328 630.842,668.662 630.5,669.5C 628.6,671.619 626.934,673.953 625.5,676.5C 623.227,677.695 620.894,677.695 618.5,676.5C 616.484,677.178 614.484,677.844 612.5,678.5C 609.027,678.398 605.861,677.398 603,675.5C 600.976,677.016 598.809,678.349 596.5,679.5C 595.614,680.325 595.281,681.325 595.5,682.5C 594.833,682.5 594.167,682.5 593.5,682.5C 589.366,681.515 585.032,681.182 580.5,681.5C 580.216,683.415 580.549,685.081 581.5,686.5C 580.37,688.315 579.704,690.315 579.5,692.5C 578.263,693.965 577.263,695.632 576.5,697.5C 576.5,697.833 576.5,698.167 576.5,698.5C 575.883,698.611 575.383,698.944 575,699.5C 574.075,707.626 572.575,715.626 570.5,723.5C 570.634,725.292 570.301,726.958 569.5,728.5C 568.899,732.898 570.233,736.731 573.5,740C 571.527,740.495 569.527,740.662 567.5,740.5C 566.85,740.804 566.183,741.137 565.5,741.5C 563.833,740.167 562.167,738.833 560.5,737.5C 556.813,739.533 553.147,741.533 549.5,743.5C 548.548,741.955 548.215,740.288 548.5,738.5C 550.681,738.716 552.347,737.883 553.5,736C 553.167,735.667 552.833,735.333 552.5,735C 548.31,736.208 543.977,736.874 539.5,737C 541.481,736.395 541.815,735.395 540.5,734C 542.126,734.195 543.793,734.195 545.5,734C 542.981,733.414 540.981,732.247 539.5,730.5C 539.833,730.5 540.167,730.5 540.5,730.5C 544.861,731.763 549.194,731.263 553.5,729C 556.474,725.872 558.807,722.372 560.5,718.5C 561.234,717.292 561.567,715.959 561.5,714.5C 563.667,709.17 564.667,703.503 564.5,697.5C 564.5,696.167 564.5,694.833 564.5,693.5C 564.5,692.5 564.5,691.5 564.5,690.5C 562.784,690.371 561.117,690.038 559.5,689.5C 557.847,689.34 556.514,688.674 555.5,687.5C 552.713,686.523 549.713,686.19 546.5,686.5C 532.752,686.293 521.752,680.793 513.5,670C 512.906,669.536 512.239,669.369 511.5,669.5C 511.5,669.167 511.5,668.833 511.5,668.5C 512.043,668.44 512.376,668.107 512.5,667.5C 511.391,664.292 510.058,661.292 508.5,658.5C 507.745,655.947 507.078,653.28 506.5,650.5C 506.672,649.508 506.338,648.842 505.5,648.5C 505.813,644.958 505.479,641.625 504.5,638.5C 504.5,635.167 504.5,631.833 504.5,628.5C 507.493,615.958 510.493,603.291 513.5,590.5C 514.167,590.5 514.5,590.167 514.5,589.5C 515.793,588.158 516.626,586.491 517,584.5C 517.204,577.783 517.704,571.117 518.5,564.5C 517.507,561.877 516.174,561.377 514.5,563C 513.854,567.543 513.52,572.043 513.5,576.5C 512.679,579.641 512.179,582.975 512,586.5C 511.617,587.056 511.117,587.389 510.5,587.5C 508.743,586.916 507.41,585.749 506.5,584C 506.57,583.235 506.903,582.735 507.5,582.5C 508.644,580.9 509.811,579.233 511,577.5C 511.293,571.133 511.793,564.8 512.5,558.5C 512.5,558.167 512.5,557.833 512.5,557.5C 512.441,549.212 509.107,542.712 502.5,538C 499.518,537.502 496.518,537.335 493.5,537.5C 493.383,535.516 494.05,533.85 495.5,532.5C 494.585,531.672 493.919,530.672 493.5,529.5C 494.934,527.058 496.934,525.392 499.5,524.5C 508.671,521.559 518.004,520.893 527.5,522.5 Z"/></g>
<g><path style="opacity:1" fill="#c28a89" d="M 527.5,522.5 C 531.143,522.797 532.81,524.464 532.5,527.5C 530.5,526.167 528.833,524.5 527.5,522.5 Z"/></g>
<g><path style="opacity:1" fill="#b77e7d" d="M 532.5,528.5 C 534.141,530.203 535.141,532.37 535.5,535C 535.272,535.399 534.938,535.565 534.5,535.5C 533.593,533.343 532.927,531.01 532.5,528.5 Z"/></g>
<g><path style="opacity:1" fill="#bd807f" d="M 493.5,537.5 C 496.518,537.335 499.518,537.502 502.5,538C 509.107,542.712 512.441,549.212 512.5,557.5C 510.961,551.755 508.294,546.421 504.5,541.5C 503.126,540.289 501.626,539.289 500,538.5C 497.814,538.966 495.648,539.299 493.5,539.5C 492.227,538.743 492.227,538.077 493.5,537.5 Z"/></g>
<g><path style="opacity:1" fill="#b57473" d="M 534.5,538.5 C 534.795,539.897 535.129,541.397 535.5,543C 533.314,547.576 531.98,552.41 531.5,557.5C 530.861,556.903 530.528,556.07 530.5,555C 531.541,549.388 532.874,543.888 534.5,538.5 Z"/></g>
<g><path style="opacity:0.529" fill="#daa6a4" d="M 699.5,555.5 C 700.167,558.5 700.833,561.5 701.5,564.5C 701.158,565.338 700.492,565.672 699.5,565.5C 699.5,562.167 699.5,558.833 699.5,555.5 Z"/></g>
<g><path style="opacity:1" fill="#bd8080" d="M 514.5,589.5 C 516.051,584.957 516.718,580.457 516.5,576C 516.333,575.5 516.167,575 516,574.5C 515.583,575.756 514.75,576.423 513.5,576.5C 513.52,572.043 513.854,567.543 514.5,563C 516.174,561.377 517.507,561.877 518.5,564.5C 517.704,571.117 517.204,577.783 517,584.5C 516.626,586.491 515.793,588.158 514.5,589.5 Z"/></g>
<g><path style="opacity:1" fill="#b4615f" d="M 533.5,564.5 C 537.658,565.864 539.658,568.864 539.5,573.5C 538.233,570.075 536.233,567.075 533.5,564.5 Z"/></g>
<g><path style="opacity:1" fill="#b36b6a" d="M 512.5,558.5 C 511.793,564.8 511.293,571.133 511,577.5C 509.811,579.233 508.644,580.9 507.5,582.5C 507.196,581.85 506.863,581.183 506.5,580.5C 510.544,577.492 511.544,573.658 509.5,569C 509.695,565.14 510.695,561.64 512.5,558.5 Z"/></g>
<g><path style="opacity:1" fill="#bf7b7a" d="M 539.5,573.5 C 541.984,575.8 543.984,578.467 545.5,581.5C 543.26,580.432 541.426,578.766 540,576.5C 539.517,575.552 539.351,574.552 539.5,573.5 Z"/></g>
<g><path style="opacity:1" fill="#b36e6e" d="M 513.5,576.5 C 514.677,580.033 514.51,583.7 513,587.5C 512.023,588.774 511.189,588.774 510.5,587.5C 511.117,587.389 511.617,587.056 512,586.5C 512.179,582.975 512.679,579.641 513.5,576.5 Z"/></g>
<g><path style="opacity:1" fill="#b66f6f" d="M 547.5,581.5 C 549.701,582.566 552.035,583.233 554.5,583.5C 553.054,584.613 551.387,584.78 549.5,584C 548.244,583.583 547.577,582.75 547.5,581.5 Z"/></g>
<g><path style="opacity:1" fill="#bd8080" d="M 563.5,585.5 C 565.434,586.11 567.101,587.11 568.5,588.5C 565.966,588.741 564.3,587.741 563.5,585.5 Z"/></g>
<g><path style="opacity:1" fill="#bd7c7c" d="M 573.5,590.5 C 573.56,589.957 573.893,589.624 574.5,589.5C 578.515,590.174 581.848,591.84 584.5,594.5C 580.5,593.946 576.834,592.613 573.5,590.5 Z"/></g>
<g><path style="opacity:1" fill="#b86868" d="M 584.5,594.5 C 590.883,595.59 596.883,597.59 602.5,600.5C 596.196,599.098 590.196,597.098 584.5,594.5 Z"/></g>
<g><path style="opacity:1" fill="#b76e6d" d="M 513.5,590.5 C 510.493,603.291 507.493,615.958 504.5,628.5C 504.235,622.325 505.235,616.159 507.5,610C 507.167,609.667 506.833,609.333 506.5,609C 508.735,602.794 511.069,596.628 513.5,590.5 Z"/></g>
<g><path style="opacity:1" fill="#b96967" d="M 604.5,601.5 C 609.279,602.608 612.945,605.275 615.5,609.5C 612.464,607.157 609.13,605.157 605.5,603.5C 604.702,603.043 604.369,602.376 604.5,601.5 Z"/></g>
<g><path style="opacity:1" fill="#bc8181" d="M 615.5,609.5 C 617.179,609.285 618.179,609.952 618.5,611.5C 616.973,611.573 615.973,610.906 615.5,609.5 Z"/></g>
<g><path style="opacity:0.31" fill="#a82a20" d="M 294.5,643.5 C 295.972,647.668 297.139,652.001 298,656.5C 301.159,659.022 301.159,661.689 298,664.5C 297.767,682.263 296.433,699.929 294,717.5C 290.896,720.623 287.73,723.623 284.5,726.5C 284.334,722.486 284.501,718.486 285,714.5C 287.124,711.07 288.624,707.403 289.5,703.5C 288.277,696.547 287.444,689.547 287,682.5C 283.261,673.878 280.928,664.878 280,655.5C 279.333,643.167 279.333,630.833 280,618.5C 280.861,615.949 282.028,613.616 283.5,611.5C 285.909,623.076 289.576,633.743 294.5,643.5 Z"/></g>
<g><path style="opacity:1" fill="#c48e8e" d="M 621.5,614.5 C 622.552,614.351 623.552,614.517 624.5,615C 626.21,616.651 627.544,618.484 628.5,620.5C 625.573,619.243 623.239,617.243 621.5,614.5 Z"/></g>
<g><path style="opacity:1" fill="#b76b6a" d="M 629.5,622.5 C 631.922,623.085 633.589,624.585 634.5,627C 639.082,628.451 643.082,630.618 646.5,633.5C 639.018,630.544 631.351,628.044 623.5,626C 622.294,624.982 622.627,624.482 624.5,624.5C 626.801,625.396 629.134,625.562 631.5,625C 630.619,624.292 629.953,623.458 629.5,622.5 Z"/></g>
<g><path style="opacity:1" fill="#b76565" d="M 652.5,636.5 C 654.783,636.608 656.783,637.441 658.5,639C 659.252,639.671 659.586,640.504 659.5,641.5C 656.953,640.066 654.619,638.4 652.5,636.5 Z"/></g>
<g><path style="opacity:1" fill="#ac6565" d="M 504.5,638.5 C 505.479,641.625 505.813,644.958 505.5,648.5C 504.756,645.64 504.089,642.64 503.5,639.5C 503.624,638.893 503.957,638.56 504.5,638.5 Z"/></g>
<g><path style="opacity:1" fill="#fcf8f8" d="M 294.5,643.5 C 301.081,651.26 307.581,659.26 314,667.5C 312.28,676.368 311.614,685.368 312,694.5C 316.201,708.35 318.201,722.35 318,736.5C 320.538,739.823 322.038,743.489 322.5,747.5C 307.091,754.369 290.757,756.369 273.5,753.5C 272.337,751.715 271.67,749.715 271.5,747.5C 271.963,740.439 275.63,736.106 282.5,734.5C 283.048,736.394 284.048,738.06 285.5,739.5C 285.833,738.833 286.167,738.167 286.5,737.5C 284.838,734.021 284.172,730.354 284.5,726.5C 287.73,723.623 290.896,720.623 294,717.5C 296.433,699.929 297.767,682.263 298,664.5C 301.159,661.689 301.159,659.022 298,656.5C 297.139,652.001 295.972,647.668 294.5,643.5 Z"/></g>
<g><path style="opacity:1" fill="#bd7a79" d="M 663.5,644.5 C 666.946,645.612 668.946,647.945 669.5,651.5C 666.009,651.091 662.675,650.091 659.5,648.5C 656.688,649.526 654.188,649.526 652,648.5C 651.481,649.516 650.647,650.182 649.5,650.5C 647.404,648.932 645.738,649.266 644.5,651.5C 642.939,650.653 641.439,650.986 640,652.5C 639.022,658.616 636.522,663.949 632.5,668.5C 634.021,664.441 635.854,660.441 638,656.5C 638.743,654.559 638.576,652.726 637.5,651C 646.725,648.069 656.058,646.902 665.5,647.5C 664.807,646.482 664.141,645.482 663.5,644.5 Z"/></g>
<g><path style="opacity:0.922" fill="#c5b4b3" d="M 508.5,658.5 C 510.058,661.292 511.391,664.292 512.5,667.5C 512.376,668.107 512.043,668.44 511.5,668.5C 508.465,665.731 507.465,662.397 508.5,658.5 Z"/></g>
<g><path style="opacity:1" fill="#b96563" d="M 630.5,669.5 C 630.501,673.206 628.835,675.539 625.5,676.5C 626.934,673.953 628.6,671.619 630.5,669.5 Z"/></g>
<g><path style="opacity:0.89" fill="#cbbcba" d="M 511.5,669.5 C 512.239,669.369 512.906,669.536 513.5,670C 521.752,680.793 532.752,686.293 546.5,686.5C 546.167,687.167 545.833,687.833 545.5,688.5C 541.314,687.099 536.981,686.266 532.5,686C 523.226,683.208 516.226,677.708 511.5,669.5 Z"/></g>
<g><path style="opacity:0.875" fill="#d0c2c1" d="M 612.5,678.5 C 611.081,679.451 609.415,679.784 607.5,679.5C 605.83,679.249 604.33,678.582 603,677.5C 600.346,678.996 597.846,680.663 595.5,682.5C 595.281,681.325 595.614,680.325 596.5,679.5C 598.809,678.349 600.976,677.016 603,675.5C 605.861,677.398 609.027,678.398 612.5,678.5 Z"/></g>
<g><path style="opacity:0.533" fill="#c88988" d="M 625.5,676.5 C 623.679,678.857 621.345,679.191 618.5,677.5C 617.478,677.855 616.811,678.522 616.5,679.5C 613.362,680.681 610.362,680.681 607.5,679.5C 609.415,679.784 611.081,679.451 612.5,678.5C 614.484,677.844 616.484,677.178 618.5,676.5C 620.894,677.695 623.227,677.695 625.5,676.5 Z"/></g>
<g><path style="opacity:0.671" fill="#d2b1b0" d="M 593.5,682.5 C 590.995,683.497 588.328,683.497 585.5,682.5C 583.866,683.581 582.533,684.915 581.5,686.5C 580.549,685.081 580.216,683.415 580.5,681.5C 585.032,681.182 589.366,681.515 593.5,682.5 Z"/></g>
<g><path style="opacity:0.996" fill="#a82020" d="M 585.5,682.5 C 586.66,683.265 587.66,684.265 588.5,685.5C 580.284,712.009 586.618,734.009 607.5,751.5C 607.291,752.086 606.957,752.586 606.5,753C 596.63,755.587 587.13,754.754 578,750.5C 575.88,751.459 573.713,751.626 571.5,751C 569.885,748.658 568.551,746.158 567.5,743.5C 567.5,742.833 567.5,742.167 567.5,741.5C 569.547,741.511 571.547,741.844 573.5,742.5C 574.737,742.444 575.737,741.944 576.5,741C 572.371,737.728 570.038,733.561 569.5,728.5C 570.301,726.958 570.634,725.292 570.5,723.5C 571.586,723.38 572.253,722.713 572.5,721.5C 573.559,716.065 574.892,710.732 576.5,705.5C 575.328,703.177 575.328,700.844 576.5,698.5C 576.5,698.167 576.5,697.833 576.5,697.5C 579.084,696.952 580.084,695.285 579.5,692.5C 579.704,690.315 580.37,688.315 581.5,686.5C 582.533,684.915 583.866,683.581 585.5,682.5 Z"/></g>
<g><path style="opacity:1" fill="#c88e8e" d="M 546.5,686.5 C 549.713,686.19 552.713,686.523 555.5,687.5C 552.214,688.207 548.881,688.54 545.5,688.5C 545.833,687.833 546.167,687.167 546.5,686.5 Z"/></g>
<g><path style="opacity:1" fill="#b66b6a" d="M 559.5,689.5 C 561.117,690.038 562.784,690.371 564.5,690.5C 564.5,691.5 564.5,692.5 564.5,693.5C 562.804,692.166 561.138,690.832 559.5,689.5 Z"/></g>
<g><path style="opacity:1" fill="#cca4a3" d="M 579.5,692.5 C 580.084,695.285 579.084,696.952 576.5,697.5C 577.263,695.632 578.263,693.965 579.5,692.5 Z"/></g>
<g><path style="opacity:0.999" fill="#fdfbfb" d="M 653.5,695.5 C 656.518,695.704 659.518,696.037 662.5,696.5C 671.914,696.888 681.247,697.888 690.5,699.5C 694.043,699.923 696.376,701.756 697.5,705C 696.5,707.5 695.5,710 694.5,712.5C 692.339,713.035 690.339,713.868 688.5,715C 692.69,718.481 693.19,722.315 690,726.5C 688.644,727.38 687.144,727.714 685.5,727.5C 685.029,736.832 682.695,745.665 678.5,754C 665.167,754.667 651.833,754.667 638.5,754C 634.885,753.115 631.385,751.948 628,750.5C 626.113,743.941 628.28,739.274 634.5,736.5C 636.434,727.295 640.934,719.629 648,713.5C 649.605,707.333 651.438,701.333 653.5,695.5 Z"/></g>
<g><path style="opacity:1" fill="#dba7a7" d="M 662.5,696.5 C 672.015,696.173 681.348,696.506 690.5,697.5C 690.5,698.167 690.5,698.833 690.5,699.5C 681.247,697.888 671.914,696.888 662.5,696.5 Z"/></g>
<g><path style="opacity:1" fill="#bd8b8b" d="M 564.5,697.5 C 564.667,703.503 563.667,709.17 561.5,714.5C 561.844,710.772 562.51,707.105 563.5,703.5C 562.566,701.298 562.9,699.298 564.5,697.5 Z"/></g>
<g><path style="opacity:1" fill="#c08f8f" d="M 576.5,698.5 C 575.328,700.844 575.328,703.177 576.5,705.5C 574.892,710.732 573.559,716.065 572.5,721.5C 572.253,722.713 571.586,723.38 570.5,723.5C 572.575,715.626 574.075,707.626 575,699.5C 575.383,698.944 575.883,698.611 576.5,698.5 Z"/></g>
<g><path style="opacity:1" fill="#efd6d6" d="M 345.5,720.5 C 344.365,721.474 343.365,722.641 342.5,724C 343.591,726.064 343.758,728.231 343,730.5C 342.764,732.119 341.931,733.119 340.5,733.5C 340.169,726.137 340.503,718.803 341.5,711.5C 342.687,714.613 344.02,717.613 345.5,720.5 Z"/></g>
<g><path style="opacity:0.902" fill="#c8b5b3" d="M 560.5,718.5 C 558.807,722.372 556.474,725.872 553.5,729C 549.194,731.263 544.861,731.763 540.5,730.5C 548.562,730.287 554.228,726.621 557.5,719.5C 558.325,718.614 559.325,718.281 560.5,718.5 Z"/></g>
<g><path style="opacity:0.878" fill="#c2aead" d="M 539.5,730.5 C 540.981,732.247 542.981,733.414 545.5,734C 543.793,734.195 542.126,734.195 540.5,734C 541.815,735.395 541.481,736.395 539.5,737C 543.977,736.874 548.31,736.208 552.5,735C 552.833,735.333 553.167,735.667 553.5,736C 552.347,737.883 550.681,738.716 548.5,738.5C 545.027,738.617 541.361,738.284 537.5,737.5C 538.167,736.5 538.833,735.5 539.5,734.5C 538.295,733.005 538.295,731.672 539.5,730.5 Z"/></g>
<g><path style="opacity:1" fill="#be8382" d="M 569.5,728.5 C 570.038,733.561 572.371,737.728 576.5,741C 575.737,741.944 574.737,742.444 573.5,742.5C 571.547,741.844 569.547,741.511 567.5,741.5C 567.5,741.167 567.5,740.833 567.5,740.5C 569.527,740.662 571.527,740.495 573.5,740C 570.233,736.731 568.899,732.898 569.5,728.5 Z"/></g>
<g><path style="opacity:0.784" fill="#cab5b3" d="M 567.5,740.5 C 567.5,740.833 567.5,741.167 567.5,741.5C 567.5,742.167 567.5,742.833 567.5,743.5C 564.196,743.7 561.696,742.366 560,739.5C 557.888,740.608 556.054,742.108 554.5,744C 553.127,744.875 551.627,745.375 550,745.5C 544.631,744.013 544.131,741.679 548.5,738.5C 548.215,740.288 548.548,741.955 549.5,743.5C 553.147,741.533 556.813,739.533 560.5,737.5C 562.167,738.833 563.833,740.167 565.5,741.5C 566.183,741.137 566.85,740.804 567.5,740.5 Z"/></g>
</svg>
