<svg xmlns="http://www.w3.org/2000/svg" xmlns:xlink="http://www.w3.org/1999/xlink" version="1.1" style="shape-rendering:geometricPrecision; text-rendering:geometricPrecision; image-rendering:optimizeQuality; fill-rule:evenodd; clip-rule:evenodd" viewBox="-0.5 -0.5 487.49 780">
<g><path style="opacity:0.998" fill="#a72a22" d="M -0.5,-0.5 C 138.167,-0.5 276.833,-0.5 415.5,-0.5C 468.757,15.6642 492.257,51.6642 486,107.5C 479.553,145.627 457.72,170.461 420.5,182C 411.299,184.634 401.966,186.634 392.5,188C 361.845,189.2 331.178,190.034 300.5,190.5C 300.5,276.167 300.5,361.833 300.5,447.5C 352.5,447.5 404.5,447.5 456.5,447.5C 456.824,463.078 456.491,478.578 455.5,494C 406.501,494.5 357.501,494.667 308.5,494.5C 308.5,529.167 308.5,563.833 308.5,598.5C 356.167,598.5 403.833,598.5 451.5,598.5C 451.5,613.833 451.5,629.167 451.5,644.5C 403.833,644.5 356.167,644.5 308.5,644.5C 308.5,680.5 308.5,716.5 308.5,752.5C 359.157,751.557 409.824,751.224 460.5,751.5C 460.5,760.833 460.5,770.167 460.5,779.5C 337.167,779.5 213.833,779.5 90.5,779.5C 88.9525,763.848 91.9525,749.182 99.5,735.5C 120.109,743.326 140.776,751.159 161.5,759C 174.5,759.333 187.5,759.667 200.5,760C 209.642,762.691 217.976,761.024 225.5,755C 228.085,751.87 230.585,748.703 233,745.5C 234.525,742.28 235.192,738.947 235,735.5C 234.626,734.584 234.126,733.75 233.5,733C 230.035,732.35 227.035,730.85 224.5,728.5C 219.47,721.302 214.637,713.969 210,706.5C 207.961,702.013 208.294,697.68 211,693.5C 212.484,684.56 213.484,675.56 214,666.5C 221.15,661.256 228.484,656.256 236,651.5C 238.368,645.73 239.035,639.73 238,633.5C 236.876,628.885 234.043,627.385 229.5,629C 226.594,634.067 223.761,639.233 221,644.5C 218.325,646.446 215.492,648.113 212.5,649.5C 210.096,644.153 208.762,638.487 208.5,632.5C 206.579,631.359 204.579,631.192 202.5,632C 197.927,635.575 193.093,638.742 188,641.5C 169.59,628.425 151.757,614.592 134.5,600C 105,582.976 72.9995,574.809 38.5,575.5C 38.4916,579.18 36.8249,581.847 33.5,583.5C 30.5783,581.657 29.245,578.99 29.5,575.5C 26.9179,575.025 24.9179,575.692 23.5,577.5C 22.596,576.791 22.2627,575.791 22.5,574.5C 24.8333,574.5 27.1667,574.5 29.5,574.5C 29.8432,572.517 29.1765,571.183 27.5,570.5C 28.6005,569.395 29.2671,568.062 29.5,566.5C 30.1174,566.611 30.6174,566.944 31,567.5C 31.4996,560.508 31.6663,553.508 31.5,546.5C 32.1666,553.012 32.8333,559.679 33.5,566.5C 41.7386,561.103 49.5719,555.103 57,548.5C 61.6962,540.056 66.1962,531.556 70.5,523C 80.8096,515.365 91.143,507.698 101.5,500C 109.413,496.568 117.413,493.234 125.5,490C 140.315,489.534 154.981,488.867 169.5,488C 176.455,489.275 183.455,490.775 190.5,492.5C 200.018,492.985 209.352,494.152 218.5,496C 220.833,497.667 223.167,499.333 225.5,501C 231.167,501.667 236.833,501.667 242.5,501C 247.074,499.052 251.074,496.386 254.5,493C 257.571,488.087 261.238,483.587 265.5,479.5C 266.168,472.648 267.001,465.981 268,459.5C 262.389,452.053 256.222,445.053 249.5,438.5C 245.24,431.569 240.573,424.902 235.5,418.5C 234.372,417.738 233.205,417.071 232,416.5C 230.847,413.289 230.18,409.956 230,406.5C 229.586,406.043 229.086,405.709 228.5,405.5C 227.671,400.533 227.171,395.533 227,390.5C 221.632,383.132 215.299,376.799 208,371.5C 205.792,368.589 204.458,365.256 204,361.5C 201.653,359.397 199.819,356.897 198.5,354C 203.534,348.758 207.701,342.924 211,336.5C 211.796,330.34 211.129,324.34 209,318.5C 207.211,316.771 205.044,316.104 202.5,316.5C 200.681,323.062 198.181,329.395 195,335.5C 193.745,337.594 191.912,338.594 189.5,338.5C 183.596,336.025 177.596,333.859 171.5,332C 170.7,327.92 170.2,323.753 170,319.5C 167.913,317.255 166.579,314.588 166,311.5C 164.089,308.697 161.589,308.03 158.5,309.5C 158.108,316.412 156.608,323.078 154,329.5C 149.031,333.462 144.031,337.462 139,341.5C 136.933,345.704 135.266,350.037 134,354.5C 133.25,355.126 132.416,355.626 131.5,356C 126.167,356.667 120.833,356.667 115.5,356C 111.886,354.284 108.553,352.118 105.5,349.5C 98.1237,347.797 91.1237,348.631 84.5,352C 82.1667,352.667 79.8333,352.667 77.5,352C 60.7536,349.442 44.5869,344.608 29,337.5C 28.3333,336.167 28.3333,334.833 29,333.5C 41.5219,322.644 53.3552,311.144 64.5,299C 71.7905,294.1 78.6238,288.6 85,282.5C 88.9431,273.614 92.6098,264.614 96,255.5C 98,248.167 98,240.833 96,233.5C 89.4825,213.962 81.9825,194.796 73.5,176C 73.6448,175.228 73.9781,174.561 74.5,174C 76.7463,172.961 78.913,171.794 81,170.5C 80.9183,165.504 80.4183,160.504 79.5,155.5C 79.8333,154.5 80.1667,153.5 80.5,152.5C 82.7466,153.374 85.0799,153.708 87.5,153.5C 86.5147,149.67 84.1813,146.837 80.5,145C 83.028,142.591 84.3613,139.591 84.5,136C 83.6707,131.874 83.3374,127.707 83.5,123.5C 82.325,123.719 81.325,123.386 80.5,122.5C 81.3482,120.591 81.6816,118.591 81.5,116.5C 79.0901,116.921 77.2568,118.254 76,120.5C 76.3383,115.806 76.1716,111.139 75.5,106.5C 73.9104,108.146 72.9104,110.146 72.5,112.5C 71.5041,112.414 70.6708,112.748 70,113.5C 69.8283,108.798 69.3283,104.132 68.5,99.5C 67.8933,99.6236 67.56,99.9569 67.5,100.5C 65.3276,104.308 63.3276,108.308 61.5,112.5C 60.6786,107.197 60.6786,101.863 61.5,96.5C 60.1779,96.33 59.0113,96.6634 58,97.5C 56.5343,101.029 55.5343,104.695 55,108.5C 54,104.167 53,99.8333 52,95.5C 51.3333,96.1667 50.6667,96.8333 50,97.5C 49.2508,101.251 48.2508,104.918 47,108.5C 45.4905,106.792 43.9905,105.126 42.5,103.5C 41.5676,105.766 40.2342,107.766 38.5,109.5C 40.6414,115.959 44.3081,121.292 49.5,125.5C 33.5639,132.357 24.0639,144.357 21,161.5C 17.7509,169.422 12.9175,176.255 6.5,182C 7.5,182.667 8.5,182.667 9.5,182C 10.713,179.674 12.0463,179.341 13.5,181C 13.003,183.827 11.8363,186.327 10,188.5C 9.33333,189.833 9.33333,191.167 10,192.5C 11.9552,191.547 13.6218,190.213 15,188.5C 14.5102,198.292 11.3435,207.126 5.5,215C 7.28261,216.067 7.78261,217.567 7,219.5C 4.69853,220.867 2.19853,221.534 -0.5,221.5C -0.5,147.5 -0.5,73.5 -0.5,-0.5 Z M 300.5,27.5 C 326.169,27.8063 351.836,28.3063 377.5,29C 396.937,30.0341 414.604,36.0341 430.5,47C 446.609,65.4426 451.443,86.6093 445,110.5C 439.348,127.318 428.515,139.485 412.5,147C 401.546,151.238 390.213,153.905 378.5,155C 352.502,155.5 326.502,155.667 300.5,155.5C 300.5,112.833 300.5,70.1667 300.5,27.5 Z"/></g>


<g><path style="opacity:1" fill="#fefefe" d="M 67.5,100.5 C 68.1665,105.349 68.8332,110.349 69.5,115.5C 70.8549,114.812 71.8549,113.812 72.5,112.5C 72.9104,110.146 73.9104,108.146 75.5,106.5C 76.1716,111.139 76.3383,115.806 76,120.5C 77.2568,118.254 79.0901,116.921 81.5,116.5C 81.6816,118.591 81.3482,120.591 80.5,122.5C 81.325,123.386 82.325,123.719 83.5,123.5C 83.3374,127.707 83.6707,131.874 84.5,136C 84.3613,139.591 83.028,142.591 80.5,145C 84.1813,146.837 86.5147,149.67 87.5,153.5C 85.0799,153.708 82.7466,153.374 80.5,152.5C 80.1667,153.5 79.8333,154.5 79.5,155.5C 80.4183,160.504 80.9183,165.504 81,170.5C 78.913,171.794 76.7463,172.961 74.5,174C 73.9781,174.561 73.6448,175.228 73.5,176C 81.9825,194.796 89.4825,213.962 96,233.5C 98,240.833 98,248.167 96,255.5C 92.6098,264.614 88.9431,273.614 85,282.5C 78.6238,288.6 71.7905,294.1 64.5,299C 53.3552,311.144 41.5219,322.644 29,333.5C 28.3333,334.833 28.3333,336.167 29,337.5C 44.5869,344.608 60.7536,349.442 77.5,352C 79.8333,352.667 82.1667,352.667 84.5,352C 91.1237,348.631 98.1237,347.797 105.5,349.5C 108.553,352.118 111.886,354.284 115.5,356C 120.833,356.667 126.167,356.667 131.5,356C 132.416,355.626 133.25,355.126 134,354.5C 135.266,350.037 136.933,345.704 139,341.5C 144.031,337.462 149.031,333.462 154,329.5C 156.608,323.078 158.108,316.412 158.5,309.5C 161.589,308.03 164.089,308.697 166,311.5C 166.579,314.588 167.913,317.255 170,319.5C 170.2,323.753 170.7,327.92 171.5,332C 177.596,333.859 183.596,336.025 189.5,338.5C 191.912,338.594 193.745,337.594 195,335.5C 198.181,329.395 200.681,323.062 202.5,316.5C 205.044,316.104 207.211,316.771 209,318.5C 211.129,324.34 211.796,330.34 211,336.5C 207.701,342.924 203.534,348.758 198.5,354C 199.819,356.897 201.653,359.397 204,361.5C 204.458,365.256 205.792,368.589 208,371.5C 215.299,376.799 221.632,383.132 227,390.5C 227.171,395.533 227.671,400.533 228.5,405.5C 229.086,405.709 229.586,406.043 230,406.5C 230.18,409.956 230.847,413.289 232,416.5C 233.205,417.071 234.372,417.738 235.5,418.5C 240.573,424.902 245.24,431.569 249.5,438.5C 256.222,445.053 262.389,452.053 268,459.5C 267.001,465.981 266.168,472.648 265.5,479.5C 261.238,483.587 257.571,488.087 254.5,493C 251.074,496.386 247.074,499.052 242.5,501C 236.833,501.667 231.167,501.667 225.5,501C 223.167,499.333 220.833,497.667 218.5,496C 209.352,494.152 200.018,492.985 190.5,492.5C 183.455,490.775 176.455,489.275 169.5,488C 154.981,488.867 140.315,489.534 125.5,490C 117.413,493.234 109.413,496.568 101.5,500C 91.143,507.698 80.8096,515.365 70.5,523C 66.1962,531.556 61.6962,540.056 57,548.5C 49.5719,555.103 41.7386,561.103 33.5,566.5C 32.8333,559.679 32.1666,553.012 31.5,546.5C 31.1016,543.517 30.7683,540.517 30.5,537.5C 31.9126,530.321 33.7459,523.321 36,516.5C 38.3822,511.95 41.8822,508.617 46.5,506.5C 51.1667,506.5 55.8333,506.5 60.5,506.5C 60.7373,505.209 60.404,504.209 59.5,503.5C 57.5721,501.219 56.5721,498.553 56.5,495.5C 57.5,495.5 58.5,495.5 59.5,495.5C 59.6734,491.83 58.0067,489.33 54.5,488C 50.2432,486.35 45.9099,484.85 41.5,483.5C 41.3893,482.883 41.056,482.383 40.5,482C 38.5273,481.505 36.5273,481.338 34.5,481.5C 33.5084,481.672 32.8417,481.338 32.5,480.5C 32.2172,479.711 31.7172,479.044 31,478.5C 24.0677,479.15 17.2344,479.817 10.5,480.5C 8.19651,482.255 5.52984,483.422 2.5,484C 2.83333,484.333 3.16667,484.667 3.5,485C 1.92975,486.397 0.596413,487.897 -0.5,489.5C -0.5,400.167 -0.5,310.833 -0.5,221.5C 2.19853,221.534 4.69853,220.867 7,219.5C 7.78261,217.567 7.28261,216.067 5.5,215C 11.3435,207.126 14.5102,198.292 15,188.5C 13.6218,190.213 11.9552,191.547 10,192.5C 9.33333,191.167 9.33333,189.833 10,188.5C 11.8363,186.327 13.003,183.827 13.5,181C 12.0463,179.341 10.713,179.674 9.5,182C 8.5,182.667 7.5,182.667 6.5,182C 12.9175,176.255 17.7509,169.422 21,161.5C 24.0639,144.357 33.5639,132.357 49.5,125.5C 44.3081,121.292 40.6414,115.959 38.5,109.5C 40.2342,107.766 41.5676,105.766 42.5,103.5C 43.9905,105.126 45.4905,106.792 47,108.5C 48.2508,104.918 49.2508,101.251 50,97.5C 50.6667,96.8333 51.3333,96.1667 52,95.5C 53,99.8333 54,104.167 55,108.5C 55.5343,104.695 56.5343,101.029 58,97.5C 59.0113,96.6634 60.1779,96.33 61.5,96.5C 60.6786,101.863 60.6786,107.197 61.5,112.5C 63.3276,108.308 65.3276,104.308 67.5,100.5 Z"/></g>












<g><path style="opacity:1" fill="#a71e1f" d="M 10.5,480.5 C 17.8333,480.5 25.1667,480.5 32.5,480.5C 32.8417,481.338 33.5084,481.672 34.5,481.5C 36.6568,482.407 38.9902,483.073 41.5,483.5C 45.9099,484.85 50.2432,486.35 54.5,488C 58.0067,489.33 59.6734,491.83 59.5,495.5C 58.5,495.5 57.5,495.5 56.5,495.5C 56.5721,498.553 57.5721,501.219 59.5,503.5C 58.4855,504.765 56.9855,505.431 55,505.5C 52.9579,505.385 50.9579,505.051 49,504.5C 47.699,504.639 46.8656,505.305 46.5,506.5C 41.8822,508.617 38.3822,511.95 36,516.5C 33.7459,523.321 31.9126,530.321 30.5,537.5C 30.7683,540.517 31.1016,543.517 31.5,546.5C 31.6663,553.508 31.4996,560.508 31,567.5C 30.6174,566.944 30.1174,566.611 29.5,566.5C 25.7446,563.088 25.2446,559.422 28,555.5C 29.1136,551.05 28.2803,547.05 25.5,543.5C 24.0815,544.005 23.4148,545.005 23.5,546.5C 22.6236,546.369 21.9569,546.702 21.5,547.5C 22.1389,555.806 22.8055,564.139 23.5,572.5C 25.0255,572.006 26.3588,571.339 27.5,570.5C 29.1765,571.183 29.8432,572.517 29.5,574.5C 27.1667,574.5 24.8333,574.5 22.5,574.5C 22.2627,575.791 22.596,576.791 23.5,577.5C 26.9693,586.035 30.136,594.702 33,603.5C 33.7504,604.126 34.5838,604.626 35.5,605C 34.6919,605.308 34.0253,605.808 33.5,606.5C 35.6793,616.608 38.1793,626.608 41,636.5C 43.2316,653.387 42.3982,670.053 38.5,686.5C 37.5933,688.657 36.9267,690.99 36.5,693.5C 33.7213,704.402 28.388,713.735 20.5,721.5C 14.2575,726.724 7.25753,730.724 -0.5,733.5C -0.5,670.5 -0.5,607.5 -0.5,544.5C 1.91366,543.594 2.74699,541.928 2,539.5C 0.996616,541.935 0.496616,541.602 0.5,538.5C 1.47736,537.023 2.14403,535.19 2.5,533C 1.96766,529.251 0.967663,525.751 -0.5,522.5C -0.5,511.5 -0.5,500.5 -0.5,489.5C 0.596413,487.897 1.92975,486.397 3.5,485C 3.16667,484.667 2.83333,484.333 2.5,484C 5.52984,483.422 8.19651,482.255 10.5,480.5 Z"/></g>
<g><path style="opacity:1" fill="#c48989" d="M 34.5,481.5 C 36.5273,481.338 38.5273,481.505 40.5,482C 41.056,482.383 41.3893,482.883 41.5,483.5C 38.9902,483.073 36.6568,482.407 34.5,481.5 Z"/></g>
<g><path style="opacity:1" fill="#b26a6a" d="M 59.5,503.5 C 60.404,504.209 60.7373,505.209 60.5,506.5C 55.8333,506.5 51.1667,506.5 46.5,506.5C 46.8656,505.305 47.699,504.639 49,504.5C 50.9579,505.051 52.9579,505.385 55,505.5C 56.9855,505.431 58.4855,504.765 59.5,503.5 Z"/></g>
<g><path style="opacity:1" fill="#eedede" d="M -0.5,522.5 C 0.967663,525.751 1.96766,529.251 2.5,533C 2.14403,535.19 1.47736,537.023 0.5,538.5C 0.496616,541.602 0.996616,541.935 2,539.5C 2.74699,541.928 1.91366,543.594 -0.5,544.5C -0.5,537.167 -0.5,529.833 -0.5,522.5 Z"/></g>
<g><path style="opacity:1" fill="#f6efef" d="M 29.5,566.5 C 29.2671,568.062 28.6005,569.395 27.5,570.5C 26.1667,570.5 24.8333,570.5 23.5,570.5C 23.5,562.5 23.5,554.5 23.5,546.5C 23.4148,545.005 24.0815,544.005 25.5,543.5C 28.2803,547.05 29.1136,551.05 28,555.5C 25.2446,559.422 25.7446,563.088 29.5,566.5 Z"/></g>
<g><path style="opacity:1" fill="#be7170" d="M 23.5,546.5 C 23.5,554.5 23.5,562.5 23.5,570.5C 24.8333,570.5 26.1667,570.5 27.5,570.5C 26.3588,571.339 25.0255,572.006 23.5,572.5C 22.8055,564.139 22.1389,555.806 21.5,547.5C 21.9569,546.702 22.6236,546.369 23.5,546.5 Z"/></g>
<g><path style="opacity:1" fill="#fefefd" d="M 90.5,779.5 C 81.8333,779.5 73.1667,779.5 64.5,779.5C 61.5038,771.368 58.0038,763.368 54,755.5C 53.4098,743.149 48.2432,733.315 38.5,726C 32.8042,725.83 27.1376,725.33 21.5,724.5C 20.8728,723.583 20.5394,722.583 20.5,721.5C 28.388,713.735 33.7213,704.402 36.5,693.5C 37.1174,693.389 37.6174,693.056 38,692.5C 38.4955,690.527 38.6621,688.527 38.5,686.5C 42.3982,670.053 43.2316,653.387 41,636.5C 38.1793,626.608 35.6793,616.608 33.5,606.5C 34.0253,605.808 34.6919,605.308 35.5,605C 34.5838,604.626 33.7504,604.126 33,603.5C 30.136,594.702 26.9693,586.035 23.5,577.5C 24.9179,575.692 26.9179,575.025 29.5,575.5C 29.245,578.99 30.5783,581.657 33.5,583.5C 36.8249,581.847 38.4916,579.18 38.5,575.5C 72.9995,574.809 105,582.976 134.5,600C 151.757,614.592 169.59,628.425 188,641.5C 193.093,638.742 197.927,635.575 202.5,632C 204.579,631.192 206.579,631.359 208.5,632.5C 208.762,638.487 210.096,644.153 212.5,649.5C 215.492,648.113 218.325,646.446 221,644.5C 223.761,639.233 226.594,634.067 229.5,629C 234.043,627.385 236.876,628.885 238,633.5C 239.035,639.73 238.368,645.73 236,651.5C 228.484,656.256 221.15,661.256 214,666.5C 213.484,675.56 212.484,684.56 211,693.5C 208.294,697.68 207.961,702.013 210,706.5C 214.637,713.969 219.47,721.302 224.5,728.5C 227.035,730.85 230.035,732.35 233.5,733C 234.126,733.75 234.626,734.584 235,735.5C 235.192,738.947 234.525,742.28 233,745.5C 230.585,748.703 228.085,751.87 225.5,755C 217.976,761.024 209.642,762.691 200.5,760C 187.5,759.667 174.5,759.333 161.5,759C 140.776,751.159 120.109,743.326 99.5,735.5C 91.9525,749.182 88.9525,763.848 90.5,779.5 Z"/></g>
<g><path style="opacity:1" fill="#bb7979" d="M 38.5,686.5 C 38.6621,688.527 38.4955,690.527 38,692.5C 37.6174,693.056 37.1174,693.389 36.5,693.5C 36.9267,690.99 37.5933,688.657 38.5,686.5 Z"/></g>
<g><path style="opacity:1" fill="#a62a22" d="M 20.5,721.5 C 20.5394,722.583 20.8728,723.583 21.5,724.5C 27.1376,725.33 32.8042,725.83 38.5,726C 48.2432,733.315 53.4098,743.149 54,755.5C 58.0038,763.368 61.5038,771.368 64.5,779.5C 42.8333,779.5 21.1667,779.5 -0.5,779.5C -0.5,764.167 -0.5,748.833 -0.5,733.5C 7.25753,730.724 14.2575,726.724 20.5,721.5 Z"/></g>
</svg>