<?xml version="1.0" encoding="UTF-8"?>
<!DOCTYPE svg PUBLIC "-//W3C//DTD SVG 1.1//EN" "http://www.w3.org/Graphics/SVG/1.1/DTD/svg11.dtd">
<svg xmlns="http://www.w3.org/2000/svg" version="1.1" width="2097px" height="780px" style="shape-rendering:geometricPrecision; text-rendering:geometricPrecision; image-rendering:optimizeQuality; fill-rule:evenodd; clip-rule:evenodd" xmlns:xlink="http://www.w3.org/1999/xlink">
<g><path style="opacity:0.997" fill="#a72a22" d="M -0.5,-0.5 C 137.833,-0.5 276.167,-0.5 414.5,-0.5C 467.512,13.8083 491.679,48.475 487,103.5C 482.712,136.937 465.212,160.437 434.5,174C 417.203,181.06 399.203,185.06 380.5,186C 355.169,186.5 329.836,186.667 304.5,186.5C 304.5,270.833 304.5,355.167 304.5,439.5C 355.833,439.5 407.167,439.5 458.5,439.5C 458.824,454.745 458.491,469.911 457.5,485C 409.501,485.5 361.501,485.667 313.5,485.5C 313.5,519.5 313.5,553.5 313.5,587.5C 360.167,587.5 406.833,587.5 453.5,587.5C 453.5,602.5 453.5,617.5 453.5,632.5C 406.833,632.5 360.167,632.5 313.5,632.5C 313.5,667.5 313.5,702.5 313.5,737.5C 363.167,737.5 412.833,737.5 462.5,737.5C 462.5,751.5 462.5,765.5 462.5,779.5C 343.167,779.5 223.833,779.5 104.5,779.5C 97.8524,765.019 96.6857,750.019 101,734.5C 103.17,729.78 105.337,725.114 107.5,720.5C 119.777,726.076 132.444,730.743 145.5,734.5C 152.45,739.263 160.117,742.263 168.5,743.5C 181.487,744.333 194.487,744.833 207.5,745C 221.249,747.863 231.416,743.03 238,730.5C 238.33,727.676 239.164,725.009 240.5,722.5C 239.489,720.653 238.489,718.82 237.5,717C 234.387,717.053 231.887,715.886 230,713.5C 223.85,705.196 218.35,696.53 213.5,687.5C 214.577,684.799 215.744,682.133 217,679.5C 218.809,670.26 219.642,660.927 219.5,651.5C 220.552,651.649 221.552,651.483 222.5,651C 228.407,646.462 234.574,642.295 241,638.5C 244.357,630.926 244.19,623.426 240.5,616C 238.833,615.333 237.167,615.333 235.5,616C 232.627,620.602 230.127,625.436 228,630.5C 224.685,633.546 220.852,635.546 216.5,636.5C 216.001,631.508 215.501,626.508 215,621.5C 213.484,618.994 211.318,618.16 208.5,619C 204.35,622.91 199.684,626.076 194.5,628.5C 188.57,625.236 182.903,621.569 177.5,617.5C 164.725,607.42 152.059,597.253 139.5,587C 116.489,573.157 91.4893,565.657 64.5,564.5C 59.0247,563.511 53.358,563.178 47.5,563.5C 47.6602,565.199 47.4935,566.866 47,568.5C 46.8019,566.618 46.3019,564.952 45.5,563.5C 45.1307,561.559 44.464,559.725 43.5,558C 44.1667,557.667 44.8333,557.333 45.5,557C 44.1416,556.066 42.8083,555.232 41.5,554.5C 43.1789,554.108 44.8455,553.608 46.5,553C 52.0445,548.348 57.8778,543.848 64,539.5C 65.6447,536.562 67.6447,533.895 70,531.5C 72.9288,526.018 75.4288,520.351 77.5,514.5C 81.963,511.538 85.963,508.038 89.5,504C 96.1292,499.346 102.796,494.679 109.5,490C 117.167,486.667 124.833,483.333 132.5,480C 144.666,479.907 156.666,479.074 168.5,477.5C 178.06,478.42 187.393,480.087 196.5,482.5C 206.401,482.855 216.068,484.188 225.5,486.5C 229.151,490.865 233.818,492.531 239.5,491.5C 245.668,491.998 251.168,490.331 256,486.5C 256.483,485.552 256.649,484.552 256.5,483.5C 257.552,483.649 258.552,483.483 259.5,483C 262.339,477.818 266.006,473.318 270.5,469.5C 271.329,464.533 271.829,459.533 272,454.5C 272.87,453.892 273.37,453.059 273.5,452C 271.295,449.962 269.795,447.462 269,444.5C 263.598,439.333 258.431,434 253.5,428.5C 249.885,422.063 245.719,416.063 241,410.5C 238.974,410.085 237.474,409.085 236.5,407.5C 235.912,404.39 235.245,401.39 234.5,398.5C 232.791,393.456 231.957,388.122 232,382.5C 230.283,379.209 228.117,376.209 225.5,373.5C 220.04,369.171 215.04,364.504 210.5,359.5C 208.936,354.945 206.936,350.612 204.5,346.5C 209.634,341.573 213.801,335.906 217,329.5C 218.241,322.971 217.075,316.971 213.5,311.5C 211.955,310.548 210.288,310.215 208.5,310.5C 206.76,317.887 203.76,324.721 199.5,331C 198.333,331.167 197.167,331.333 196,331.5C 190.934,329.117 185.767,327.45 180.5,326.5C 179.791,325.596 178.791,325.263 177.5,325.5C 177.818,320.968 177.485,316.634 176.5,312.5C 174.671,309.775 173.005,306.775 171.5,303.5C 169.5,302.167 167.5,302.167 165.5,303.5C 165.201,310.833 163.534,317.833 160.5,324.5C 155.43,327.455 150.597,330.788 146,334.5C 143.768,339.369 141.602,344.202 139.5,349C 129.672,351.543 121.005,349.376 113.5,342.5C 110.833,342.167 108.167,341.833 105.5,341.5C 99.5636,341.986 93.8969,343.319 88.5,345.5C 70.7183,342.708 53.7183,337.708 37.5,330.5C 36.6744,329.549 36.5078,328.549 37,327.5C 51.619,315.049 65.4523,301.716 78.5,287.5C 84.3104,285.172 89.1438,281.505 93,276.5C 97.2005,268.094 100.867,259.428 104,250.5C 104.667,243.167 104.667,235.833 104,228.5C 96.3996,209.198 88.8996,189.864 81.5,170.5C 84.0725,169.781 86.5725,168.781 89,167.5C 88.6714,161.525 88.1714,155.525 87.5,149.5C 89.5914,149.318 91.5914,149.652 93.5,150.5C 95.4776,149.197 95.4776,147.531 93.5,145.5C 89.0016,144.325 88.1683,142.325 91,139.5C 93.0675,135.369 92.9009,131.369 90.5,127.5C 91.3482,125.591 91.6816,123.591 91.5,121.5C 90.1266,121.657 88.7932,121.49 87.5,121C 89.0163,119.103 89.683,116.936 89.5,114.5C 87.1331,115.164 85.1331,116.497 83.5,118.5C 83.1667,118 82.8333,117.5 82.5,117C 84.4467,112.935 84.7801,108.769 83.5,104.5C 82.0408,108.185 79.8741,111.518 77,114.5C 76.51,113.207 76.3433,111.873 76.5,110.5C 77.8111,106.317 77.8111,101.984 76.5,97.5C 75.8933,97.6236 75.56,97.9569 75.5,98.5C 74.2224,102.667 72.5557,106.667 70.5,110.5C 69.6786,105.197 69.6786,99.8632 70.5,94.5C 69.1779,94.33 68.0113,94.6634 67,95.5C 64.4268,111.444 62.7601,111.111 62,94.5C 61.586,94.0426 61.086,93.7093 60.5,93.5C 58.4365,97.5567 57.1032,101.89 56.5,106.5C 54.5414,105.252 53.0414,103.585 52,101.5C 51.1005,103.516 49.7672,105.183 48,106.5C 49.0952,113.653 52.9286,118.986 59.5,122.5C 55.0587,125.224 50.392,127.724 45.5,130C 38.2701,136.988 33.6034,145.155 31.5,154.5C 29.1421,160.749 26.3088,166.749 23,172.5C 20.9261,174.452 18.7594,176.285 16.5,178C 19.2798,178.269 21.4464,177.102 23,174.5C 22.7513,178.692 21.5846,182.692 19.5,186.5C 19.6667,187.167 19.8333,187.833 20,188.5C 21.6667,186.833 23.3333,185.167 25,183.5C 24.9774,193.759 21.8108,202.925 15.5,211C 18.1468,211.315 18.8135,212.482 17.5,214.5C 11.9712,217.874 5.97123,219.874 -0.5,220.5C -0.5,146.833 -0.5,73.1667 -0.5,-0.5 Z M 304.5,27.5 C 331.522,27.1277 358.522,27.6277 385.5,29C 401.454,30.3192 416.121,35.3192 429.5,44C 444.095,55.911 451.095,71.411 450.5,90.5C 448.958,122.887 432.291,142.72 400.5,150C 394.564,151.387 388.564,152.387 382.5,153C 356.502,153.5 330.502,153.667 304.5,153.5C 304.5,111.5 304.5,69.5 304.5,27.5 Z"/></g>
<g><path style="opacity:0.998" fill="#a72a22" d="M 825.5,-0.5 C 837.167,-0.5 848.833,-0.5 860.5,-0.5C 860.5,116.5 860.5,233.5 860.5,350.5C 848.833,350.5 837.167,350.5 825.5,350.5C 825.5,233.5 825.5,116.5 825.5,-0.5 Z"/></g>
<g><path style="opacity:0.97" fill="#a72a22" d="M 1464.5,48.5 C 1476.17,48.5 1487.83,48.5 1499.5,48.5C 1499.5,70.5 1499.5,92.5 1499.5,114.5C 1521.5,114.5 1543.5,114.5 1565.5,114.5C 1565.5,124.833 1565.5,135.167 1565.5,145.5C 1543.5,145.5 1521.5,145.5 1499.5,145.5C 1499.33,193.834 1499.5,242.168 1500,290.5C 1500.5,302.326 1505.33,311.826 1514.5,319C 1531.27,324.459 1547.6,323.292 1563.5,315.5C 1564.68,326.135 1565.35,336.802 1565.5,347.5C 1546.54,353.511 1527.2,355.011 1507.5,352C 1486.22,347.39 1472.72,334.556 1467,313.5C 1466.01,309.558 1465.34,305.558 1465,301.5C 1464.5,249.501 1464.33,197.501 1464.5,145.5C 1448.5,145.5 1432.5,145.5 1416.5,145.5C 1416.5,135.167 1416.5,124.833 1416.5,114.5C 1432.5,114.5 1448.5,114.5 1464.5,114.5C 1464.5,92.5 1464.5,70.5 1464.5,48.5 Z"/></g>
<g><path style="opacity:1" fill="#fefdfd" d="M 75.5,98.5 C 76.4834,102.298 76.8168,106.298 76.5,110.5C 76.3433,111.873 76.51,113.207 77,114.5C 79.8741,111.518 82.0408,108.185 83.5,104.5C 84.7801,108.769 84.4467,112.935 82.5,117C 82.8333,117.5 83.1667,118 83.5,118.5C 85.1331,116.497 87.1331,115.164 89.5,114.5C 89.683,116.936 89.0163,119.103 87.5,121C 88.7932,121.49 90.1266,121.657 91.5,121.5C 91.6816,123.591 91.3482,125.591 90.5,127.5C 92.9009,131.369 93.0675,135.369 91,139.5C 88.1683,142.325 89.0016,144.325 93.5,145.5C 95.4776,147.531 95.4776,149.197 93.5,150.5C 91.5914,149.652 89.5914,149.318 87.5,149.5C 88.1714,155.525 88.6714,161.525 89,167.5C 86.5725,168.781 84.0725,169.781 81.5,170.5C 88.8996,189.864 96.3996,209.198 104,228.5C 104.667,235.833 104.667,243.167 104,250.5C 100.867,259.428 97.2005,268.094 93,276.5C 89.1438,281.505 84.3104,285.172 78.5,287.5C 65.4523,301.716 51.619,315.049 37,327.5C 36.5078,328.549 36.6744,329.549 37.5,330.5C 53.7183,337.708 70.7183,342.708 88.5,345.5C 93.8969,343.319 99.5636,341.986 105.5,341.5C 108.167,341.833 110.833,342.167 113.5,342.5C 121.005,349.376 129.672,351.543 139.5,349C 141.602,344.202 143.768,339.369 146,334.5C 150.597,330.788 155.43,327.455 160.5,324.5C 163.534,317.833 165.201,310.833 165.5,303.5C 167.5,302.167 169.5,302.167 171.5,303.5C 173.005,306.775 174.671,309.775 176.5,312.5C 176.5,317.167 176.5,321.833 176.5,326.5C 177.833,326.5 179.167,326.5 180.5,326.5C 185.767,327.45 190.934,329.117 196,331.5C 197.167,331.333 198.333,331.167 199.5,331C 203.76,324.721 206.76,317.887 208.5,310.5C 210.288,310.215 211.955,310.548 213.5,311.5C 217.075,316.971 218.241,322.971 217,329.5C 213.801,335.906 209.634,341.573 204.5,346.5C 206.936,350.612 208.936,354.945 210.5,359.5C 215.04,364.504 220.04,369.171 225.5,373.5C 228.117,376.209 230.283,379.209 232,382.5C 231.957,388.122 232.791,393.456 234.5,398.5C 233.945,402.012 234.612,405.012 236.5,407.5C 237.474,409.085 238.974,410.085 241,410.5C 245.719,416.063 249.885,422.063 253.5,428.5C 258.431,434 263.598,439.333 269,444.5C 269.795,447.462 271.295,449.962 273.5,452C 273.37,453.059 272.87,453.892 272,454.5C 271.829,459.533 271.329,464.533 270.5,469.5C 266.006,473.318 262.339,477.818 259.5,483C 258.552,483.483 257.552,483.649 256.5,483.5C 256.649,484.552 256.483,485.552 256,486.5C 251.168,490.331 245.668,491.998 239.5,491.5C 233.818,492.531 229.151,490.865 225.5,486.5C 216.068,484.188 206.401,482.855 196.5,482.5C 187.393,480.087 178.06,478.42 168.5,477.5C 156.666,479.074 144.666,479.907 132.5,480C 124.833,483.333 117.167,486.667 109.5,490C 102.796,494.679 96.1292,499.346 89.5,504C 85.963,508.038 81.963,511.538 77.5,514.5C 75.4288,520.351 72.9288,526.018 70,531.5C 67.6447,533.895 65.6447,536.562 64,539.5C 57.8778,543.848 52.0445,548.348 46.5,553C 44.8455,553.608 43.1789,554.108 41.5,554.5C 42.5463,552.215 42.5463,549.882 41.5,547.5C 42.5754,548.562 43.5754,548.562 44.5,547.5C 43.1667,544.833 43.1667,542.167 44.5,539.5C 44.1667,539.167 43.8333,538.833 43.5,538.5C 42.8182,539.243 42.1515,539.909 41.5,540.5C 41.5,538.833 41.5,537.167 41.5,535.5C 42.3764,535.631 43.0431,535.298 43.5,534.5C 42.8333,532.5 42.1667,530.5 41.5,528.5C 41.0431,527.702 40.3764,527.369 39.5,527.5C 39.5,527.167 39.5,526.833 39.5,526.5C 41.3784,525.066 42.045,523.399 41.5,521.5C 42.4054,520.298 42.4054,518.964 41.5,517.5C 42.8699,517.144 43.8699,516.31 44.5,515C 46.316,506.854 50.816,500.687 58,496.5C 58.7412,497.641 59.5745,497.641 60.5,496.5C 61.1667,497.167 61.8333,497.833 62.5,498.5C 63.9411,497.696 65.4411,497.029 67,496.5C 68.0105,496.892 68.5105,497.559 68.5,498.5C 69.8448,497.653 70.8448,496.487 71.5,495C 70.373,493.247 69.373,491.413 68.5,489.5C 67.675,488.614 66.675,488.281 65.5,488.5C 66.3149,487.163 67.4815,486.163 69,485.5C 69.1667,484.667 69.3333,483.833 69.5,483C 69.3158,481.624 68.6491,480.791 67.5,480.5C 64.9129,479.522 63.2462,478.189 62.5,476.5C 60.1263,474.239 57.4596,473.573 54.5,474.5C 53.7784,474.082 53.2784,473.416 53,472.5C 52.3292,473.252 51.4959,473.586 50.5,473.5C 51.6576,472.05 51.1576,471.05 49,470.5C 47.1712,470.565 45.3379,470.898 43.5,471.5C 41.9256,471.063 40.7589,470.063 40,468.5C 39.7216,469.416 39.2216,470.082 38.5,470.5C 34.0847,467.154 29.418,466.821 24.5,469.5C 22.7763,468.339 21.1096,468.505 19.5,470C 20.056,470.383 20.3893,470.883 20.5,471.5C 19.2022,470.884 18.2022,470.884 17.5,471.5C 11.7877,472.855 8.78774,476.188 8.5,481.5C 8.5,481.833 8.5,482.167 8.5,482.5C 7.13291,481.147 6.13291,481.481 5.5,483.5C 5.98571,485.304 6.31904,486.971 6.5,488.5C 6.5,489.5 6.5,490.5 6.5,491.5C 5.84851,490.909 5.18185,490.243 4.5,489.5C 3.26125,491.007 3.59458,492.174 5.5,493C 3.95012,495.095 3.61679,497.262 4.5,499.5C 5.18185,498.757 5.84851,498.091 6.5,497.5C 5.99475,500.841 5.82808,504.174 6,507.5C 6.38258,506.944 6.88258,506.611 7.5,506.5C 6.28036,509.53 6.94703,512.196 9.5,514.5C 8.60542,516.345 9.27209,517.678 11.5,518.5C 10.7917,522.785 10.2917,527.118 10,531.5C 7.98352,533.684 5.81685,535.684 3.5,537.5C 3.86273,538.183 4.19607,538.85 4.5,539.5C 4.18999,540.738 3.68999,540.738 3,539.5C 2.861,542.445 1.69434,544.779 -0.5,546.5C -0.5,437.833 -0.5,329.167 -0.5,220.5C 5.97123,219.874 11.9712,217.874 17.5,214.5C 18.8135,212.482 18.1468,211.315 15.5,211C 21.8108,202.925 24.9774,193.759 25,183.5C 23.3333,185.167 21.6667,186.833 20,188.5C 19.8333,187.833 19.6667,187.167 19.5,186.5C 21.5846,182.692 22.7513,178.692 23,174.5C 21.4464,177.102 19.2798,178.269 16.5,178C 18.7594,176.285 20.9261,174.452 23,172.5C 26.3088,166.749 29.1421,160.749 31.5,154.5C 33.6034,145.155 38.2701,136.988 45.5,130C 50.392,127.724 55.0587,125.224 59.5,122.5C 52.9286,118.986 49.0952,113.653 48,106.5C 49.7672,105.183 51.1005,103.516 52,101.5C 53.0414,103.585 54.5414,105.252 56.5,106.5C 57.1032,101.89 58.4365,97.5567 60.5,93.5C 61.086,93.7093 61.586,94.0426 62,94.5C 62.7601,111.111 64.4268,111.444 67,95.5C 68.0113,94.6634 69.1779,94.33 70.5,94.5C 69.6786,99.8632 69.6786,105.197 70.5,110.5C 72.5557,106.667 74.2224,102.667 75.5,98.5 Z"/></g>
<g><path style="opacity:1" fill="#dbaaa6" d="M 75.5,98.5 C 75.56,97.9569 75.8933,97.6236 76.5,97.5C 77.8111,101.984 77.8111,106.317 76.5,110.5C 76.8168,106.298 76.4834,102.298 75.5,98.5 Z"/></g>
<g><path style="opacity:0.984" fill="#a72a22" d="M 623.5,108.5 C 667.524,107.601 703.024,124.268 730,158.5C 752.088,192.768 758.088,229.768 748,269.5C 731.466,319.691 696.966,348.524 644.5,356C 599.242,361.141 561.076,347.308 530,314.5C 503.305,278.686 495.638,239.019 507,195.5C 521.477,150.69 551.644,122.857 597.5,112C 606.259,110.407 614.926,109.241 623.5,108.5 Z M 616.5,139.5 C 669.513,138.029 702.013,163.029 714,214.5C 719.039,245.346 712.039,273.012 693,297.5C 669.401,321.585 640.901,330.419 607.5,324C 570.524,314.022 548.358,290.188 541,252.5C 534.682,215.227 545.182,183.727 572.5,158C 585.553,147.821 600.219,141.654 616.5,139.5 Z"/></g>
<g><path style="opacity:0.982" fill="#a72a22" d="M 1048.5,108.5 C 1090.69,107.345 1123.53,124.011 1147,158.5C 1161.15,184.774 1166.65,212.774 1163.5,242.5C 1098.83,242.5 1034.17,242.5 969.5,242.5C 973.547,288.043 997.881,315.543 1042.5,325C 1079.53,329.146 1108.53,315.98 1129.5,285.5C 1138.43,291.594 1146.93,298.261 1155,305.5C 1155.67,306.5 1155.67,307.5 1155,308.5C 1124.83,345.015 1085.99,360.848 1038.5,356C 983.772,347.384 949.605,316.217 936,262.5C 925.997,212.294 939.497,169.794 976.5,135C 997.738,118.533 1021.74,109.7 1048.5,108.5 Z M 1041.5,139.5 C 1093.83,136.83 1122.83,161.497 1128.5,213.5C 1075.83,213.5 1023.17,213.5 970.5,213.5C 977.207,172.461 1000.87,147.794 1041.5,139.5 Z"/></g>
<g><path style="opacity:0.98" fill="#a72a22" d="M 1301.5,108.5 C 1333.83,107.876 1361,119.209 1383,142.5C 1384.97,145.601 1386.8,148.768 1388.5,152C 1380.32,159.33 1371.66,166.163 1362.5,172.5C 1343.74,144.404 1317.74,134.237 1284.5,142C 1259.32,149.789 1251.16,165.956 1260,190.5C 1265.98,197.75 1273.48,202.917 1282.5,206C 1300.04,211.134 1317.7,215.801 1335.5,220C 1352.57,224.779 1367.4,233.279 1380,245.5C 1391.85,262.078 1395.52,280.412 1391,300.5C 1383.46,328.368 1365.63,345.868 1337.5,353C 1298.73,362.153 1263.07,355.486 1230.5,333C 1222.82,326.499 1216.49,318.999 1211.5,310.5C 1219.88,302.797 1228.88,295.797 1238.5,289.5C 1261.77,321.869 1292.77,332.703 1331.5,322C 1355.9,311.442 1363.07,293.942 1353,269.5C 1350.5,267 1348,264.5 1345.5,262C 1336.88,257.193 1327.88,253.193 1318.5,250C 1303.92,245.689 1289.25,241.689 1274.5,238C 1225.94,223.041 1211.11,191.874 1230,144.5C 1241.6,127.099 1257.76,116.266 1278.5,112C 1286.26,110.447 1293.92,109.28 1301.5,108.5 Z"/></g>
<g><path style="opacity:0.98" fill="#a72a22" d="M 1702.5,108.5 C 1732.33,107.269 1757.83,116.936 1779,137.5C 1789.49,150.64 1795.49,165.64 1797,182.5C 1797.33,225.833 1797.67,269.167 1798,312.5C 1798.44,325.244 1799.61,337.911 1801.5,350.5C 1790.83,350.5 1780.17,350.5 1769.5,350.5C 1768.24,338.183 1767.08,325.85 1766,313.5C 1746.15,343.425 1718.15,357.758 1682,356.5C 1653.65,357.732 1630.32,347.732 1612,326.5C 1599.65,307.041 1596.31,286.041 1602,263.5C 1608.55,243.28 1621.72,229.113 1641.5,221C 1657.29,214.841 1673.63,210.841 1690.5,209C 1715.11,206.614 1739.78,205.448 1764.5,205.5C 1766.09,187.918 1761.92,171.918 1752,157.5C 1741.52,146.68 1728.69,140.846 1713.5,140C 1682.76,137.302 1655.93,146.135 1633,166.5C 1627.02,159.854 1621.02,153.187 1615,146.5C 1614.02,145.241 1613.68,143.908 1614,142.5C 1629.68,127.574 1648.18,117.741 1669.5,113C 1680.55,110.746 1691.55,109.246 1702.5,108.5 Z M 1751.5,233.5 C 1755.83,233.5 1760.17,233.5 1764.5,233.5C 1767.43,258.037 1761.93,280.37 1748,300.5C 1729.27,321.638 1705.77,330.138 1677.5,326C 1664.32,324.46 1653.15,318.96 1644,309.5C 1633.62,294.283 1632.95,278.616 1642,262.5C 1652.66,251.583 1665.49,244.416 1680.5,241C 1690.36,238.496 1700.36,236.83 1710.5,236C 1724.33,235.177 1737.99,234.344 1751.5,233.5 Z"/></g>
<g><path style="opacity:0.988" fill="#a72a22" d="M 1990.5,108.5 C 1996.85,108.735 2003.18,109.235 2009.5,110C 2012.12,110.151 2014.45,110.985 2016.5,112.5C 2015.05,123.638 2013.05,134.638 2010.5,145.5C 1969.1,135.66 1940.6,150.326 1925,189.5C 1922.47,197.318 1920.81,205.318 1920,213.5C 1919.5,259.165 1919.33,304.832 1919.5,350.5C 1907.83,350.5 1896.17,350.5 1884.5,350.5C 1885,271.818 1884.33,193.151 1882.5,114.5C 1893.5,114.5 1904.5,114.5 1915.5,114.5C 1916.58,127.811 1917.41,141.144 1918,154.5C 1933.75,125.924 1957.91,110.59 1990.5,108.5 Z"/></g>
<g><path style="opacity:1" fill="#dcaca8" d="M 176.5,312.5 C 177.485,316.634 177.818,320.968 177.5,325.5C 178.791,325.263 179.791,325.596 180.5,326.5C 179.167,326.5 177.833,326.5 176.5,326.5C 176.5,321.833 176.5,317.167 176.5,312.5 Z"/></g>
<g><path style="opacity:1" fill="#d08f8c" d="M 234.5,398.5 C 235.245,401.39 235.912,404.39 236.5,407.5C 234.612,405.012 233.945,402.012 234.5,398.5 Z"/></g>
<g><path style="opacity:0.989" fill="#a72a22" d="M 1347.5,779.5 C 1308.17,779.5 1268.83,779.5 1229.5,779.5C 1185.83,765.332 1152,738.665 1128,699.5C 1107.45,659.649 1101.45,617.649 1110,573.5C 1123.68,513.661 1158.85,471.828 1215.5,448C 1261.08,432.097 1307.08,430.764 1353.5,444C 1407.23,462.395 1444.73,497.895 1466,550.5C 1478.93,591.948 1478.6,633.282 1465,674.5C 1447.57,716.601 1418.4,747.767 1377.5,768C 1367.66,772.552 1357.66,776.385 1347.5,779.5 Z M 1276.5,483.5 C 1338.76,479.367 1384.26,504.701 1413,559.5C 1426.61,593.015 1426.94,626.681 1414,660.5C 1394.27,703.561 1361.1,729.394 1314.5,738C 1264.45,745.763 1222.28,731.263 1188,694.5C 1160.55,658.583 1152.55,618.583 1164,574.5C 1177.83,531.333 1206.33,502.833 1249.5,489C 1258.55,486.719 1267.55,484.885 1276.5,483.5 Z"/></g>
<g><path style="opacity:0.988" fill="#a72a22" d="M 828.5,779.5 C 807.5,779.5 786.5,779.5 765.5,779.5C 728.829,733.528 691.662,687.861 654,642.5C 616.332,688.332 578.499,733.998 540.5,779.5C 519.5,779.5 498.5,779.5 477.5,779.5C 525.944,721.457 574.278,663.29 622.5,605C 577.214,550.926 532.048,496.759 487,442.5C 486.517,441.552 486.351,440.552 486.5,439.5C 507.177,439.167 527.844,439.5 548.5,440.5C 583.478,483.312 618.645,525.979 654,568.5C 689.525,525.943 724.692,483.109 759.5,440C 779.831,439.5 800.164,439.333 820.5,439.5C 820.649,440.552 820.483,441.552 820,442.5C 774.978,496.688 730.145,551.021 685.5,605.5C 733.19,663.519 780.857,721.519 828.5,779.5 Z"/></g>
<g><path style="opacity:0.99" fill="#a72a22" d="M 915.5,779.5 C 898.167,779.5 880.833,779.5 863.5,779.5C 863.5,666.167 863.5,552.833 863.5,439.5C 905.168,439.333 946.835,439.5 988.5,440C 1047.03,446.363 1078.03,478.863 1081.5,537.5C 1079.05,589.443 1052.39,620.61 1001.5,631C 993.217,632.41 984.883,633.41 976.5,634C 956.169,634.5 935.836,634.667 915.5,634.5C 915.5,682.833 915.5,731.167 915.5,779.5 Z M 915.5,484.5 C 934.503,484.333 953.503,484.5 972.5,485C 1016.74,487.904 1034.58,511.071 1026,554.5C 1021.66,568.84 1012.49,578.673 998.5,584C 991.429,586.814 984.096,588.481 976.5,589C 956.169,589.5 935.836,589.667 915.5,589.5C 915.5,554.5 915.5,519.5 915.5,484.5 Z"/></g>
<g><path style="opacity:0.99" fill="#a72a22" d="M 1798.5,779.5 C 1778.17,779.5 1757.83,779.5 1737.5,779.5C 1729.95,767.107 1721.78,755.107 1713,743.5C 1702.58,725.667 1691.92,708.001 1681,690.5C 1668.25,671.748 1652.75,655.582 1634.5,642C 1627.06,637.805 1619.06,635.472 1610.5,635C 1602.17,634.5 1593.84,634.334 1585.5,634.5C 1585.5,682.833 1585.5,731.167 1585.5,779.5C 1568.83,779.5 1552.17,779.5 1535.5,779.5C 1535.5,666.167 1535.5,552.833 1535.5,439.5C 1567.17,439.333 1598.84,439.5 1630.5,440C 1658.04,440.179 1682.71,448.513 1704.5,465C 1725.77,483.951 1736.11,507.785 1735.5,536.5C 1734.38,576.273 1715.71,604.106 1679.5,620C 1695.37,631.541 1708.87,645.375 1720,661.5C 1736.75,685.991 1752.75,710.991 1768,736.5C 1778.18,750.863 1788.34,765.196 1798.5,779.5 Z M 1585.5,483.5 C 1601.53,483.176 1617.53,483.676 1633.5,485C 1663.92,488.256 1680.26,505.089 1682.5,535.5C 1681.04,565.126 1665.7,582.292 1636.5,587C 1619.53,588.375 1602.53,588.875 1585.5,588.5C 1585.5,553.5 1585.5,518.5 1585.5,483.5 Z"/></g>
<g><path style="opacity:0.991" fill="#a72a22" d="M 1929.5,779.5 C 1912.5,779.5 1895.5,779.5 1878.5,779.5C 1878.5,681.167 1878.5,582.833 1878.5,484.5C 1839.5,484.5 1800.5,484.5 1761.5,484.5C 1761.5,469.5 1761.5,454.5 1761.5,439.5C 1857.17,439.5 1952.83,439.5 2048.5,439.5C 2048.5,454.5 2048.5,469.5 2048.5,484.5C 2008.83,484.5 1969.17,484.5 1929.5,484.5C 1929.5,582.833 1929.5,681.167 1929.5,779.5 Z"/></g>
<g><path style="opacity:1" fill="#d29d9d" d="M 38.5,470.5 C 35.6257,470.549 32.7923,470.216 30,469.5C 26.8365,470.25 23.6699,470.916 20.5,471.5C 20.3893,470.883 20.056,470.383 19.5,470C 21.1096,468.505 22.7763,468.339 24.5,469.5C 29.418,466.821 34.0847,467.154 38.5,470.5 Z"/></g>
<g><path style="opacity:1" fill="#a71e1e" d="M 43.5,471.5 C 45.6568,472.407 47.9902,473.073 50.5,473.5C 51.4959,473.586 52.3292,473.252 53,472.5C 53.2784,473.416 53.7784,474.082 54.5,474.5C 56.5658,475.429 58.7325,476.429 61,477.5C 61.7648,477.43 62.2648,477.097 62.5,476.5C 63.2462,478.189 64.9129,479.522 67.5,480.5C 68.7734,483.901 67.44,485.234 63.5,484.5C 63.2291,486.38 63.8958,487.713 65.5,488.5C 67.8504,490.213 68.8504,492.547 68.5,495.5C 64.9408,495.716 61.4408,495.382 58,494.5C 48.5884,499.31 43.0884,506.977 41.5,517.5C 42.4054,518.964 42.4054,520.298 41.5,521.5C 39.7868,522.635 39.1201,524.302 39.5,526.5C 39.5,526.833 39.5,527.167 39.5,527.5C 39.5651,530.428 40.2318,533.095 41.5,535.5C 41.5,537.167 41.5,538.833 41.5,540.5C 41.5,542.833 41.5,545.167 41.5,547.5C 42.5463,549.882 42.5463,552.215 41.5,554.5C 42.8083,555.232 44.1416,556.066 45.5,557C 44.8333,557.333 44.1667,557.667 43.5,558C 44.464,559.725 45.1307,561.559 45.5,563.5C 45.8685,566.533 45.2018,569.2 43.5,571.5C 41.2254,570.889 39.5588,569.555 38.5,567.5C 38.5,566.167 38.5,564.833 38.5,563.5C 36.5,563.5 34.5,563.5 32.5,563.5C 32.1367,565.911 33.1367,567.411 35.5,568C 34.2132,571.269 34.8799,574.103 37.5,576.5C 38.7914,577.473 38.7914,578.473 37.5,579.5C 38.3398,580.735 39.3398,581.735 40.5,582.5C 39.3549,584.953 39.6883,587.287 41.5,589.5C 41.5743,591.411 42.5743,592.578 44.5,593C 42.0688,594.092 42.0688,595.259 44.5,596.5C 43.8761,596.917 43.5427,597.584 43.5,598.5C 43.9289,601.029 44.5955,603.362 45.5,605.5C 45.6459,609.387 46.3126,613.054 47.5,616.5C 47.584,619.682 48.9173,622.015 51.5,623.5C 50.962,625.117 50.6287,626.784 50.5,628.5C 50.2322,630.099 50.5655,631.432 51.5,632.5C 52.716,638.145 52.716,643.812 51.5,649.5C 50.5206,652.625 50.1872,655.958 50.5,659.5C 50.5,659.833 50.5,660.167 50.5,660.5C 48.8635,664.3 47.8635,668.3 47.5,672.5C 46.1835,674.482 46.1835,676.482 47.5,678.5C 47.3333,679.167 47.1667,679.833 47,680.5C 46.31,679.262 45.81,679.262 45.5,680.5C 43.2661,684.522 41.5995,688.856 40.5,693.5C 39.6618,693.842 39.3284,694.508 39.5,695.5C 38.0256,696.436 37.0256,697.77 36.5,699.5C 36.5,699.833 36.5,700.167 36.5,700.5C 34.5293,702.808 32.5293,705.142 30.5,707.5C 25.0707,710.413 19.7373,713.58 14.5,717C 9.70457,719.033 4.70457,719.866 -0.5,719.5C -0.5,661.833 -0.5,604.167 -0.5,546.5C 1.69434,544.779 2.861,542.445 3,539.5C 3.68999,540.738 4.18999,540.738 4.5,539.5C 6.45168,536.882 8.78501,534.548 11.5,532.5C 12.8124,527.682 12.8124,523.015 11.5,518.5C 10.6806,514.225 9.34727,510.225 7.5,506.5C 7.81,503.287 7.47667,500.287 6.5,497.5C 6.5,495.5 6.5,493.5 6.5,491.5C 6.5,490.5 6.5,489.5 6.5,488.5C 7.36268,486.579 8.02935,484.579 8.5,482.5C 8.5,482.167 8.5,481.833 8.5,481.5C 11.1298,477.868 14.1298,474.535 17.5,471.5C 18.2022,470.884 19.2022,470.884 20.5,471.5C 23.6699,470.916 26.8365,470.25 30,469.5C 32.7923,470.216 35.6257,470.549 38.5,470.5C 39.2216,470.082 39.7216,469.416 40,468.5C 40.7589,470.063 41.9256,471.063 43.5,471.5 Z"/></g>
<g><path style="opacity:1" fill="#c08585" d="M 50.5,473.5 C 47.9902,473.073 45.6568,472.407 43.5,471.5C 45.3379,470.898 47.1712,470.565 49,470.5C 51.1576,471.05 51.6576,472.05 50.5,473.5 Z"/></g>
<g><path style="opacity:1" fill="#c17e7d" d="M 17.5,471.5 C 14.1298,474.535 11.1298,477.868 8.5,481.5C 8.78774,476.188 11.7877,472.855 17.5,471.5 Z"/></g>
<g><path style="opacity:1" fill="#cb9291" d="M 62.5,476.5 C 62.2648,477.097 61.7648,477.43 61,477.5C 58.7325,476.429 56.5658,475.429 54.5,474.5C 57.4596,473.573 60.1263,474.239 62.5,476.5 Z"/></g>
<g><path style="opacity:1" fill="#c68888" d="M 8.5,482.5 C 8.02935,484.579 7.36268,486.579 6.5,488.5C 6.31904,486.971 5.98571,485.304 5.5,483.5C 6.13291,481.481 7.13291,481.147 8.5,482.5 Z"/></g>
<g><path style="opacity:1" fill="#c68180" d="M 67.5,480.5 C 68.6491,480.791 69.3158,481.624 69.5,483C 69.3333,483.833 69.1667,484.667 69,485.5C 67.4815,486.163 66.3149,487.163 65.5,488.5C 63.8958,487.713 63.2291,486.38 63.5,484.5C 67.44,485.234 68.7734,483.901 67.5,480.5 Z"/></g>
<g><path style="opacity:1" fill="#d3a0a0" d="M 6.5,491.5 C 6.5,493.5 6.5,495.5 6.5,497.5C 5.84851,498.091 5.18185,498.757 4.5,499.5C 3.61679,497.262 3.95012,495.095 5.5,493C 3.59458,492.174 3.26125,491.007 4.5,489.5C 5.18185,490.243 5.84851,490.909 6.5,491.5 Z"/></g>
<g><path style="opacity:1" fill="#c26b6a" d="M 6.5,497.5 C 7.47667,500.287 7.81,503.287 7.5,506.5C 6.88258,506.611 6.38258,506.944 6,507.5C 5.82808,504.174 5.99475,500.841 6.5,497.5 Z"/></g>
<g><path style="opacity:1" fill="#cb9090" d="M 65.5,488.5 C 66.675,488.281 67.675,488.614 68.5,489.5C 69.373,491.413 70.373,493.247 71.5,495C 70.8448,496.487 69.8448,497.653 68.5,498.5C 68.5105,497.559 68.0105,496.892 67,496.5C 65.4411,497.029 63.9411,497.696 62.5,498.5C 61.8333,497.833 61.1667,497.167 60.5,496.5C 59.5745,497.641 58.7412,497.641 58,496.5C 50.816,500.687 46.316,506.854 44.5,515C 43.8699,516.31 42.8699,517.144 41.5,517.5C 43.0884,506.977 48.5884,499.31 58,494.5C 61.4408,495.382 64.9408,495.716 68.5,495.5C 68.8504,492.547 67.8504,490.213 65.5,488.5 Z"/></g>
<g><path style="opacity:1" fill="#c28382" d="M 7.5,506.5 C 9.34727,510.225 10.6806,514.225 11.5,518.5C 9.27209,517.678 8.60542,516.345 9.5,514.5C 6.94703,512.196 6.28036,509.53 7.5,506.5 Z"/></g>
<g><path style="opacity:1" fill="#cc9898" d="M 41.5,521.5 C 42.045,523.399 41.3784,525.066 39.5,526.5C 39.1201,524.302 39.7868,522.635 41.5,521.5 Z"/></g>
<g><path style="opacity:1" fill="#ca9594" d="M 39.5,527.5 C 40.3764,527.369 41.0431,527.702 41.5,528.5C 42.1667,530.5 42.8333,532.5 43.5,534.5C 43.0431,535.298 42.3764,535.631 41.5,535.5C 40.2318,533.095 39.5651,530.428 39.5,527.5 Z"/></g>
<g><path style="opacity:1" fill="#c58988" d="M 11.5,518.5 C 12.8124,523.015 12.8124,527.682 11.5,532.5C 8.78501,534.548 6.45168,536.882 4.5,539.5C 4.19607,538.85 3.86273,538.183 3.5,537.5C 5.81685,535.684 7.98352,533.684 10,531.5C 10.2917,527.118 10.7917,522.785 11.5,518.5 Z"/></g>
<g><path style="opacity:1" fill="#f4e8e8" d="M 36.5,536.5 C 35.1764,539.136 35.1764,541.802 36.5,544.5C 35.7573,545.182 35.0906,545.849 34.5,546.5C 34.5,547.167 34.5,547.833 34.5,548.5C 34.1583,549.338 33.4916,549.672 32.5,549.5C 32.5,547.833 32.5,546.167 32.5,544.5C 33.6491,544.209 34.3158,543.376 34.5,542C 33.7479,539.846 33.5812,537.68 34,535.5C 34.6708,536.252 35.5041,536.586 36.5,536.5 Z"/></g>
<g><path style="opacity:1" fill="#c39292" d="M 36.5,536.5 C 37.4794,539.625 37.8128,542.958 37.5,546.5C 36.5,546.5 35.5,546.5 34.5,546.5C 35.0906,545.849 35.7573,545.182 36.5,544.5C 35.1764,541.802 35.1764,539.136 36.5,536.5 Z"/></g>
<g><path style="opacity:1" fill="#bc7474" d="M 36.5,536.5 C 35.5041,536.586 34.6708,536.252 34,535.5C 33.5812,537.68 33.7479,539.846 34.5,542C 34.3158,543.376 33.6491,544.209 32.5,544.5C 31.7463,541.977 31.0796,539.311 30.5,536.5C 31.5,534.833 32.8333,533.5 34.5,532.5C 36.1112,533.32 36.7778,534.654 36.5,536.5 Z"/></g>
<g><path style="opacity:1" fill="#ca9a9a" d="M 41.5,547.5 C 41.5,545.167 41.5,542.833 41.5,540.5C 42.1515,539.909 42.8182,539.243 43.5,538.5C 43.8333,538.833 44.1667,539.167 44.5,539.5C 43.1667,542.167 43.1667,544.833 44.5,547.5C 43.5754,548.562 42.5754,548.562 41.5,547.5 Z"/></g>
<g><path style="opacity:1" fill="#ddb9b8" d="M 34.5,548.5 C 36.7778,550.827 38.1111,553.327 38.5,556C 37.1882,558.151 35.3549,559.651 33,560.5C 32.5014,556.848 32.3347,553.182 32.5,549.5C 33.4916,549.672 34.1583,549.338 34.5,548.5 Z"/></g>
<g><path style="opacity:1" fill="#fefdfd" d="M 64.5,564.5 C 91.4893,565.657 116.489,573.157 139.5,587C 152.059,597.253 164.725,607.42 177.5,617.5C 182.903,621.569 188.57,625.236 194.5,628.5C 199.684,626.076 204.35,622.91 208.5,619C 211.318,618.16 213.484,618.994 215,621.5C 215.501,626.508 216.001,631.508 216.5,636.5C 220.852,635.546 224.685,633.546 228,630.5C 230.127,625.436 232.627,620.602 235.5,616C 237.167,615.333 238.833,615.333 240.5,616C 244.19,623.426 244.357,630.926 241,638.5C 234.574,642.295 228.407,646.462 222.5,651C 221.552,651.483 220.552,651.649 219.5,651.5C 219.642,660.927 218.809,670.26 217,679.5C 215.744,682.133 214.577,684.799 213.5,687.5C 218.35,696.53 223.85,705.196 230,713.5C 231.887,715.886 234.387,717.053 237.5,717C 238.489,718.82 239.489,720.653 240.5,722.5C 239.164,725.009 238.33,727.676 238,730.5C 231.416,743.03 221.249,747.863 207.5,745C 194.487,744.833 181.487,744.333 168.5,743.5C 160.117,742.263 152.45,739.263 145.5,734.5C 132.444,730.743 119.777,726.076 107.5,720.5C 105.337,725.114 103.17,729.78 101,734.5C 96.6857,750.019 97.8524,765.019 104.5,779.5C 95.5,779.5 86.5,779.5 77.5,779.5C 74.9016,765.642 70.0682,752.642 63,740.5C 62.7232,728.349 57.8898,718.516 48.5,711C 42.4725,710.83 36.4725,710.33 30.5,709.5C 30.6236,708.893 30.9569,708.56 31.5,708.5C 32.4745,707.365 33.6412,706.365 35,705.5C 35.2735,703.671 36.1068,702.171 37.5,701C 37.2716,700.601 36.9382,700.435 36.5,700.5C 36.5,700.167 36.5,699.833 36.5,699.5C 38.0783,698.934 39.4116,697.934 40.5,696.5C 40.3764,695.893 40.0431,695.56 39.5,695.5C 39.3284,694.508 39.6618,693.842 40.5,693.5C 43.3805,692.678 44.3805,691.011 43.5,688.5C 46.3788,686.319 47.0454,683.652 45.5,680.5C 45.81,679.262 46.31,679.262 47,680.5C 47.1667,679.833 47.3333,679.167 47.5,678.5C 46.1835,676.482 46.1835,674.482 47.5,672.5C 48.1174,672.611 48.6174,672.944 49,673.5C 50.1097,671.603 50.2764,669.77 49.5,668C 52.1667,667.333 52.1667,666.667 49.5,666C 51.5532,664.322 51.8866,662.489 50.5,660.5C 50.5,660.167 50.5,659.833 50.5,659.5C 52.8519,658.048 53.1852,656.048 51.5,653.5C 54.0182,651.844 54.0182,650.511 51.5,649.5C 52.716,643.812 52.716,638.145 51.5,632.5C 52.3764,632.631 53.0431,632.298 53.5,631.5C 52.452,630.452 51.452,629.452 50.5,628.5C 50.6287,626.784 50.962,625.117 51.5,623.5C 50.4701,620.772 49.6368,617.772 49,614.5C 48.7216,615.416 48.2216,616.082 47.5,616.5C 48.4045,613.785 48.7378,611.119 48.5,608.5C 47.8118,607.145 46.8118,606.145 45.5,605.5C 45.2865,603.856 45.6198,602.356 46.5,601C 44.1088,599.691 44.1088,598.691 46.5,598C 45.5842,597.722 44.9175,597.222 44.5,596.5C 42.0688,595.259 42.0688,594.092 44.5,593C 42.5743,592.578 41.5743,591.411 41.5,589.5C 41.6107,588.663 41.944,587.663 42.5,586.5C 41.8201,585.14 41.1534,583.807 40.5,582.5C 39.3398,581.735 38.3398,580.735 37.5,579.5C 38.7914,578.473 38.7914,577.473 37.5,576.5C 37.6596,574.847 38.3263,573.514 39.5,572.5C 41.099,572.768 42.4324,572.434 43.5,571.5C 47.322,570.82 48.9886,568.487 48.5,564.5C 53.8333,564.5 59.1667,564.5 64.5,564.5 Z"/></g>
<g><path style="opacity:1" fill="#e5cccb" d="M 38.5,567.5 C 38.366,569.292 38.6993,570.958 39.5,572.5C 38.3263,573.514 37.6596,574.847 37.5,576.5C 34.8799,574.103 34.2132,571.269 35.5,568C 33.1367,567.411 32.1367,565.911 32.5,563.5C 34.5,563.5 36.5,563.5 38.5,563.5C 38.5,564.833 38.5,566.167 38.5,567.5 Z"/></g>
<g><path style="opacity:1" fill="#d2a4a3" d="M 45.5,563.5 C 46.3019,564.952 46.8019,566.618 47,568.5C 47.4935,566.866 47.6602,565.199 47.5,563.5C 53.358,563.178 59.0247,563.511 64.5,564.5C 59.1667,564.5 53.8333,564.5 48.5,564.5C 48.9886,568.487 47.322,570.82 43.5,571.5C 45.2018,569.2 45.8685,566.533 45.5,563.5 Z"/></g>
<g><path style="opacity:1" fill="#bb7a7a" d="M 38.5,567.5 C 39.5588,569.555 41.2254,570.889 43.5,571.5C 42.4324,572.434 41.099,572.768 39.5,572.5C 38.6993,570.958 38.366,569.292 38.5,567.5 Z"/></g>
<g><path style="opacity:1" fill="#cd9b9b" d="M 40.5,582.5 C 41.1534,583.807 41.8201,585.14 42.5,586.5C 41.944,587.663 41.6107,588.663 41.5,589.5C 39.6883,587.287 39.3549,584.953 40.5,582.5 Z"/></g>
<g><path style="opacity:1" fill="#bf8483" d="M 44.5,596.5 C 44.9175,597.222 45.5842,597.722 46.5,598C 44.1088,598.691 44.1088,599.691 46.5,601C 45.6198,602.356 45.2865,603.856 45.5,605.5C 44.5955,603.362 43.9289,601.029 43.5,598.5C 43.5427,597.584 43.8761,596.917 44.5,596.5 Z"/></g>
<g><path style="opacity:1" fill="#c28a89" d="M 45.5,605.5 C 46.8118,606.145 47.8118,607.145 48.5,608.5C 48.7378,611.119 48.4045,613.785 47.5,616.5C 46.3126,613.054 45.6459,609.387 45.5,605.5 Z"/></g>
<g><path style="opacity:1" fill="#dab1b1" d="M 51.5,623.5 C 48.9173,622.015 47.584,619.682 47.5,616.5C 48.2216,616.082 48.7216,615.416 49,614.5C 49.6368,617.772 50.4701,620.772 51.5,623.5 Z"/></g>
<g><path style="opacity:1" fill="#c3908f" d="M 50.5,628.5 C 51.452,629.452 52.452,630.452 53.5,631.5C 53.0431,632.298 52.3764,632.631 51.5,632.5C 50.5655,631.432 50.2322,630.099 50.5,628.5 Z"/></g>
<g><path style="opacity:1" fill="#d3b5b5" d="M 51.5,649.5 C 54.0182,650.511 54.0182,651.844 51.5,653.5C 53.1852,656.048 52.8519,658.048 50.5,659.5C 50.1872,655.958 50.5206,652.625 51.5,649.5 Z"/></g>
<g><path style="opacity:1" fill="#c58483" d="M 50.5,660.5 C 51.8866,662.489 51.5532,664.322 49.5,666C 52.1667,666.667 52.1667,667.333 49.5,668C 50.2764,669.77 50.1097,671.603 49,673.5C 48.6174,672.944 48.1174,672.611 47.5,672.5C 47.8635,668.3 48.8635,664.3 50.5,660.5 Z"/></g>
<g><path style="opacity:1" fill="#cf9c9c" d="M 45.5,680.5 C 47.0454,683.652 46.3788,686.319 43.5,688.5C 44.3805,691.011 43.3805,692.678 40.5,693.5C 41.5995,688.856 43.2661,684.522 45.5,680.5 Z"/></g>
<g><path style="opacity:1" fill="#c8908f" d="M 39.5,695.5 C 40.0431,695.56 40.3764,695.893 40.5,696.5C 39.4116,697.934 38.0783,698.934 36.5,699.5C 37.0256,697.77 38.0256,696.436 39.5,695.5 Z"/></g>
<g><path style="opacity:1" fill="#d09493" d="M 36.5,700.5 C 36.9382,700.435 37.2716,700.601 37.5,701C 36.1068,702.171 35.2735,703.671 35,705.5C 33.6412,706.365 32.4745,707.365 31.5,708.5C 31.5,707.833 31.1667,707.5 30.5,707.5C 32.5293,705.142 34.5293,702.808 36.5,700.5 Z"/></g>
<g><path style="opacity:1" fill="#a72a22" d="M 30.5,707.5 C 31.1667,707.5 31.5,707.833 31.5,708.5C 30.9569,708.56 30.6236,708.893 30.5,709.5C 36.4725,710.33 42.4725,710.83 48.5,711C 57.8898,718.516 62.7232,728.349 63,740.5C 70.0682,752.642 74.9016,765.642 77.5,779.5C 51.5,779.5 25.5,779.5 -0.5,779.5C -0.5,759.5 -0.5,739.5 -0.5,719.5C 4.70457,719.866 9.70457,719.033 14.5,717C 19.7373,713.58 25.0707,710.413 30.5,707.5 Z"/></g>
</svg>
